<svg xmlns="http://www.w3.org/2000/svg" viewBox="0 0 48 48" id="24-hour-service"><linearGradient id="a" x1="917.115" x2="904.685" y1="21.107" y2="34.321" gradientTransform="matrix(3.0757 0 0 -3.0757 -2778.323 108.538)" gradientUnits="userSpaceOnUse"><stop offset="0" stop-color="#5A5B5B"></stop><stop offset="1" stop-color="#656E84"></stop></linearGradient><path fill="url(#a)" d="M10.1 0h27.7C43.5 0 48 4.5 48 10.1v27.7C48 43.5 43.5 48 37.9 48H10.1C4.5 48 0 43.5 0 37.9V10.1C0 4.5 4.5 0 10.1 0z"></path><path fill="#fff" d="M23.5 40c-8.8 0-16-7.2-16-16s7.2-16 16-16 16 7.2 16 16-7.2 16-16 16zm0-31c-8.3 0-15 6.7-15 15s6.7 15 15 15 15-6.7 15-15-6.7-15-15-15z"></path><path fill="#fff" d="M23.5 13c-.3 0-.5-.2-.5-.5v-2c0-.3.2-.5.5-.5s.5.2.5.5v2c0 .3-.2.5-.5.5zM23.5 38c-.3 0-.5-.2-.5-.5v-2c0-.3.2-.5.5-.5s.5.2.5.5v2c0 .3-.2.5-.5.5zM37 24.5h-2c-.3 0-.5-.2-.5-.5s.2-.5.5-.5h2c.3 0 .5.2.5.5s-.2.5-.5.5zM12 24.5h-2c-.3 0-.5-.2-.5-.5s.2-.5.5-.5h2c.3 0 .5.2.5.5s-.2.5-.5.5zM32.3 15.7c-.1 0-.3 0-.4-.1-.2-.2-.2-.5 0-.7l.7-.7c.2-.2.5-.2.7 0s.2.5 0 .7l-.7.7s-.1.1-.3.1zM14 34c-.1 0-.3 0-.4-.1-.2-.2-.2-.5 0-.7l.7-.7c.2-.2.5-.2.7 0s.2.5 0 .7l-.7.7c-.1.1-.2.1-.3.1zM33 34c-.1 0-.3 0-.4-.1l-.6-.7c-.2-.2-.2-.5 0-.7s.5-.2.7 0l.7.7c.2.2.2.5 0 .7-.1.1-.2.1-.4.1zM14.7 15.7c-.1 0-.3 0-.4-.1l-.7-.7c-.2-.2-.2-.5 0-.7s.5-.2.7 0l.7.7c.2.2.2.5 0 .7-.1 0-.2.1-.3.1zM35 19.7c-.2 0-.4-.1-.5-.3-.1-.3 0-.5.3-.7l.9-.4c.3-.1.5 0 .7.3.1.3 0 .5-.3.7l-.9.4H35zM11 29.7c-.2 0-.4-.1-.5-.3-.1-.3 0-.5.3-.7l.9-.4c.3-.1.5 0 .7.3.1.3 0 .5-.3.7l-.9.4H11zM28.7 37c-.2 0-.4-.1-.5-.3l-.4-.9c-.1-.3 0-.5.3-.7.3-.1.5 0 .7.3l.4.9c.1.3 0 .5-.3.7h-.2zM18.7 13c-.2 0-.4-.1-.5-.3l-.4-.9c-.1-.3 0-.5.3-.7.3-.1.5 0 .7.3l.4.9c.1.3 0 .5-.3.7-.1-.1-.1 0-.2 0zM12 19.7h-.2l-.9-.4c-.3-.1-.4-.4-.3-.7.1-.3.4-.4.7-.3l.9.4c.3.1.4.4.3.7-.2.2-.3.3-.5.3zM36 29.7h-.2l-.9-.4c-.3-.1-.4-.4-.3-.7.1-.3.4-.4.7-.3l.9.4c.3.1.4.4.3.7-.1.2-.3.3-.5.3zM18.3 37h-.2c-.3-.1-.4-.4-.3-.7l.4-.9c.1-.3.4-.4.7-.3.3.1.4.4.3.7l-.4.9c-.1.2-.3.3-.5.3zM28.3 13h-.2c-.3-.1-.4-.4-.3-.7l.4-.9c.1-.3.4-.4.7-.3.3.1.4.4.3.7l-.4.9c-.1.1-.3.3-.5.3zM25.2 29.3c-.1 0-.2 0-.2-.1-.2-.1-.3-.4-.2-.7l4.5-8c.1-.2.4-.3.7-.2.2.1.3.4.2.7l-4.5 8c-.1.2-.3.3-.5.3zM30 28.8h-.2c-.3-.1-.4-.4-.3-.6l1.2-3.3h-1.3c-.3 0-.5-.2-.5-.5s.2-.5.5-.5h2c.2 0 .3.1.4.2.1.1.1.3.1.5l-1.5 4s-.2.2-.4.2zM25.5 24.8h-4c-.1 0-.3-.1-.4-.2s-.1-.3-.1-.4l1-5c.1-.3.3-.4.6-.4.3.1.4.3.4.6l-.9 4.4h3.4c.3 0 .5.2.5.5s-.2.5-.5.5z"></path><path fill="#fff" d="M24.5 25.8c-.3 0-.5-.2-.5-.5v-4c0-.3.2-.5.5-.5s.5.2.5.5v4c0 .2-.2.5-.5.5zM19.5 25.8h-4c-.2 0-.4-.1-.5-.3s0-.4.2-.6l3.4-2.6c.2-.2.4-.6.4-1 0-.8-.7-1.5-1.5-1.5s-1.5.6-1.5 1.5c0 .3-.2.5-.5.5s-.5-.3-.5-.5c0-1.4 1.1-2.5 2.5-2.5s2.5 1.1 2.5 2.5c0 .7-.3 1.3-.7 1.8L17 24.8h2.5c.3 0 .5.2.5.5s-.2.5-.5.5z"></path></svg>