<svg xmlns="http://www.w3.org/2000/svg" viewBox="0 0 48 48" id="antenna"><linearGradient id="a" x1="919.343" x2="931.603" y1="-448.422" y2="-461.743" gradientTransform="matrix(3.0757 0 0 -3.0757 -2821.856 -1375.02)" gradientUnits="userSpaceOnUse"><stop offset="0" stop-color="#6EC5A6"></stop><stop offset="1" stop-color="#3FC0EF"></stop></linearGradient><path fill="url(#a)" d="M10.1 0h27.7C43.5 0 48 4.5 48 10.1v27.7C48 43.5 43.5 48 37.9 48H10.1C4.5 48 0 43.5 0 37.9V10.1C0 4.5 4.5 0 10.1 0z"></path><path fill="#fff" d="M29.5 16c-.1 0-.3 0-.4-.1l-3-3c-.2-.2-.2-.5 0-.7s.5-.2.7 0l3 3c.2.2.2.5 0 .7 0 .1-.2.1-.3.1z"></path><path fill="#fff" d="M26.5 16c-.1 0-.3 0-.4-.1-.2-.2-.2-.5 0-.7l3-3c.2-.2.5-.2.7 0s.2.5 0 .7l-3 3c0 .1-.2.1-.3.1zM23 16c-1.1 0-2-.9-2-2s.9-2 2-2 2 .9 2 2-.9 2-2 2zm0-3c-.6 0-1 .4-1 1s.4 1 1 1 1-.4 1-1-.4-1-1-1z"></path><path fill="#fff" d="M31.5 39c-.2 0-.4-.1-.5-.3L23.3 16h-.6L15 38.7c-.1.3-.4.4-.6.3-.3-.1-.4-.4-.3-.6L22 15.3c0-.1.1-.2.3-.3.1-.1.3-.1.4 0 .3.1.6.1.8 0 .1-.1.3-.1.4 0l.3.3 7.8 23c.1.3-.1.5-.3.6-.1.1-.1.1-.2.1zM28 19c-.4 0-.9-.1-1.4-.2-.3-.1-.4-.4-.3-.6.1-.3.4-.4.6-.3.4.1.8.2 1.1.2 2.2 0 4-1.8 4-4s-1.8-4-4-4c-1.1 0-2.2.5-2.9 1.3-.2.2-.5.2-.7 0-.2-.2-.2-.5 0-.7 1-1 2.3-1.6 3.7-1.6 2.8 0 5 2.2 5 5S30.8 19 28 19z"></path><path fill="#fff" d="M26 20h-6c-.3 0-.5-.2-.5-.5s.2-.5.5-.5h6c.3 0 .5.2.5.5s-.2.5-.5.5zM28 26H18c-.3 0-.5-.2-.5-.5s.2-.5.5-.5h10c.3 0 .5.2.5.5s-.2.5-.5.5z"></path><path fill="#fff" d="M27 26c-.1 0-.3 0-.4-.1l-6-6c-.2-.2-.2-.5 0-.7s.5-.2.7 0l6 6c.2.2.2.5 0 .7 0 .1-.2.1-.3.1z"></path><path fill="#fff" d="M19 26c-.1 0-.3 0-.4-.1-.2-.2-.2-.5 0-.7l6-6c.2-.2.5-.2.7 0s.2.5 0 .7l-6 6c0 .1-.2.1-.3.1zM30 32H16c-.3 0-.5-.2-.5-.5s.2-.5.5-.5h14c.3 0 .5.2.5.5s-.2.5-.5.5z"></path><path fill="#fff" d="M29 32c-.1 0-.2 0-.3-.1l-10-6c-.2-.1-.3-.4-.2-.7s.4-.3.7-.2l10 6c.2.1.3.4.2.7-.1.2-.2.3-.4.3z"></path><path fill="#fff" d="M17 32c-.2 0-.3-.1-.4-.2-.1-.2-.1-.5.2-.7l10-6c.2-.1.5-.1.7.2s.1.5-.2.7l-10 6H17z"></path><path fill="#fff" d="M31 37.5h-.2L16.3 32c-.3-.1-.4-.4-.3-.6.1-.3.4-.4.6-.3l14.5 5.5c.3.1.4.4.3.6 0 .2-.2.3-.4.3z"></path><path fill="#fff" d="M15 37.5c-.2 0-.4-.1-.5-.3-.1-.3 0-.5.3-.6L29.3 31c.3-.1.5 0 .6.3.1.3 0 .5-.3.6l-14.5 5.5c0 .1 0 .1-.1.1z"></path></svg>