<svg xmlns="http://www.w3.org/2000/svg" viewBox="0 0 48 48" id="chatting"><linearGradient id="a" x1="714.462" x2="726.675" y1="-171.746" y2="-186.835" gradientTransform="matrix(3.0757 0 0 -3.0757 -2192.118 -527.272)" gradientUnits="userSpaceOnUse"><stop offset="0" stop-color="#FCD600"></stop><stop offset="1" stop-color="#F16222"></stop></linearGradient><path fill="url(#a)" d="M10.1 0h27.7C43.5 0 48 4.5 48 10.1v27.7C48 43.5 43.5 48 37.9 48H10.1C4.5 48 0 43.5 0 37.9V10.1C0 4.5 4.5 0 10.1 0z"></path><path fill="#fff" d="M10.5 39.5c-1.1 0-2-.9-2-2s.9-2 2-2 2 .9 2 2-.9 2-2 2zm0-3c-.6 0-1 .4-1 1s.4 1 1 1 1-.4 1-1-.4-1-1-1z"></path><circle cx="18" cy="35" r=".5" fill="#fff"></circle><circle cx="18" cy="37" r=".5" fill="#fff"></circle><path fill="#fff" d="M20 37.5c-.3 0-.5-.2-.5-.5s.2-.5.5-.5.5-.2.5-.5-.2-.5-.5-.5-.5-.2-.5-.5.2-.5.5-.5c.8 0 1.5.7 1.5 1.5s-.7 1.5-1.5 1.5z"></path><path fill="#fff" d="M22 39.5h-8c-.2 0-.4-.1-.5-.3s0-.4.1-.5l1.9-1.9V34c0-.8.7-1.5 1.5-1.5h5c.8 0 1.5.7 1.5 1.5v4c0 .8-.7 1.5-1.5 1.5zm-6.8-1H22c.3 0 .5-.2.5-.5v-4c0-.3-.2-.5-.5-.5h-5c-.3 0-.5.2-.5.5v3c0 .1-.1.3-.1.4l-1.2 1.1zM16 37zM36.5 31.5c-1.1 0-2-.9-2-2s.9-2 2-2 2 .9 2 2-.9 2-2 2zm0-3c-.6 0-1 .4-1 1s.4 1 1 1 1-.4 1-1-.4-1-1-1zM33 31.5H20c-.8 0-1.5-.7-1.5-1.5v-4c0-.8.7-1.5 1.5-1.5h10c.8 0 1.5.7 1.5 1.5v2.8l1.9 1.9c.1.1.2.4.1.5s-.3.3-.5.3zm-13-6c-.3 0-.5.2-.5.5v4c0 .3.2.5.5.5h11.8l-1.1-1.1c-.1-.1-.1-.2-.1-.4v-3c0-.3-.2-.5-.5-.5H20z"></path><path fill="#fff" d="M29 27.5h-8c-.3 0-.5-.2-.5-.5s.2-.5.5-.5h8c.3 0 .5.2.5.5s-.2.5-.5.5zM26 29.5h-5c-.3 0-.5-.2-.5-.5s.2-.5.5-.5h5c.3 0 .5.2.5.5s-.2.5-.5.5zM36.5 15.5c-1.1 0-2-.9-2-2s.9-2 2-2 2 .9 2 2-.9 2-2 2zm0-3c-.6 0-1 .4-1 1s.4 1 1 1 1-.4 1-1-.4-1-1-1zM33 15.5h-8c-.8 0-1.5-.7-1.5-1.5v-4c0-.8.7-1.5 1.5-1.5h5c.8 0 1.5.7 1.5 1.5v2.8l1.9 1.9c.1.1.2.4.1.5s-.3.3-.5.3zm-8-6c-.3 0-.5.2-.5.5v4c0 .3.2.5.5.5h6.8l-1.1-1.1c-.1-.1-.1-.2-.1-.4v-3c0-.3-.2-.5-.5-.5H25z"></path><path fill="#fff" d="M29 11.5h-3c-.3 0-.5-.2-.5-.5s.2-.5.5-.5h3c.3 0 .5.2.5.5s-.2.5-.5.5zM29 13.5h-3c-.3 0-.5-.2-.5-.5s.2-.5.5-.5h3c.3 0 .5.2.5.5s-.2.5-.5.5zM10.5 23.5c-1.1 0-2-.9-2-2s.9-2 2-2 2 .9 2 2-.9 2-2 2zm0-3c-.6 0-1 .4-1 1s.4 1 1 1 1-.4 1-1-.4-1-1-1zM28 23.5H14c-.2 0-.4-.1-.5-.3s0-.4.1-.5l1.9-1.9V18c0-.8.7-1.5 1.5-1.5h11c.8 0 1.5.7 1.5 1.5v4c0 .8-.7 1.5-1.5 1.5zm-12.8-1H28c.3 0 .5-.2.5-.5v-4c0-.3-.2-.5-.5-.5H17c-.3 0-.5.2-.5.5v3c0 .1-.1.3-.1.4l-1.2 1.1zM16 21z"></path><path fill="#fff" d="M27 19.5h-9c-.3 0-.5-.2-.5-.5s.2-.5.5-.5h9c.3 0 .5.2.5.5s-.2.5-.5.5zM27 21.5h-9c-.3 0-.5-.2-.5-.5s.2-.5.5-.5h9c.3 0 .5.2.5.5s-.2.5-.5.5z"></path></svg>