<svg xmlns="http://www.w3.org/2000/svg" viewBox="0 0 66 66" id="Coaching"><path fill="#fe9526" d="m65.247 60.335-.039-.947c-.154-3.648-.952-7.12-2.371-10.321-1.112-2.499-2.483-4.612-4.075-6.283-.191-.257-1.123-1.655-.739-3.976l.079-.397c.031-.141.068-.285.107-.431a.493.493 0 0 0-.326-.597c-.249-.08-.199-.252-.183-.309.339-1.167.916-2.207 1.527-3.307.162-.292.324-.583.481-.878.649-1.213 1.161-2.615 1.609-4.415.828-3.344.299-5.979-1.574-7.831-.873-.864-1.883-1.487-3.017-2.155-1.337-.787-2.797-1.557-4.422-1.856-.613-.112-1.285-.165-2.115-.165-.432 0-.863.013-1.295.027-.393.012-.784.025-1.201.026-.589 0-1.175-.037-1.762-.072-.337-.021-.673-.042-1.089-.059a31.842 31.842 0 0 0-.873-.026.475.475 0 0 0-.389.183.492.492 0 0 0-.098.418c.032.144-.017.385-.19.445-.298.102-.604.16-.89.208a.51.51 0 0 0-.117.035 2.914 2.914 0 0 0-1.136.904 6.091 6.091 0 0 1-.179.213c-.545.638-1.291 1.511-.887 2.178.066.109.044.17.036.193-.03.08-.12.157-.225.19a.495.495 0 0 0-.288.696 3.781 3.781 0 0 0 .363.56l.073.09c.019.022.037.044.057.064-.571.685-1.488 2.271-1.878 5.639a.527.527 0 0 0 .05.279c.03.062.269.627-.523 1.251-.989.782-2.645 3.142-2.38 4.652.102.579.476 1.004 1.051 1.196l.668.228c.007.27.01.669-.011 1.058-.035.66.214 1.031.488 1.25a1.209 1.209 0 0 0-.084.553c.025.286.172.703.734 1.067l.184.118c.27.173.548.353.586.397.001.023-.011.104-.127.369-.153.346-.61 1.554-.072 2.568.34.642.983 1.052 1.911 1.22.63.115 1.126.13 1.527.13l.363-.001c.66 0 .962 0 1.785 1.224l.143.224c.582.916.65 2.085.178 3.053-.116.241-.24.505-.367.786a21.76 21.76 0 0 0-.337.778c-.935 2.242-2.063 5.745-2.126 9.704a.49.49 0 0 0 .493.5h22.423a.493.493 0 0 0 .469-.648z" class="colorffcc66 svgShape"></path><path fill="#595bd4" d="M59.604 19.44c-.411-.503-3.505-3.967-10.337-3.704-5.481.211-8.313 1.01-9.472 2.672-.629.905-.721 2.061-.247 3.497.078.164.499.997 1.107 1.25a.49.49 0 0 0 .533-.103c.015-.014 1.438-1.384 3.393-1.384a4.1 4.1 0 0 1 .585.042c-.835 1.088-1.571 2.875-.442 4.597.442.674.855 1.187 1.221 1.638.764.946 1.268 1.571 1.428 2.913a1.527 1.527 0 0 0 1.514 1.344c.563 0 1.076-.306 1.34-.799.672-1.248 1.453-1.994 2.091-1.994.255 0 .508.109.775.334 1.957 1.655 2.202 2.033 2.063 6.319-.009.054-.199 1.324.524 2.253.414.531 1.024.837 1.813.908a.49.49 0 0 0 .53-.41c.132-.792.408-1.614.822-2.443l.217-.432c2.29-4.563 6.12-12.193.542-16.498z" class="color515151 svgShape"></path><path fill="#53d86a" d="m65.251 63.044-.043-3.656c-.154-3.648-.952-7.12-2.371-10.321-1.112-2.499-2.483-4.612-4.071-6.277a.491.491 0 0 0-.84.069c-.791 1.6-3.663 5.471-13.221 6.862a.494.494 0 0 0-.376.283c-.112.245-.224.504-.337.778-1.015 2.435-2.937 8.571-2.998 12.4a.49.49 0 0 0 .493.5h23.295a.493.493 0 0 0 .469-.638z" class="color88c057 svgShape"></path><path fill="#fe9526" d="M30.18 36.559c-.426-.716-.473-1.373-.139-1.953a3.59 3.59 0 0 0 .424-2.2c-.214-1.77-.717-3.454-.971-4.228.134-.044.262-.092.385-.143a.493.493 0 0 0 .205-.749c-.133-.179-.23-.549.074-.784.521-.399 1.012-.777 1.17-1.621.118-.643.076-1.375-.126-2.176-.343-1.352-1.202-2.406-2.556-3.13-2.654-1.419-5.982-2.22-8.789-2.08-1.306.066-2.487.515-3.63.949l-.604.227c-1.335.494-2.531.959-3.642 1.659a7.684 7.684 0 0 0-2.846 3.161c-.241.493-.43 1.005-.612 1.5-.099.266-.196.531-.303.794-.12.3-.26.593-.399.886-.237.499-.483 1.016-.645 1.575-.953 3.295.311 6.813 1.426 9.917.172.479.341.949.498 1.407.025.075.102.302-.178.438-.221.107-.316.399-.241.632l.101.324c.07.238.133.484.184.738.327 1.622.076 3.003-.748 4.107-.139.189-.3.375-.482.554-3.215 3.171-5.749 11.515-6.449 13.997a.49.49 0 0 0 .47.626l22.998.174h.004a.494.494 0 0 0 .469-.642c-.53-1.657-1.136-3.01-1.671-4.204-.478-1.065-.929-2.072-1.261-3.142-.43-1.371-.404-2.809.076-4.525 0 0 .062-.046.294-.046.318 0 .75.084 1.166.167.349.069.691.135.987.162 1.483.133 2.537-.796 2.637-2.442.057-.954.243-1.047.554-1.202a2.63 2.63 0 0 0 .423-.25c.387-.295.487-.686.468-1.027.157-.075.309-.187.431-.345.18-.231.358-.647.188-1.313-.106-.417-.089-.696-.056-.857.775-.059 1.166-.319 1.313-.446 1.482-.994.08-3.351-.597-4.489z" class="colorffcc66 svgShape"></path><path fill="#595bd4" d="M32.379 23.864c-.148-1.849-1.242-3.547-2.926-4.542-2.763-1.633-5.845-2.496-8.912-2.496-4.241 0-8.251 1.659-11.289 4.672C3.525 27.18 6.789 36.554 7.18 37.603c.036.098.086.194.148.284a11.786 11.786 0 0 1 1.457 3.077c.166.562.688.955 1.269.955.107 0 .216-.014.321-.041l1.815-.458a1.322 1.322 0 0 0 .968-1.555c-.776-3.793.065-6.792 2.251-8.022.192-.108.374-.163.539-.163.985 0 2.007 2.058 2.601 5.243a1.322 1.322 0 0 0 1.299 1.079 1.31 1.31 0 0 0 1.318-1.279c.053-1.825.75-2.563 1.633-3.498.189-.201.383-.406.575-.627 1.331-1.528 1.364-2.988.973-4.993-.07-.361-.051-.64.053-.766.096-.116.301-.134.414-.134.067 0 .127.006.256.036l3.329 1.444c.287.123.61.142.914.051 2.759-.831 3.189-2.837 3.066-4.372z" class="color515151 svgShape"></path><path fill="#167ffc" d="M26.576 63.472c-.53-1.658-1.481-3.766-2.401-5.805-.796-1.762-1.547-3.427-1.879-4.495a.49.49 0 0 0-.393-.34c-9.38-1.472-12.104-5.342-12.84-6.938a.494.494 0 0 0-.397-.284.5.5 0 0 0-.446.198c-.12.164-.265.317-.413.478l-.087.094C4.273 50.134.217 60.963.779 63.72a.492.492 0 0 0 .482.394h24.847a.49.49 0 0 0 .468-.642z" class="coloref5ea7 svgShape"></path><circle cx="22.092" cy="21.433" r="1.464" fill="#e6e6e6" class="colore6e6e6 svgShape"></circle><circle cx="16.935" cy="21.433" r="1.464" fill="#e6e6e6" class="colore6e6e6 svgShape"></circle><circle cx="11.778" cy="21.433" r="1.464" fill="#e6e6e6" class="colore6e6e6 svgShape"></circle><circle cx="16.935" cy="16.857" r="1.465" fill="#e6e6e6" class="colore6e6e6 svgShape"></circle><circle cx="19.147" cy="11.562" r="1.464" fill="#e6e6e6" class="colore6e6e6 svgShape"></circle><circle cx="22.896" cy="7.266" r="1.464" fill="#e6e6e6" class="colore6e6e6 svgShape"></circle><circle cx="28.314" cy="4.106" r="1.464" fill="#e6e6e6" class="colore6e6e6 svgShape"></circle><circle cx="34.715" cy="3.35" r="1.465" fill="#e6e6e6" class="colore6e6e6 svgShape"></circle><circle cx="41.198" cy="5.379" r="1.465" fill="#e6e6e6" class="colore6e6e6 svgShape"></circle><circle cx="46.001" cy="9.49" r="1.464" fill="#e6e6e6" class="colore6e6e6 svgShape"></circle><circle cx="48.653" cy="14.75" r="1.465" fill="#e6e6e6" class="colore6e6e6 svgShape"></circle><circle cx="49.605" cy="20.308" r="1.464" fill="#e6e6e6" class="colore6e6e6 svgShape"></circle><circle cx="49.605" cy="26.01" r="1.464" fill="#e6e6e6" class="colore6e6e6 svgShape"></circle><g fill="#e6e6e6" class="colore6e6e6 svgShape"><circle cx="22.092" cy="26.01" r="1.464" fill="#000000" class="color000000 svgShape"></circle><circle cx="16.935" cy="26.01" r="1.464" fill="#000000" class="color000000 svgShape"></circle><circle cx="11.778" cy="26.01" r="1.464" fill="#000000" class="color000000 svgShape"></circle></g><path fill="#595bd4" d="M39.214 7.874a.49.49 0 0 0-.531-.467.5.5 0 0 0-.467.531l.078 1.23c-3.392-2.621-8.452-2.394-11.547.696a.5.5 0 0 0 .708.708c2.747-2.744 7.246-2.94 10.25-.599l-1.354.086a.5.5 0 0 0 .032.999l.032-.001 2.492-.159a.5.5 0 0 0 .467-.531l-.16-2.493z" class="color515151 svgShape"></path></svg>