<svg xmlns="http://www.w3.org/2000/svg" enable-background="new 0 0 48 48" viewBox="0 0 48 48" id="Coding"><g fill="#53d86a" class="color000000 svgShape"><g fill="#53d86a" class="color000000 svgShape"><g fill="#53d86a" class="color000000 svgShape"><path fill="#595bd4" d="M45.5,15.1c-1.1,0-2-0.9-2-2V4.4H4.4v8.7c0,1.1-0.9,2-2,2s-2-0.9-2-2V2.5c0-1.1,0.9-2,2-2h43.1     c1.1,0,2,0.9,2,2v10.6C47.5,14.2,46.6,15.1,45.5,15.1z" class="color6783b2 svgShape"></path></g></g><g fill="#53d86a" class="color000000 svgShape"><g fill="#53d86a" class="color000000 svgShape"><path fill="#595bd4" d="M45.5,47.5H2.5c-1.1,0-2-0.9-2-2V34.9c0-1.1,0.9-2,2-2s2,0.9,2,2v8.7h39.2v-8.7c0-1.1,0.9-2,2-2     s2,0.9,2,2v10.6C47.5,46.6,46.6,47.5,45.5,47.5z" class="color6783b2 svgShape"></path></g></g><g fill="#53d86a" class="color000000 svgShape"><g fill="#53d86a" class="color000000 svgShape"><g fill="#53d86a" class="color000000 svgShape"><path fill="#fe9526" d="M33.1,33.9c-0.5,0-1-0.2-1.4-0.6c-0.8-0.8-0.8-2,0-2.8l6.6-6.6l-6.6-6.6c-0.8-0.8-0.8-2,0-2.8      c0.8-0.8,2-0.8,2.8,0l8,8C42.8,23,43,23.5,43,24s-0.2,1-0.6,1.4l-8,8C34.1,33.7,33.6,33.9,33.1,33.9z" class="colorb64226 svgShape"></path></g></g><g fill="#53d86a" class="color000000 svgShape"><g fill="#53d86a" class="color000000 svgShape"><path fill="#fe9526" d="M14.9,33.9c-0.5,0-1-0.2-1.4-0.6l-8-8C5.2,25,5,24.5,5,24s0.2-1,0.6-1.4l8-8c0.8-0.8,2-0.8,2.8,0      c0.8,0.8,0.8,2,0,2.8L9.7,24l6.6,6.6c0.8,0.8,0.8,2,0,2.8C15.9,33.7,15.4,33.9,14.9,33.9z" class="colorb64226 svgShape"></path></g></g></g></g></svg>