<svg xmlns="http://www.w3.org/2000/svg" fill-rule="evenodd" clip-rule="evenodd" image-rendering="optimizeQuality" shape-rendering="geometricPrecision" text-rendering="geometricPrecision" viewBox="0 0 4335 4335" id="Copyright"><path fill="#d85b53" d="M2167 76c1155 0 2091 936 2091 2091s-936 2091-2091 2091S76 3322 76 2167 1012 76 2167 76zm0 381c945 0 1710 766 1710 1710 0 945-766 1710-1710 1710-945 0-1710-766-1710-1710 0-945 766-1710 1710-1710z" class="color2b2a29 svgShape"></path><path fill="#d85b53" fill-rule="nonzero" d="M2166 1029c105 0 205 11 301 33s177 52 246 92l-1 5c52 20 90 70 90 129 0 76-62 138-138 138-31 0-162-51-215-62-80-18-163-26-246-26-89 0-176 15-262 44s-164 76-233 142c-68 66-124 153-165 262-42 108-63 244-63 405 0 117 16 225 47 324s78 184 139 257c61 72 138 128 231 168s200 61 321 61c89 0 177-9 267-28 54-11 183-60 215-61h7c76 0 138 62 138 138 0 62-42 115-98 132l1 4c-26 16-60 30-101 46-42 15-88 28-138 40-50 11-103 20-159 27s-112 10-169 10c-145 0-283-22-413-66s-243-111-341-202c-97-92-174-207-230-347-56-139-84-305-84-496 0-142 15-271 44-385 30-114 70-214 122-300 51-86 111-160 180-221s143-110 221-149c79-39 159-67 243-84 84-18 165-26 244-26z" class="color2b2a29 svgShape"></path></svg>