<svg xmlns="http://www.w3.org/2000/svg" viewBox="0 0 48 48" id="24-hour-service"><linearGradient id="a" x1="897.027" x2="908.883" y1="34.533" y2="20.604" gradientTransform="matrix(3.0757 0 0 -3.0757 -2753.443 108.538)" gradientUnits="userSpaceOnUse"><stop offset="0" stop-color="#72BF53"></stop><stop offset="1" stop-color="#0290A4"></stop></linearGradient><path fill="url(#a)" d="M10.1 0h27.7C43.5 0 48 4.5 48 10.1v27.7C48 43.5 43.5 48 37.9 48H10.1C4.5 48 0 43.5 0 37.9V10.1C0 4.5 4.5 0 10.1 0z"></path><path fill="#fff" d="M18.5 31.3h-.2c-.3-.1-3.2-1.5-3.2-3.4v-2.1c0-.3.2-.5.5-.5s.5.2.5.5v2.1c0 1 1.6 2 2.4 2.4.8-.4 2.4-1.4 2.4-2.4v-2.1c0-.3.2-.5.5-.5s.5.2.5.5v2.1c0 1.9-2.9 3.2-3.2 3.4h-.2z"></path><path fill="#fff" d="M18.5 27c-3.3 0-6-2.7-6-6v-1.5c0-.3.2-.5.5-.5s.5.2.5.5V21c0 2.8 2.2 5 5 5s5-2.2 5-5v-1.5c0-.3.2-.5.5-.5s.5.2.5.5V21c0 3.3-2.7 6-6 6z"></path><path fill="#fff" d="M24 19.8h-.3c-.3 0-.5-.2-.5-.5s.2-.5.4-.5l.8-2.4c.1-.4 0-.9-.3-1.2-.3-.4-.7-.6-1.2-.6-.3 0-.5-.2-.5-.5 0-.6-.3-1.2-.7-1.6s-1-.5-1.6-.4l-6 1c-.5.1-1 .4-1.3.8-.3.4-.4 1-.3 1.5l.9 3.4c.2 0 .4.2.4.5s-.2.5-.5.5H13c-.2 0-.4-.2-.5-.4l-1-3.8c-.2-.8 0-1.6.5-2.3.5-.7 1.2-1.1 2-1.2l6-1c.9-.1 1.7.1 2.4.7.6.5.9 1.2 1 1.9.6.1 1.1.4 1.5.9.5.6.7 1.4.5 2.1l-1 2.8c0 .1-.2.3-.4.3z"></path><path fill="#fff" d="M23.9 19.8h-.3c-.7 0-1.4-.6-1.4-1.4v-1.6c-1.8 1.3-4.2 1.8-6.4 1.4l-.8-.1c-.1 0-.3.2-.3.4 0 .7-.6 1.4-1.4 1.4H13c-.3 0-.5-.2-.5-.5s.2-.5.5-.5h.3c.2 0 .4-.2.4-.4 0-.7.6-1.4 1.4-1.4l1 .2c2 .4 4.1-.1 5.7-1.3.3-.2.7-.2 1-.1.3.2.5.5.5.8v1.7c0 .2.2.4.4.4h.3c.3 0 .5.2.5.5s-.3.5-.6.5zM29 38H8c-.3 0-.5-.2-.5-.5v-3.7c0-2 1.3-3.8 3.2-4.5l4.7-1.6c.3-.1.5.1.6.3s-.1.5-.3.6L11 30.3c-1.5.5-2.5 1.9-2.5 3.5V37h20v-3.2c0-1.6-1-3-2.5-3.5l-4.7-1.6c-.3-.1-.4-.4-.3-.6.1-.3.4-.4.6-.3l4.7 1.6c1.9.6 3.2 2.4 3.2 4.5v3.7c0 .2-.2.4-.5.4z"></path><path fill="#fff" d="M29 38h-5c-.3 0-.5-.2-.5-.5v-.8c0-2.8 2.1-5.2 4.9-5.5.2 0 .4.1.5.2.4.7.7 1.6.7 2.4v3.7c-.1.3-.3.5-.6.5zm-4.5-1h4v-3.2c0-.5-.1-1.1-.4-1.6-2.1.4-3.7 2.3-3.7 4.5v.3zM13 38H8c-.3 0-.5-.2-.5-.5v-3.7c0-.8.2-1.7.7-2.4.1-.2.3-.3.5-.2 2.8.3 4.9 2.7 4.9 5.5v.8c-.1.3-.3.5-.6.5zm-4.5-1h4v-.3c0-2.2-1.6-4-3.7-4.5-.2.5-.4 1.1-.4 1.6V37zM23.5 24.6H20c-.3 0-.5-.2-.5-.5s.2-.5.5-.5h3.5c1.1 0 2-.9 2-2v-1.7c0-.3.2-.5.5-.5s.5.2.5.5v1.7c0 1.6-1.4 3-3 3zM31.5 13c-.3 0-.5-.2-.5-.5v-2c0-.3.2-.5.5-.5s.5.2.5.5v2c0 .3-.2.5-.5.5zM31.5 26c-.3 0-.5-.2-.5-.5v-2c0-.3.2-.5.5-.5s.5.2.5.5v2c0 .3-.2.5-.5.5z"></path><path fill="#fff" d="M31.5 12c-.3 0-.5-.2-.5-.5v-1c0-.3.2-.5.5-.5s.5.2.5.5v1c0 .3-.2.5-.5.5zM31.5 26c-.3 0-.5-.2-.5-.5v-1c0-.3.2-.5.5-.5s.5.2.5.5v1c0 .3-.2.5-.5.5zM34.6 12.8c-.1 0-.2 0-.2-.1-.2-.1-.3-.4-.2-.7l.5-.9c.1-.2.4-.3.7-.2.2.1.3.4.2.7l-.5.9c-.1.2-.3.3-.5.3zM37.2 15.3c-.2 0-.3-.1-.4-.3-.1-.2-.1-.5.2-.7l.9-.5c.2-.1.5-.1.7.2.1.2.1.5-.2.7l-.9.5c-.2 0-.3.1-.3.1zM39 18.5h-2c-.3 0-.5-.2-.5-.5s.2-.5.5-.5h2c.3 0 .5.2.5.5s-.2.5-.5.5zM35.5 20h-3c-.1 0-.3-.1-.4-.2s-.1-.2-.1-.4l.8-4c.1-.3.3-.4.6-.4.3.1.5.3.4.6l-.7 3.4h2.4c.3 0 .5.2.5.5s-.2.5-.5.5z"></path><path fill="#fff" d="M34.5 21c-.3 0-.5-.2-.5-.5v-3c0-.3.2-.5.5-.5s.5.2.5.5v3c0 .3-.2.5-.5.5zM30.5 21h-3c-.2 0-.4-.1-.5-.3-.1-.2 0-.4.1-.5l2.6-2.5c.2-.2.3-.4.3-.7 0-.6-.4-1-1-1s-1 .4-1 1c0 .3-.2.5-.5.5s-.5-.3-.5-.5c0-1.1.9-2 2-2s2 .9 2 2c0 .5-.2 1-.6 1.4L28.7 20h1.7c.3 0 .5.2.5.5s-.1.5-.4.5zM13 22h-1c-.8 0-1.5-.7-1.5-1.5v-1c0-.8.7-1.5 1.5-1.5h.5c.3 0 .5.2.5.5s-.2.5-.5.5H12c-.3 0-.5.2-.5.5v1c0 .3.2.5.5.5h.5v-1c0-.3.2-.5.5-.5s.5.2.5.5v1.5c0 .3-.2.5-.5.5zM25 22h-1c-.3 0-.5-.2-.5-.5V20c0-.3.2-.5.5-.5s.5.2.5.5v1h.5c.3 0 .5-.2.5-.5v-1c0-.3-.2-.5-.5-.5h-.5c-.3 0-.5-.2-.5-.5s.2-.5.5-.5h.5c.8 0 1.5.7 1.5 1.5v1c0 .8-.7 1.5-1.5 1.5zM38.1 22.1c-.1 0-.2 0-.2-.1l-.9-.4c-.2-.1-.3-.4-.2-.7.1-.2.4-.3.7-.2l.9.5c.2.1.3.4.2.7-.2.1-.3.2-.5.2zM35.2 25c-.2 0-.3-.1-.4-.3l-.5-.9c-.1-.2-.1-.5.2-.7.2-.1.5-.1.7.2l.5.9c.1.2.1.5-.2.7-.1.1-.2.1-.3.1zM27.9 25.1c-.1 0-.2 0-.2-.1-.2-.1-.3-.4-.2-.7l.5-.9c.1-.2.4-.3.7-.2.2.1.3.4.2.7l-.5.9c-.2.2-.3.3-.5.3zM28.3 12.8c-.2 0-.3-.1-.4-.3l-.5-.9c-.1-.2-.1-.5.2-.7.2-.1.5-.1.7.2l.5.9c.1.2.1.5-.2.7-.2.1-.2.1-.3.1z"></path><path fill="#fff" d="M31.5 26c-1.7 0-3.2-.5-4.6-1.5-.2-.2-.3-.5-.1-.7.2-.2.5-.3.7-.1 1.2.8 2.6 1.3 4 1.3 3.9 0 7-3.1 7-7s-3.1-7-7-7c-2.1 0-4 .9-5.4 2.5-.2.2-.5.2-.7.1-.2-.2-.2-.5-.1-.7 1.5-1.8 3.8-2.9 6.1-2.9 4.4 0 8 3.6 8 8s-3.5 8-7.9 8z"></path></svg>