<svg id="SvgjsSvg1011" width="288" height="288" xmlns="http://www.w3.org/2000/svg" version="1.1" xmlns:xlink="http://www.w3.org/1999/xlink" xmlns:svgjs="http://svgjs.com/svgjs"><defs id="SvgjsDefs1012"></defs><g id="SvgjsG1013"><svg xmlns="http://www.w3.org/2000/svg" enable-background="new 0 0 256 256" viewBox="0 0 256 256" width="288" height="288"><path d="M216,232H36c-13.2,0-24-10.8-24-24V48c0-13.2,10.8-24,24-24h71.1c6.1,0,11.6,3.4,14.3,8.8L136.9,64H216	c13.2,0,24,10.8,24,24v120C240,221.2,229.2,232,216,232z M107.1,40L36,40c-4.4,0-8,3.6-8,8v160c0,4.4,3.6,8,8,8h180c4.4,0,8-3.6,8-8
	V88c0-4.4-3.6-8-8-8h-79.1c-6.1,0-11.6-3.4-14.3-8.8L107.1,40z M137,64C136.9,64,136.9,64,137,64" fill="#ffffff" class="color000 svgShape"></path></svg></g></svg>