<svg xmlns="http://www.w3.org/2000/svg" enable-background="new 0 0 512 512" viewBox="0 0 512 512" id="Free"><g fill="#000000" class="color000000 svgShape"><path fill="#d48f47" d="M160.9,80.4L149.6,69c-5.5-5.5-8.5-12.8-8.5-20.6c0-7.8,3-15.1,8.5-20.6c5.7-5.7,13.2-8.5,20.6-8.5   c7.5,0,14.9,2.8,20.6,8.5l52.6,52.6h25.1l52.6-52.6c5.7-5.7,13.2-8.5,20.6-8.5c7.5,0,14.9,2.8,20.6,8.5c5.5,5.5,8.5,12.8,8.5,20.6   c0,7.8-3,15.1-8.5,20.6l-11.3,11.3h24.3c8.2-8.7,12.8-19.9,12.8-32c0-12.4-4.8-24.1-13.6-32.8c-18.1-18.1-47.6-18.1-65.7,0   L256,68.5l-52.9-52.9c-18.1-18.1-47.6-18.1-65.7,0c-8.8,8.8-13.6,20.4-13.6,32.8c0,12,4.6,23.3,12.8,32H160.9z" class="colord45947 svgShape"></path><path fill="#53d86a" d="M470.4,165.5l-428.7,0c-6.3,0-11.4,5.1-11.4,11.4l0,299.5l451.4,0l0-299.5   C481.7,170.6,476.6,165.5,470.4,165.5z" class="colordbdfe0 svgShape"></path><path fill="#efefef" d="M470.4,165.5l-428.7,0c-6.3,0-11.4,5.1-11.4,11.4v3.9c0-6.3,5.1-11.4,11.4-11.4l428.7,0   c6.3,0,11.4,5.1,11.4,11.4v-3.9C481.7,170.6,476.6,165.5,470.4,165.5z" class="colorefefef svgShape"></path><rect width="409.2" height="269.7" x="51.4" y="186.1" fill="#167ffc" class="color379fc8 svgShape"></rect><rect width="409.2" height="5.7" x="51.4" y="450.1" fill="#4989d6" class="color49b4d6 svgShape"></rect><path fill="#595bd4" d="M2,476.4C2,495,17,510,35.6,510l440.8,0c18.6,0,33.6-15,33.6-33.6L2,476.4z" class="color788d9a svgShape"></path><path fill="#fbc184" d="M381.8,381.1c-1.9-1.9-4.6-3-7.3-3l-77.9,0c-5.6,0-10.6,4.2-10.9,9.8c-0.3,5.9,4.4,10.9,10.3,10.9H328   c3.9,0,7.1,3.2,7.1,7.1s-3.2,7.1-7.1,7.1h-46l-31.4-31.4c-3.5-3.5-9.1-4.4-13.3-1.6c-5.6,3.8-6.1,11.4-1.6,15.9l34.7,34.7   c1.9,1.9,4.6,3,7.3,3h70.8l18.3,18.3c1.2-1.3,2.7-2.4,4.5-3.1c4.5-1.8,9.3-2.5,14-3.9c0.5-0.2,1-0.4,1.6-0.6   c-0.5-1.5-1.4-3-2.6-4.2l-0.8-0.8l17.5-9.8l4.6,4.6c4-3.9,7.7-8.1,10.9-12.7c0.8-1.2,1.9-2,3-2.6L381.8,381.1z" class="colorfbd984 svgShape"></path><path fill="#ffd1a1" d="M237.3 382.7c1.5-1 3.3-1.6 5.1-1.7 3-.1 6 1 8.2 3.2l31.4 31.4 46 0c3.9 0 7.1-3.2 7.1-7.1 0-.5-.1-1-.2-1.5-.7 3.2-3.5 5.6-6.9 5.6l-46 0-31.4-31.4c-2.2-2.2-5.2-3.4-8.2-3.2-1.8.1-3.5.6-5.1 1.7-3.6 2.4-5 6.4-4.5 10.1C233.2 387.1 234.7 384.5 237.3 382.7zM419.4 418.7l-37.6-37.6c-1.9-1.9-4.6-3-7.3-3l-77.9 0c-2.8 0-5.4 1-7.4 2.8-2 1.7-3.3 4.2-3.5 7 0 .8 0 1.5.1 2.2.4-2.9 2-5.3 4.3-6.9 1.8-1.3 4.1-2 6.4-2l77.9 0c2.7 0 5.4 1.1 7.3 3l35.9 35.9C418.3 419.4 418.8 419 419.4 418.7zM383.4 442.2l.8.8c1.8 1.8 2.8 4.1 3.1 6.4.4-2.8-.4-5.8-2.1-8.2L383.4 442.2z" class="colorffe2a1 svgShape"></path><polygon fill="#44456c" points="460.6 455.2 460.6 447.3 408.2 398.6 352.8 454 354.6 455.8 458.6 455.8" class="color445c6c svgShape"></polygon><polygon fill="#55567c" points="352.8 454 354.6 455.8 357.6 455.8 411.5 401.9 408.2 398.6" class="color556e7c svgShape"></polygon><rect width="295.8" height="225.7" x="108.1" y="146" fill="#fe9526" class="colorf1786b svgShape"></rect><rect width="295.8" height="17.3" x="108.1" y="146" fill="#d48f47" class="colord45947 svgShape"></rect><rect width="326.7" height="67.7" x="92.7" y="78.3" fill="#fe9526" class="colorf1786b svgShape"></rect><rect width="326.7" height="6.6" x="92.7" y="78.3" fill="#fcc386" class="colorfc8e86 svgShape"></rect><rect width="71.1" height="293.4" x="220.4" y="78.3" fill="#eff5f0" class="coloreff3f5 svgShape"></rect><rect width="71.1" height="6.6" x="220.4" y="78.3" fill="#ffffff" class="colorffffff svgShape"></rect></g></svg>