<svg xmlns="http://www.w3.org/2000/svg" viewBox="0 0 200 200" id="Remote"><path fill="#fe9526" d="M88.138 93.542c0 21.844-17.718 39.547-39.565 39.547-21.846 0-39.553-17.703-39.553-39.547 0-21.849 17.707-39.567 39.553-39.567 21.847 0 39.565 17.718 39.565 39.567zm102.841 0c0 21.844-17.706 39.547-39.556 39.547-21.841 0-39.562-17.703-39.562-39.547 0-21.849 17.721-39.567 39.562-39.567 21.85 0 39.556 17.718 39.556 39.567z" class="color262e37 svgShape"></path><path fill="#fe9526" d="M54.248 82.588h91.507v52.886H54.248z" class="color262e37 svgShape"></path><path fill="#fe9526" d="m94.447 107.556-43.506 79.661-1.418 2.588C45.631 195.938 38.788 200 30.985 200c-12.131 0-21.965-9.844-21.965-21.973v-84.49l85.427 14.019zm11.107 0 43.507 79.661 1.416 2.588c3.892 6.133 10.742 10.195 18.535 10.195 12.136 0 21.968-9.844 21.968-21.973v-84.49l-85.426 14.019z" class="color262e37 svgShape"></path><path fill="#fe9526" d="M79.203 150.104c-8.065 0-14.637-6.572-14.637-14.631 0-8.078 6.572-14.646 14.637-14.646 8.078 0 14.645 6.567 14.645 14.646 0 8.059-6.568 14.631-14.645 14.631zm41.591 0c-8.074 0-14.642-6.572-14.642-14.631 0-8.078 6.567-14.646 14.642-14.646 8.068 0 14.641 6.567 14.641 14.646 0 8.059-6.573 14.631-14.641 14.631z" class="color262e37 svgShape"></path><path fill="#595bd4" d="M80.218 93.542c0 17.471-14.167 31.644-31.646 31.644-17.469 0-31.643-14.173-31.643-31.644 0-17.485 14.173-31.65 31.643-31.65 17.479-.001 31.646 14.164 31.646 31.65zm102.853 0c0 17.471-14.178 31.644-31.647 31.644-17.476 0-31.642-14.173-31.642-31.644 0-17.485 14.166-31.65 31.642-31.65 17.47-.001 31.647 14.164 31.647 31.65z" class="color3f4a5a svgShape"></path><path fill="#fe9526" d="M45.181 74.951v13.6l3.392 3.402 3.401-3.402v-13.6zM51.974 112.116V98.522l-3.401-3.401-3.392 3.401v13.594z" class="color262e37 svgShape"></path><g fill="#fe9526" class="color262e37 svgShape"><path d="M29.994 96.932h13.595l3.398-3.39-3.398-3.402H29.994zM67.158 90.14H53.564l-3.408 3.402 3.408 3.39h13.594z" fill="#53d86a" class="color000000 svgShape"></path></g><path fill="#fe9526" d="M156.23 107.308a4.81 4.81 0 0 1-4.8 4.809 4.81 4.81 0 0 1-4.812-4.809 4.806 4.806 0 1 1 9.612 0zm0-27.552c0 2.655-2.156 4.811-4.8 4.811a4.808 4.808 0 1 1 0-9.616 4.81 4.81 0 0 1 4.8 4.805zm-13.772 13.786a4.809 4.809 0 1 1-9.617-.007 4.809 4.809 0 0 1 9.617.007zm27.549 0a4.804 4.804 0 1 1-9.61 0 4.804 4.804 0 1 1 9.61 0z" class="color262e37 svgShape"></path><path fill="#595bd4" d="M84.894 107.285a2.481 2.481 0 0 0 0 3.491 2.496 2.496 0 0 0 1.738.718h10.205v-4.929H86.632c-.621 0-1.253.242-1.738.72zm30.21 0a2.476 2.476 0 0 0-1.74-.72h-10.203v4.929h10.203c.622 0 1.257-.244 1.74-.718a2.472 2.472 0 0 0 0-3.491zM87.113 135.474a7.91 7.91 0 0 1-7.91 7.905c-4.359 0-7.907-3.545-7.907-7.905 0-4.377 3.548-7.922 7.907-7.922 4.371 0 7.91 3.545 7.91 7.922zm41.591 0c0 4.36-3.548 7.905-7.91 7.905-4.368 0-7.911-3.545-7.911-7.905 0-4.377 3.543-7.922 7.911-7.922 4.362 0 7.91 3.545 7.91 7.922z" class="color3f4a5a svgShape"></path><path fill="#167ffc" d="M140.779 16.406a15.84 15.84 0 0 0-11.292-4.691H62.42a11.6 11.6 0 0 1-8.28-3.434A11.618 11.618 0 0 1 50.7 0h-4.253c0 4.261 1.668 8.271 4.678 11.286a15.833 15.833 0 0 0 11.296 4.683h67.067c3.128 0 6.069 1.223 8.288 3.442a11.633 11.633 0 0 1 3.429 8.273c0 3.133-1.221 6.076-3.433 8.292a11.645 11.645 0 0 1-8.284 3.431h-15.645c-4.261 0-8.27 1.662-11.292 4.681-3.02 3.011-4.678 7.023-4.678 11.296v27.204h4.254V55.384c0-3.135 1.22-6.081 3.433-8.285a11.617 11.617 0 0 1 8.283-3.438h15.645c4.263 0 8.278-1.66 11.286-4.678a15.853 15.853 0 0 0 4.683-11.3 15.813 15.813 0 0 0-4.678-11.277z" class="color333c49 svgShape"></path></svg>