<svg xmlns="http://www.w3.org/2000/svg" xmlns:xlink="http://www.w3.org/1999/xlink" width="980" height="680" viewBox="0 0 980 680">
  <defs>
    <linearGradient id="c" x1="50%" x2="50%" y1="0%" y2="100%">
      <stop offset="0%" stop-color="#FFF"/>
      <stop offset="100%" stop-color="#EDEDED"/>
    </linearGradient>
    <filter id="a" width="113.3%" height="120%" x="-6.7%" y="-10%" filterUnits="objectBoundingBox">
      <feMorphology in="SourceAlpha" operator="dilate" radius="2.5" result="shadowSpreadOuter1"/>
      <feOffset in="shadowSpreadOuter1" result="shadowOffsetOuter1"/>
      <feGaussianBlur in="shadowOffsetOuter1" result="shadowBlurOuter1" stdDeviation="17.5"/>
      <feColorMatrix in="shadowBlurOuter1" values="0 0 0 0 0 0 0 0 0 0 0 0 0 0 0 0 0 0 0.5 0"/>
    </filter>
    <rect id="b" width="900" height="600" x="0" y="0" rx="80"/>
  </defs>
  <g fill="none" fill-rule="evenodd">
    <g transform="translate(40 40)">
      <use xlink:href="#b" fill="#000" filter="url(#a)"/>
      <use xlink:href="#b" fill="url(#c)"/>
    </g>
    <path fill="#000268" d="M89.717 229.862c0-34.087 27.777-61.725 62.024-61.725h675.953c34.261 0 62.023 27.638 62.023 61.725v220.581c0 34.067-27.762 61.71-62.023 61.71H151.74c-34.247 0-62.024-27.643-62.024-61.71V229.862Z"/>
    <path fill="#FFF" d="M115.173 231.974V448.35c0 21.297 17.362 38.57 38.78 38.57H508.09V193.404H153.952c-21.417 0-38.779 17.272-38.779 38.57Zm484.42 107.108c0 13.776-6.814 23.244-18.095 23.244-9.966 0-18.274-9.468-18.274-22.084 0-12.95 7.307-22.577 18.274-22.577 11.63 0 18.095 9.961 18.095 21.417Zm-66.237 79.012h29.868v-46.982h.334c5.658 10.295 16.954 14.11 27.408 14.11 25.725 0 39.502-21.242 39.502-46.808 0-20.908-13.11-43.665-37.021-43.665-13.602 0-26.218 5.484-32.21 17.607h-.334v-15.6h-27.547v121.338Zm137.907-62.253c0-8.292 7.96-11.435 18.1-11.435 4.478 0 8.8.314 12.616.493 0 10.12-7.137 20.415-18.433 20.415-6.973 0-12.283-3.48-12.283-9.473Zm60.251 27.394c-1.32-6.799-1.654-13.617-1.654-20.416v-32.204c0-26.393-19.08-35.866-41.164-35.866-12.776 0-23.897 1.828-34.526 6.151l.508 20.261c8.273-4.657 17.92-6.484 27.548-6.484 10.773 0 19.574 3.162 19.753 14.952-3.815-.668-9.14-1.176-13.95-1.176-15.924 0-44.647 3.163-44.647 29.55 0 18.767 15.266 27.219 32.364 27.219 12.282 0 20.59-4.796 27.393-15.604h.334c0 4.497.488 8.96.668 13.617h27.373Zm13.442 34.859a86.912 86.912 0 0 0 18.588 2.007c27.393 0 33.858-21.088 42.325-42.838l31.717-80.506h-29.889l-17.76 56.435h-.335l-18.592-56.435h-32.19l35.019 88.465c-2.162 7.64-7.8 11.963-15.111 11.963-4.164 0-7.8-.508-11.79-1.827l-1.982 22.736Z"/>
    <path fill="#FF0007" d="M188.144 339.256c0-11.789 5.817-21.59 16.939-21.59 13.443 0 19.081 10.787 19.081 20.414 0 13.284-8.467 22.244-19.081 22.244-8.96 0-16.939-7.625-16.939-21.068Zm64.907-42.5h-27.06v15.6h-.313c-6.326-10.629-16.625-17.607-29.396-17.607-26.885 0-39.008 19.275-39.008 45 0 25.565 14.778 43.486 38.495 43.486 11.969 0 21.93-4.657 29.062-14.778h.334v4.657c0 16.924-9.294 25.058-26.547 25.058-12.456 0-20.101-2.655-29.221-7.132l-1.494 23.577c6.958 2.496 18.747 5.484 33.036 5.484 34.86 0 52.112-11.46 52.112-46.987v-76.357Zm50.499-36.02h-29.884v21.91h29.884v-21.91ZM273.68 383.236h29.869v-86.478H273.68v86.478Zm113.065-87.485c-2.989-.488-6.644-1-10.12-1-12.95 0-20.416 6.977-25.566 17.94h-.334v-15.933h-27.219v86.478h29.874v-36.508c0-16.939 7.815-27.06 21.75-27.06 3.497 0 6.799 0 10.12.981l1.495-24.898Zm51.445 68.563c-13.776 0-19.414-11.455-19.414-24.23 0-12.95 5.638-24.405 19.414-24.405 13.791 0 19.434 11.455 19.434 24.405 0 12.775-5.643 24.23-19.434 24.23Zm0 20.909c28.554 0 50.304-16.585 50.304-45.14 0-28.727-21.75-45.333-50.304-45.333-28.549 0-50.284 16.606-50.284 45.334 0 28.554 21.735 45.139 50.284 45.139Z"/>
  </g>
</svg>
