<svg xmlns="http://www.w3.org/2000/svg" width="32" height="32" id="google"><path fill="#ea4335" fill-rule="evenodd" d="M15.686 1023.358A13.458 13.458 0 0 0 8 1025.626c-5.347 3.573-7.435 10.458-4.974 16.4 2.46 5.942 8.803 9.33 15.111 8.076 6.308-1.255 10.871-6.815 10.871-13.246h-.006v-1.5h-12v4h7.82a9.627 9.627 0 0 1-7.437 6.961 9.628 9.628 0 0 1-10.795-5.77 9.628 9.628 0 0 1 3.553-11.712 9.626 9.626 0 0 1 12.18 1.2l2.73-2.728a13.487 13.487 0 0 0-9.367-3.949z" color="#000" font-family="sans-serif" font-weight="400" overflow="visible" style="line-height:normal;text-indent:0;text-align:start;text-decoration-line:none;text-decoration-style:solid;text-decoration-color:#000;text-transform:none;block-progression:tb;white-space:normal;isolation:auto;mix-blend-mode:normal;solid-color:#000;solid-opacity:1" transform="translate(0 -1020.362)"></path><path fill="#34a853" fill-rule="evenodd" d="m6.305 1039.765-3.205 2.418c2.508 5.842 8.786 9.163 15.037 7.92a13.46 13.46 0 0 0 7.29-4.112l-3.02-2.416a9.628 9.628 0 0 1-16.102-3.81z" color="#000" font-family="sans-serif" font-weight="400" overflow="visible" style="line-height:normal;text-indent:0;text-align:start;text-decoration-line:none;text-decoration-style:solid;text-decoration-color:#000;text-transform:none;block-progression:tb;white-space:normal;isolation:auto;mix-blend-mode:normal;solid-color:#000;solid-opacity:1" transform="translate(0 -1020.362)"></path><path fill="#fbbc05" fill-rule="evenodd" style="line-height:normal;text-indent:0;text-align:start;text-decoration-line:none;text-decoration-style:solid;text-decoration-color:#000;text-transform:none;block-progression:tb;white-space:normal;isolation:auto;mix-blend-mode:normal;solid-color:#000;solid-opacity:1" d="M4.496 1029.034c-2.624 3.703-3.288 8.605-1.47 12.992.041.1.128.299.128.299 1.354-.782 2.354-1.468 3.306-2.116a9.625 9.625 0 0 1 1.068-8.79c-2.02-1.562-2.02-1.562-3.032-2.385z" color="#000" font-family="sans-serif" font-weight="400" overflow="visible" transform="translate(0 -1020.362)"></path><path fill="#4788f4" fill-rule="evenodd" d="M17.002 1035.357v4h7.82a9.609 9.609 0 0 1-2.416 4.218l3.022 2.416a13.481 13.481 0 0 0 3.58-9.134h-.006v-1.5h-12z" color="#000" font-family="sans-serif" font-weight="400" overflow="visible" style="line-height:normal;text-indent:0;text-align:start;text-decoration-line:none;text-decoration-style:solid;text-decoration-color:#000;text-transform:none;block-progression:tb;white-space:normal;isolation:auto;mix-blend-mode:normal;solid-color:#000;solid-opacity:1" transform="translate(0 -1020.362)"></path><path fill="none" style="line-height:normal;text-indent:0;text-align:start;text-decoration-line:none;text-decoration-style:solid;text-decoration-color:#000;text-transform:none;block-progression:tb;white-space:normal;isolation:auto;mix-blend-mode:normal;solid-color:#000;solid-opacity:1" d="M15.686 1023.358A13.458 13.458 0 0 0 8 1025.626c-5.347 3.573-7.435 10.458-4.974 16.4 2.46 5.942 8.803 9.33 15.111 8.076 6.308-1.255 10.871-6.815 10.871-13.246h-.006v-1.5h-12v4h7.82a9.627 9.627 0 0 1-7.437 6.961 9.628 9.628 0 0 1-10.795-5.77 9.628 9.628 0 0 1 3.553-11.712 9.626 9.626 0 0 1 12.18 1.2l2.73-2.728a13.487 13.487 0 0 0-9.367-3.949z" color="#000" font-family="sans-serif" font-weight="400" overflow="visible" transform="translate(0 -1020.362)"></path><path fill="none" d="m4.497 8.572 3.03 2.468m14.884 12.12 2.99 2.435M6.384 19.563 3.04 22.068"></path></svg>