<svg xmlns="http://www.w3.org/2000/svg" width="26" height="26" id="idea"><g fill="#fff" transform="translate(5 -1031.362)"><circle cx="8" cy="1044.362" r="13" fill="#ffa40b" fill-rule="evenodd"></circle><path fill="#ff7712" style="line-height:normal;text-indent:0;text-align:start;text-decoration-line:none;text-decoration-style:solid;text-decoration-color:#000;text-transform:none;block-progression:tb;isolation:auto;mix-blend-mode:normal" d="M25.605 16.115a13 13 0 0 0 .135-.533 13 13 0 0 0 .098-.646l-7.535-7.538H18.3l-.705-.705-.707.705.707.707 8.01 8.01zm-9.882 9.58a13 13 0 0 0 .754-.17 13 13 0 0 0 1.234-.408 13 13 0 0 0 1.185-.531 13 13 0 0 0 1.127-.647 13 13 0 0 0 1.057-.755 13 13 0 0 0 .977-.858 13 13 0 0 0 .886-.951 13 13 0 0 0 .786-1.035 13 13 0 0 0 .68-1.108 13 13 0 0 0 .566-1.17 13 13 0 0 0 .445-1.22 13 13 0 0 0 .086-.34L20 10.996h-.5l-6-6h-1v1l1.023 1.024a5.202 5.202 0 0 0-3.275.771c-.15.095-.281.215-.42.324l-.717-.717H9.11l-.705-.705-.707.705.707.707.705.706c-.661.792-1.074 1.776-1.074 2.865 0 .13.013.252.022.377L7 10.996H6v1L9.904 15.9c.278.319.565.636.752.897.251.35.373.63.373.914v3.291l4.694 4.693z" color="#000" font-family="sans-serif" font-weight="400" transform="translate(-5 1031.362)"></path><path d="M7.5-.002v1h1v-1h-1zM3.404 1.693l-.707.707.707.707.707-.707-.707-.707Zm9.192 0-.707.707.707.707.707-.707-.707-.707zm-4.569.305c-2.732 0-4.992 2.081-4.992 4.68 0 1.786.844 3.006 1.615 3.92.386.456.755.85 1.006 1.199.251.35.373.632.373.916v3.291h3.996V12.713c0-.284.124-.57.375-.922.252-.352.619-.747 1.004-1.205.772-.917 1.616-2.135 1.616-3.908 0-2.599-2.26-4.68-4.993-4.68zm0 1c2.23 0 3.993 1.662 3.993 3.68 0 1.464-.655 2.402-1.381 3.265-.363.432-.743.833-1.053 1.268-.31.435-.56.927-.56 1.502v.455a.5.5 0 0 0-.092-.008H8.5V8.998H9v-1H7v1h.5v4.162h-.434a.5.5 0 0 0-.037 0v-.447c0-.575-.25-1.067-.56-1.5-.31-.433-.692-.83-1.055-1.26-.725-.859-1.379-1.795-1.379-3.275 0-2.018 1.763-3.68 3.992-3.68zM1 5.998v1h1v-1H1zm13 0v1h1v-1h-1zm-4.975 8.154v.852H7.03v-.846a.5.5 0 0 0 .002 0 .5.5 0 0 0 .035.002h1.868a.5.5 0 0 0 .091-.008z" color="#000" font-family="sans-serif" font-weight="400" overflow="visible" transform="translate(0 1036.361)" style="line-height:normal;text-indent:0;text-align:start;text-decoration-line:none;text-decoration-style:solid;text-decoration-color:#000;text-transform:none;block-progression:tb;isolation:auto;mix-blend-mode:normal"></path></g></svg>