<svg xmlns="http://www.w3.org/2000/svg" xmlns:xlink="http://www.w3.org/1999/xlink" width="980" height="680" viewBox="0 0 980 680">
  <defs>
    <linearGradient id="c" x1="50%" x2="50%" y1="0%" y2="100%">
      <stop offset="0%" stop-color="#FFF"/>
      <stop offset="100%" stop-color="#EDEDED"/>
    </linearGradient>
    <filter id="a" width="113.3%" height="120%" x="-6.7%" y="-10%" filterUnits="objectBoundingBox">
      <feMorphology in="SourceAlpha" operator="dilate" radius="2.5" result="shadowSpreadOuter1"/>
      <feOffset in="shadowSpreadOuter1" result="shadowOffsetOuter1"/>
      <feGaussianBlur in="shadowOffsetOuter1" result="shadowBlurOuter1" stdDeviation="17.5"/>
      <feColorMatrix in="shadowBlurOuter1" values="0 0 0 0 0 0 0 0 0 0 0 0 0 0 0 0 0 0 0.5 0"/>
    </filter>
    <rect id="b" width="900" height="600" x="0" y="0" rx="80"/>
  </defs>
  <g fill="none" fill-rule="evenodd">
    <g transform="translate(40 40)">
      <use xlink:href="#b" fill="#000" filter="url(#a)"/>
      <use xlink:href="#b" fill="url(#c)"/>
    </g>
    <g fill="#000" fill-rule="nonzero">
      <path d="M792.438 312.593c-26.669-18.172-62.694-13.651-84.046 10.547-21.351 24.199-21.351 60.507 0 84.706 21.352 24.198 57.377 28.72 84.046 10.547v7.751h36.322v-121.31h-36.322v7.759Zm-33.034 84.113c-17.022-.906-30.18-15.283-29.576-32.319.604-17.035 14.746-30.445 31.79-30.143 17.043.302 30.701 14.204 30.701 31.25-.483 17.703-15.212 31.669-32.915 31.212ZM256.327 250.771h38.011v175.375h-38.01zM627.878 301.57a44.123 44.123 0 0 0-37.412 16.931V304.84h-36.172v121.306h36.607v-63.75a25.583 25.583 0 0 1 27.266-27.482c15.964 0 25.14 9.537 25.14 27.23v64.002h36.282v-77.145c0-28.232-22.448-47.431-51.711-47.431ZM409.254 312.593c-26.669-18.172-62.695-13.651-84.046 10.547-21.352 24.199-21.352 60.507 0 84.706 21.351 24.198 57.377 28.72 84.046 10.547v7.751h36.321v-121.31h-36.321v7.759Zm-33.035 84.113c-17.023-.903-30.183-15.28-29.58-32.316.602-17.036 14.744-30.448 31.788-30.146 17.044.3 30.703 14.204 30.703 31.25-.483 17.702-15.21 31.668-32.912 31.212ZM501.764 320.636v-15.801h-37.188v121.312h37.267v-56.634c0-19.11 20.713-29.382 35.086-29.382.144 0 .285.015.43.016v-35.305a45.288 45.288 0 0 0-35.595 15.794ZM867.322 383.119c-12.59 0-22.797 10.207-22.797 22.798 0 12.59 10.208 22.796 22.798 22.796 12.59 0 22.797-10.206 22.797-22.797a22.795 22.795 0 0 0-22.798-22.797ZM230.127 250.738h-39.393a100.752 100.752 0 0 1-40.732 81.312l-15.605 11.689 60.471 82.463h49.717l-55.64-75.878a139.57 139.57 0 0 0 41.182-99.586ZM90.12 250.738h39.463v175.456H90.12z"/>
    </g>
  </g>
</svg>
