<svg xmlns="http://www.w3.org/2000/svg" viewBox="0 0 66 66" id="Learning"><path fill="#fe9526" d="M65 20.43v26.22c0 4.73-3.75 8.56-8.38 8.56H42.39l-2 3.12c-.71 1.1-1.91 1.77-3.2 1.77h-8.4c-1.3 0-2.5-.67-3.21-1.78l-1.99-3.12H9.37C4.75 55.22 1 51.38 1 46.65V20.43c0-4.72 3.75-8.55 8.37-8.55h47.25c4.63 0 8.38 3.83 8.38 8.55z" class="color51bfe7 svgShape"></path><path fill="#167ffc" d="M65 45.96v.69c0 4.73-3.75 8.56-8.38 8.56H42.39l-2 3.12c-.71 1.1-1.9 1.77-3.2 1.77h-8.4c-1.3 0-2.5-.67-3.21-1.77l-1.98-3.12H9.37C4.75 55.22 1 51.38 1 46.65v-4.03c9.47 5.12 21.98 8.23 35.67 8.23 10.4.01 20.11-1.79 28.33-4.89z" class="color3badd8 svgShape"></path><path fill="none" stroke="#595bd4" stroke-linecap="round" stroke-linejoin="round" stroke-miterlimit="10" stroke-width="1.5" d="M65 20.43v26.22c0 4.73-3.75 8.56-8.38 8.56H42.39l-2 3.12c-.71 1.1-1.91 1.77-3.2 1.77h-8.4c-1.3 0-2.5-.67-3.21-1.78l-1.99-3.12H9.37C4.75 55.22 1 51.38 1 46.65V20.43c0-4.72 3.75-8.55 8.37-8.55h47.25c4.63 0 8.38 3.83 8.38 8.55z" class="colorStroke434a54 svgStroke"></path><path fill="#f5faf6" d="M33 14.6v26.33c0 4.81-3.82 8.71-8.52 8.71H9.6c-2.19 0-3.96-1.81-3.96-4.05V9.94c0-2.24 1.77-4.05 3.96-4.05h14.88c4.7 0 8.52 3.9 8.52 8.71zm27.36-4.66v35.65c0 2.24-1.77 4.05-3.96 4.05H41.52c-4.71 0-8.52-3.9-8.52-8.71V14.6c0-4.81 3.82-8.71 8.52-8.71H56.4c2.18 0 3.96 1.81 3.96 4.05z" class="colorf5f5fa svgShape"></path><path fill="#e5efe7" d="M60.36 39.3v6.29c0 2.23-1.77 4.05-3.97 4.05H41.52c-4.7 0-8.52-3.9-8.52-8.71V14.6c0-4.81 3.82-8.71 8.52-8.71h7.38c-.52 2.74-.79 5.72-.79 8.84 0 13.59 5.32 24.6 11.86 24.6.13-.01.26-.01.39-.03zm-54.73 0v6.29c0 2.23 1.77 4.05 3.97 4.05h14.88c4.7 0 8.52-3.9 8.52-8.71V14.6c0-4.81-3.82-8.71-8.52-8.71H17.1c.52 2.74.79 5.72.79 8.84 0 13.59-5.32 24.6-11.86 24.6-.13-.01-.27-.01-.4-.03z" class="colore5e8ef svgShape"></path><path fill="none" stroke="#595bd4" stroke-linecap="round" stroke-linejoin="round" stroke-miterlimit="10" stroke-width="1.5" d="M33 14.6v26.33c0 4.81-3.82 8.71-8.52 8.71H9.6c-2.19 0-3.96-1.81-3.96-4.05V9.94c0-2.24 1.77-4.05 3.96-4.05h14.88c4.7 0 8.52 3.9 8.52 8.71zm27.36-4.66v35.65c0 2.24-1.77 4.05-3.96 4.05H41.52c-4.71 0-8.52-3.9-8.52-8.71V14.6c0-4.81 3.82-8.71 8.52-8.71H56.4c2.18 0 3.96 1.81 3.96 4.05z" class="colorStroke434a54 svgStroke"></path><path fill="#69ce7a" d="M54.99 36.32v5.13c0 1.05-.83 1.9-1.86 1.9H40.22c-1.03 0-1.86-.85-1.86-1.9v-5.13c0-1.05.83-1.9 1.86-1.9h12.92c1.02 0 1.85.85 1.85 1.9z" class="colora0ce69 svgShape"></path><path fill="#53d86a" d="M54.99 40.2v1.26c0 1.04-.83 1.9-1.85 1.9H40.22c-1.02 0-1.86-.86-1.86-1.9v-5.14c0-1.04.84-1.89 1.86-1.89h.04c.63 2.77 6.67 5.06 14.73 5.77z" class="color8ac149 svgShape"></path><path fill="none" stroke="#595bd4" stroke-linecap="round" stroke-linejoin="round" stroke-miterlimit="10" stroke-width="1.5" d="M54.99 36.32v5.13c0 1.05-.83 1.9-1.86 1.9H40.22c-1.03 0-1.86-.85-1.86-1.9v-5.13c0-1.05.83-1.9 1.86-1.9h12.92c1.02 0 1.85.85 1.85 1.9zM41.92 12.85h9.51M37.86 17.56H55.5M37.86 22.26H55.5M37.86 26.97H55.5" class="colorStroke434a54 svgStroke"></path><g fill="none" stroke="#595bd4" stroke-linecap="round" stroke-linejoin="round" stroke-miterlimit="10" stroke-width="1.5" class="colorStroke434a54 svgStroke"><path d="M10.5 33.94h17.64M10.5 38.65h17.64M10.5 43.35h17.64" fill="#000000" class="color000000 svgShape"></path></g><g fill="none" stroke="#595bd4" stroke-linecap="round" stroke-linejoin="round" stroke-miterlimit="10" stroke-width="1.5" class="colorStroke434a54 svgStroke"><path d="M14.56 15.2h9.51M10.5 19.91h17.64M10.5 24.62h17.64M10.5 29.32h2.66" fill="#000000" class="color000000 svgShape"></path></g><path fill="none" stroke="#595bd4" stroke-linecap="round" stroke-linejoin="round" stroke-miterlimit="10" stroke-width="1.5" d="M23.61 55.22h18.31" class="colorStroke434a54 svgStroke"></path></svg>