<svg id="SvgjsSvg1024" width="288" height="288" xmlns="http://www.w3.org/2000/svg" version="1.1" xmlns:xlink="http://www.w3.org/1999/xlink" xmlns:svgjs="http://svgjs.com/svgjs"><defs id="SvgjsDefs1025"></defs><g id="SvgjsG1026"><svg xmlns="http://www.w3.org/2000/svg" fill="none" viewBox="0 0 14 14" width="288" height="288"><path fill="#ffffff" fill-rule="evenodd" d="M1.01553 3.90001C1.01553 3.07158 1.68711 2.40001 2.51553 2.40001H5.96368C6.79211 2.40001 7.46368 3.07158 7.46368 3.90001V4.67501C7.46368 4.95115 7.23983 5.17501 6.96368 5.17501C6.68754 5.17501 6.46368 4.95115 6.46368 4.67501V3.90001C6.46368 3.62387 6.23983 3.40001 5.96368 3.40001H2.51553C2.23939 3.40001 2.01553 3.62387 2.01553 3.90001V10.1C2.01553 10.3762 2.23939 10.6 2.51553 10.6H5.96368C6.23983 10.6 6.46368 10.3762 6.46368 10.1V9.32501C6.46368 9.04887 6.68754 8.82501 6.96368 8.82501C7.23983 8.82501 7.46368 9.04887 7.46368 9.32501V10.1C7.46368 10.9284 6.79211 11.6 5.96368 11.6H2.51553C1.68711 11.6 1.01553 10.9284 1.01553 10.1V3.90001Z" clip-rule="evenodd" class="color000 svgShape"></path><path fill="#ffffff" fill-rule="evenodd" d="M4.98447 7.00002C4.98447 7.27616 5.20832 7.50002 5.48447 7.50002L11.4168 7.50001L9.14883 9.99448C8.96306 10.1988 8.9781 10.515 9.18242 10.7008C9.38674 10.8866 9.70296 10.8715 9.88873 10.6672L12.799 7.46635C13.0471 7.19349 13.0462 6.77649 12.797 6.50467L12.4449 6.82748L12.797 6.50467L9.88732 3.3313C9.7007 3.12776 9.38441 3.11405 9.18088 3.30067C8.97734 3.48729 8.96363 3.80358 9.15025 4.00712L11.436 6.50001L5.48447 6.50002C5.20832 6.50002 4.98447 6.72388 4.98447 7.00002Z" clip-rule="evenodd" class="color000 svgShape"></path></svg></g></svg>