<svg xmlns="http://www.w3.org/2000/svg" viewBox="0 0 600 400" id="male-web-developer"><path fill="#E58A9C" d="M103.009,304.99l3.591,53.288c0.184,2.723,2.446,4.838,5.175,4.838h30.951      c2.519,0,4.605-1.955,4.768-4.468l3.479-53.441c0.071-0.912-0.65-1.691-1.565-1.691h-45.023      C103.587,303.516,102.955,304.193,103.009,304.99z"></path><path fill="#625E8A" d="M112.09,303.521c0,0-6.14-5.861-3.302-16.355c2.838-10.495,12.318-15.178,12.318-15.178      s-5.912-3.383-4.211-11.2c1.701-7.818,10.646-12.475,16.32-7.087c5.675,5.388,4.81,12.278,3.19,14.914      c-1.62,2.635-2.694,3.476-2.694,3.476s8.956,5.671,11.134,14.731c2.178,9.06-2.392,16.701-2.392,16.701H112.09z"></path><path fill="#91B1DA" d="M238.866,217.257l-22.447-12.726c0,0-16.324-7.046-25.213,9.658      c-8.889,16.704-10.665,51.611-10.397,65.244c0.268,13.632,4.432,41.144,11.541,58.009c7.11,16.866,9.404,19.009,16.003,20.209      c6.598,1.2,13.377-3.739,13.377-3.739l7.104-3.795l1.558,12.998H343.55l1.94-12.234c0,0-6.974-19.298-14.639-33.947      c-7.666-14.649-12.563-23.248-12.563-23.248l7.02-1.994l28.05,11.805l9.736-58.63l-28.401-11.653l-29.969-15.49      c0,0-8.598-1.782-15.724,3.718c-7.126,5.499-6.042,9.217-14.639,11.541c-8.598,2.324-16.188,2.634-25.096-5.19      C240.358,219.972,238.866,217.257,238.866,217.257z"></path><path fill="#91B1DA" d="M225.881,296.499l-0.648-2.447c-3.817-14.406-4.441-29.472-1.826-44.144l1.68-9.425l13.779-23.226      l-20.794-11.888c-10.366-5.926-23.566-0.964-27.461,10.324v0c-12.761,36.99-13.006,76.943-1.043,113.803      C205.795,321.126,217.255,310.794,225.881,296.499z"></path><path fill="#91B1DA" d="M274.363,277.734l-48.417,19.01l-0.065-0.244c-5.051,2.252-16.909,6.34-18.86,7.674      c-8.477,5.8-14.188,12.256-18.292,22.33c2.157,6.646,5.546,16.185,8.495,22.594v0c3.75,8.15,13.741,11.247,21.443,6.646      l73.372-43.828L274.363,277.734z"></path><path fill="#625E8A" d="M230.986,166.593l-9.915-7.69c0,0-6.562-8.936,0.785-15.218c7.348-6.282,10.825-5.689,16.987-3.971      s18.041,1.64,23.101-6.338c5.059-7.978,11.672-13.44,19.984-10.399c8.312,3.041,9.134,8.733,11.821,11.774      c2.687,3.041,10.399,7.505,12.895,4.731c2.496-2.774,1.26-5.33,1.26-5.33s-7.871-2.106-6.029-7.134      c1.843-5.027,10.259-7.403,16.275-0.638s6.91,19.273,1.893,27.581c-5.017,8.308-11.76,11.055-11.76,11.055l-45.412,9.092      l-4.849,2.051l-3.49-0.642L230.986,166.593z"></path><path fill="#FFC7B6" d="M275.983 280.248l13.587 26.895 24.294-12.199 42.94-12.199 5.42-32.638c0 0-5.164 5.734-14.756 7.899-9.592 2.166-20.189 2.782-20.189 2.782l-1.096-10.189-30.6 20.804L275.983 280.248zM248.973 197.953l-10.106 19.304c0 0 12.956 13.791 17.913 15.805 4.957 2.014 12.718 1.554 15.086.851s4.053-1.638 4.053-1.638-1.096-5.24 0-9.133c.616-2.186 2.9-7.133 3.753-8.952C267.616 204.039 260.34 203.056 248.973 197.953z"></path><path fill="#FFC7B6" d="M297.521,204.094c4.389-7.901,5.257-17.847,5.257-17.847l-7.312-22.003c0,0-5.99,1.89-10.617-7.66      s-12.351-13.983-19.333-10.114c-6.982,3.869-6.958,11.971-6.35,14.84c0.607,2.868,3.706,12.797,3.706,12.797l-5.577,2.359      l-2.763-0.95c0,0-2.604-7.419-5.911-9.675c-3.307-2.257-14.974-6.329-21.437,5.622c-6.462,11.951,3.181,22.679,7.983,25.08      c3.863,1.931,10.435,1.669,12.861,1.493c-0.01-0.012-0.02-0.023-0.03-0.034c0.01,0.012,0.02,0.023,0.03,0.034      c0.59-0.043,0.943-0.081,0.943-0.081s3.374,2.593,6.274,6.712c9.317,13.234,24.424,9.524,24.424,9.524      S293.132,211.994,297.521,204.094z"></path><path fill="#231F20" d="M265.745,213.371c-0.042,0-0.084-0.007-0.125-0.023l-1.252-0.481c-4.169-1.604-7.628-4.654-9.741-8.59      c-0.091-0.17-0.027-0.382,0.143-0.474c0.171-0.091,0.382-0.027,0.474,0.143c2.033,3.788,5.362,6.725,9.375,8.268l1.252,0.481      c0.181,0.069,0.271,0.272,0.201,0.452C266.018,213.286,265.885,213.371,265.745,213.371z"></path><ellipse cx="301.875" cy="174.106" fill="#C7CFE4" rx="9.296" ry="11.898"></ellipse><ellipse cx="276.506" cy="173.405" fill="#C7CFE4" rx="9.296" ry="12.3"></ellipse><path fill="#E58A9C" d="M325.308 236.795l1.972 23.993c0 0 10.804-.145 20.189-2.782 9.385-2.637 14.269-7.407 14.269-7.407l1.801-8.408.758-1.467-.534-6.142L325.308 236.795zM330.01 290.509l.557 6.872c0 0 6.832 3.814 13.048 4.397s10.219-1.14 10.219-1.14l2.971-17.893L330.01 290.509z"></path><path fill="#A3808D" d="M326.185,236.745c0,0,9.807-4.964,20.031-4.736c10.224,0.227,17.547,2.573,17.547,2.573      s-9.388,7.701-19.819,7.531C333.513,241.944,326.185,236.745,326.185,236.745z"></path><polygon fill="#C7CFE4" points="262.496 282.746 278.624 319.929 292.039 311.759 274.336 277.574"></polygon><polygon fill="#C7CFE4" points="485.273 334.188 481.029 359.742 491.006 338.438"></polygon><path fill="#FFC7B6" d="M489.792,341.775l-10.35,21.342l62.651-0.222c0,0,3.457-1.914,4.18-3.153      c0.723-1.239,1.402-4.002,1.402-4.002s-15.322,0.542-24.685-0.445c-9.364-0.986-17.356-5.073-22.551-9.019      S489.792,341.775,489.792,341.775z"></path><path fill="#C7CFE4" d="M343.55,363.116l20.313-121.053c0.21-1.249,1.291-2.164,2.558-2.164h131.252      c1.784,0,3.142,1.601,2.851,3.361l-19.814,119.852L343.55,363.116z"></path><circle cx="422.872" cy="298.63" r="11.758" fill="#91B1DA"></circle><circle cx="139.223" cy="96.192" r="59.308" fill="#C7CFE4"></circle><circle cx="139.223" cy="96.192" r="52.037" fill="#91B1DA"></circle><polygon fill="#F2E7E3" points="139.509 59.611 142.04 65.756 144.57 70.093 143.537 71.943 138.735 70.868 134.81 72.159 133.468 70.041 137.547 63.587"></polygon><polygon fill="#F2E7E3" points="115.962 124.261 117.261 118.253 118.338 112.436 120.791 112.23 122.882 115.457 126.6 117.626 126.6 119.975 119.035 122.531"></polygon><rect width="134.863" height="10.299" x="375.49" y="109.598" fill="#91B1DA"></rect><rect width="87.647" height="10.002" x="422.706" y="134.455" fill="#91B1DA"></rect><rect width="48.206" height="10.002" x="399.26" y="165.468" fill="#91B1DA"></rect><rect width="76.154" height="10.002" x="399.26" y="192.647" fill="#91B1DA"></rect><rect width="34.328" height="9.657" x="399.26" y="215.143" fill="#91B1DA"></rect><rect width="28.923" height="10.002" x="485.592" y="192.647" fill="#C7CFE4"></rect><rect width="35.935" height="10.002" x="458.13" y="165.468" fill="#C7CFE4"></rect><rect width="22.569" height="10.299" x="518.46" y="134.307" fill="#C7CFE4"></rect><rect width="22.569" height="10.299" x="518.46" y="109.598" fill="#C7CFE4"></rect><path fill="#231F20" d="M141.98,363.466h-29.946c-3.152,0-5.784-2.464-5.992-5.609l-3.478-52.53    c-0.037-0.558,0.161-1.111,0.543-1.519c0.382-0.408,0.921-0.642,1.48-0.642h44.84c0.559,0,1.098,0.234,1.48,0.642    s0.58,0.962,0.543,1.519l-3.479,52.53C147.764,361.002,145.132,363.466,141.98,363.466z M104.587,303.867    c-0.371,0-0.715,0.149-0.969,0.42c-0.253,0.271-0.38,0.625-0.355,0.995l3.478,52.53c0.184,2.778,2.509,4.955,5.294,4.955h29.946    c2.784,0,5.109-2.176,5.293-4.955l3.479-52.53c0.024-0.371-0.102-0.724-0.355-0.995c-0.254-0.271-0.598-0.42-0.969-0.42H104.587z"></path><path fill="#231F20" d="M121.737 333.001c-.061 0-.122-.016-.178-.049l-10.81-6.427c-.102-.061-.166-.168-.171-.286-.005-.118.05-.23.146-.299l10.81-7.739c.157-.113.375-.077.488.081.112.157.076.375-.081.488l-10.374 7.427 10.349 6.154c.167.099.221.313.122.479C121.973 332.94 121.857 333.001 121.737 333.001zM132.276 347.168c-.12 0-.236-.061-.301-.171-.099-.166-.044-.381.122-.479l10.35-6.154-10.375-7.427c-.157-.113-.193-.331-.081-.488.113-.156.331-.193.488-.081l10.81 7.739c.096.069.151.182.146.299-.005.118-.069.226-.171.286l-10.81 6.427C132.398 347.152 132.337 347.168 132.276 347.168zM123.273 345.273c-.032 0-.065-.004-.098-.014-.186-.054-.292-.249-.238-.434l7.742-26.438c.055-.185.247-.292.434-.238.186.054.292.249.238.434l-7.742 26.438C123.564 345.174 123.425 345.273 123.273 345.273zM111.851 303.871c-.107 0-.212-.048-.281-.141-2.481-3.317-3.793-7.267-3.793-11.421 0-10.102 8.336-21.845 19.084-21.845s19.084 11.743 19.084 21.845c0 4.154-1.312 8.104-3.793 11.42-.116.155-.335.187-.49.071-.155-.116-.187-.335-.071-.49 2.39-3.195 3.653-7 3.653-11.001 0-9.778-8.031-21.145-18.384-21.145s-18.384 11.367-18.384 21.145c0 4.002 1.263 7.806 3.654 11.002.116.155.084.374-.071.49C111.997 303.848 111.923 303.871 111.851 303.871z"></path><path fill="#231F20" d="M133.039,272.439c-0.112,0-0.223-0.054-0.291-0.154c-0.108-0.16-0.066-0.377,0.094-0.486    c2.813-1.901,4.493-5.06,4.493-8.451c0-5.431-4.452-11.745-10.191-11.745s-10.191,6.313-10.191,11.745    c0,3.391,1.68,6.55,4.494,8.451c0.16,0.108,0.203,0.326,0.094,0.486s-0.326,0.202-0.486,0.094    c-3.007-2.031-4.802-5.408-4.802-9.031c0-5.755,4.758-12.445,10.892-12.445s10.892,6.69,10.892,12.445    c0,3.624-1.795,7-4.802,9.031C133.174,272.42,133.106,272.439,133.039,272.439z"></path><path fill="#231F20" d="M116.333 303.867c-.151 0-.29-.098-.335-.25-5.847-19.591 7.593-32.634 7.729-32.764.14-.133.362-.127.495.013.133.14.127.361-.013.495-.133.126-13.262 12.887-7.541 32.056.055.185-.05.38-.235.436C116.4 303.862 116.366 303.867 116.333 303.867zM126.021 303.867c-.017 0-.033-.001-.049-.003-.191-.027-.325-.205-.298-.396 1.729-12.207.846-32.435.837-32.638-.009-.193.141-.356.334-.365.19-.025.356.14.365.334.009.204.895 20.497-.843 32.767C126.343 303.74 126.193 303.867 126.021 303.867zM134.786 303.867c-.029 0-.059-.004-.089-.012-.187-.049-.299-.24-.25-.427 5.087-19.425-3.625-31.673-3.714-31.794-.114-.156-.08-.375.076-.489.156-.114.374-.08.489.076.09.124 9.002 12.622 3.826 32.385C135.083 303.763 134.941 303.867 134.786 303.867z"></path><path fill="#231F20" d="M123.274 271.621c-.13 0-.254-.072-.315-.197-4.638-9.515 1.236-19.813 1.295-19.916.098-.167.312-.222.479-.127.167.097.224.312.127.479-.058.1-5.744 10.083-1.272 19.258.085.174.013.383-.161.468C123.377 271.61 123.325 271.621 123.274 271.621zM126.861 270.67c-.189 0-.345-.15-.35-.341-.177-6.507.279-18.964.284-19.089.007-.189.162-.337.35-.337.004 0 .008 0 .013 0 .193.007.344.169.336.363-.004.125-.46 12.56-.283 19.044.005.193-.147.354-.341.359C126.867 270.67 126.864 270.67 126.861 270.67zM130.293 271.164c-.061 0-.122-.016-.178-.049-.166-.098-.222-.313-.123-.479 4.671-7.908-.452-18.68-.504-18.788-.084-.174-.012-.383.162-.468.176-.085.384-.011.468.162.054.111 5.337 11.222.477 19.45C130.53 271.103 130.414 271.164 130.293 271.164zM477.048 363.466H236.164c-.144 0-.272-.088-.325-.221l-2.941-7.412c-.203-.511-.14-1.088.169-1.543.309-.455.822-.727 1.372-.727h110.251l18.505-111.429c.248-1.498 1.53-2.585 3.049-2.585h131.454c.91 0 1.769.398 2.357 1.092s.84 1.607.691 2.505l-19.372 116.652C481.022 361.924 479.202 363.466 477.048 363.466zM236.402 362.766h240.646c1.811 0 3.34-1.296 3.636-3.082l19.372-116.652c.115-.695-.08-1.401-.535-1.938s-1.12-.845-1.824-.845H366.243c-1.174 0-2.167.841-2.358 1.999l0 0-18.553 111.722c-.028.169-.174.293-.345.293H234.438c-.323 0-.611.153-.792.42-.181.267-.217.592-.098.892L236.402 362.766zM363.54 242.191h.009H363.54z"></path><path fill="#231F20" d="M343.55 363.466c-.018 0-.036-.001-.055-.004-.191-.03-.321-.208-.292-.4l1.437-9.203c.029-.19.21-.32.4-.292.191.03.321.208.292.4l-1.437 9.203C343.868 363.343 343.719 363.466 343.55 363.466zM422.872 310.593c-6.597 0-11.963-5.367-11.963-11.963 0-6.596 5.367-11.963 11.963-11.963s11.963 5.367 11.963 11.963C434.835 305.227 429.469 310.593 422.872 310.593zM422.872 287.367c-6.21 0-11.263 5.052-11.263 11.263s5.053 11.263 11.263 11.263 11.263-5.053 11.263-11.263S429.083 287.367 422.872 287.367zM276.627 186.055c-5.348 0-9.699-5.629-9.699-12.548 0-6.918 4.351-12.547 9.699-12.547s9.699 5.629 9.699 12.547C286.327 180.426 281.976 186.055 276.627 186.055zM276.627 161.66c-4.962 0-8.999 5.314-8.999 11.847s4.037 11.848 8.999 11.848 8.999-5.315 8.999-11.848S281.589 161.66 276.627 161.66zM301.875 186.654c-5.348 0-9.699-5.629-9.699-12.548s4.351-12.548 9.699-12.548 9.699 5.629 9.699 12.548S307.224 186.654 301.875 186.654zM301.875 162.259c-4.962 0-8.999 5.315-8.999 11.848s4.037 11.848 8.999 11.848 8.999-5.315 8.999-11.848S306.837 162.259 301.875 162.259z"></path><path fill="#231F20" d="M292.949 170.82c-.046 0-.094-.009-.139-.029-3.293-1.427-6.96-.01-6.997.004-.184.07-.384-.019-.454-.197-.071-.18.017-.383.196-.454.16-.063 3.968-1.538 7.533.004.177.077.259.283.182.46C293.213 170.741 293.084 170.82 292.949 170.82zM253.035 170.151c-.167 0-.315-.12-.344-.29-.033-.19.094-.372.285-.405l15.646-2.715c.192-.033.372.094.405.285.033.19-.094.372-.285.405l-15.646 2.715C253.075 170.149 253.055 170.151 253.035 170.151zM283.055 189.195c-.156 0-.297-.104-.339-.262-.048-.187.063-.378.25-.427.066-.017 6.603-1.753 8.216-4.659.365-.658.44-1.307.23-1.983-.309-.991-.878-1.68-1.691-2.049-2.025-.918-4.945.356-4.974.369-.178.079-.383-.001-.462-.178-.079-.177.001-.383.178-.462.131-.058 3.233-1.415 5.545-.367 1.005.455 1.702 1.289 2.073 2.479.267.857.171 1.708-.286 2.532-1.758 3.167-8.37 4.923-8.651 4.996C283.114 189.191 283.084 189.195 283.055 189.195zM288.613 198.596c-.166 0-.316-.128-.35-.297-.06-.298.142-.649.448-1.181.64-1.113 1.111-2.077.398-2.605-.344-.254-.757-.275-1.226-.061-1.002.456-2.125 2.004-2.27 3.806-.016.193-.186.328-.377.321-.193-.016-.336-.185-.321-.377.15-1.875 1.302-3.761 2.678-4.387.698-.318 1.384-.271 1.932.135 1.272.941.346 2.553-.208 3.517-.149.26-.354.617-.365.726.038.19-.087.358-.276.396C288.655 198.594 288.634 198.596 288.613 198.596zM273.267 214.54c-.183 0-.336-.142-.349-.327-.013-.193.133-.36.326-.373l7.326-.49c9.183-.614 16.848-7.027 19.072-15.958l2.796-11.23c.047-.188.237-.3.424-.255.188.047.302.237.255.424l-2.796 11.23c-2.298 9.228-10.217 15.854-19.705 16.488l-7.326.49C273.283 214.539 273.275 214.54 273.267 214.54z"></path><path fill="#231F20" d="M266.262,234.931c-6.293,0-12.386-2.471-16.905-6.9l-10.736-10.524c-0.112-0.11-0.137-0.28-0.062-0.418    l10.118-18.531c0.085-0.165,0.066-0.359-0.055-0.512c-0.12-0.153-0.304-0.216-0.494-0.169c-6.824,1.685-13.984-0.513-18.688-5.734    c-3.436-3.814-5.082-8.732-4.633-13.846c0.448-5.114,2.923-9.669,6.97-12.828c3.349-2.614,7.636-3.53,11.761-2.512    c4.125,1.018,7.492,3.823,9.24,7.695l2.471,4.963c0.086,0.173,0.016,0.383-0.158,0.469c-0.173,0.086-0.383,0.015-0.469-0.158    l-2.477-4.975c-1.665-3.687-4.861-6.349-8.775-7.315c-3.915-0.967-7.983-0.098-11.162,2.383c-3.892,3.038-6.272,7.42-6.703,12.338    s1.152,9.647,4.457,13.316c4.531,5.03,11.43,7.145,18,5.523c0.458-0.113,0.92,0.046,1.211,0.415    c0.292,0.369,0.338,0.856,0.124,1.274l-9.995,18.306l10.547,10.338c4.72,4.626,11.209,7.055,17.809,6.659    c6.598-0.395,12.752-3.579,16.887-8.736l0.981-1.224c5.498-6.858,14.848-8.943,22.739-5.071l26.59,13.746    c0.172,0.089,0.239,0.3,0.15,0.472c-0.089,0.172-0.299,0.24-0.472,0.15l-26.583-13.743c-7.586-3.723-16.586-1.717-21.878,4.883    l-0.981,1.224c-4.258,5.311-10.597,8.59-17.392,8.997C267.219,234.917,266.74,234.931,266.262,234.931z"></path><path fill="#231F20" d="M247.704,189.195c-0.161,0-0.306-0.112-0.341-0.275l-0.922-4.221c-1.137-5.207-4.727-9.6-9.602-11.751    l-2.642-1.166c-0.177-0.078-0.257-0.285-0.179-0.461c0.079-0.177,0.286-0.257,0.461-0.179l2.642,1.166    c5.079,2.242,8.818,6.818,10.003,12.242l0.922,4.221c0.042,0.189-0.078,0.375-0.267,0.417    C247.753,189.193,247.729,189.195,247.704,189.195z"></path><path fill="#231F20" d="M235.726 184.339c-.046 0-.092-.009-.137-.028-.178-.076-.26-.281-.185-.459.029-.068 2.973-6.818 8.567-5.965.191.029.322.208.293.399-.03.191-.211.319-.399.293-5.061-.777-7.79 5.484-7.817 5.547C235.991 184.259 235.861 184.339 235.726 184.339zM265.745 213.371c-.042 0-.084-.007-.125-.023l-1.252-.481c-4.169-1.604-7.628-4.654-9.741-8.59-.091-.17-.027-.382.143-.474.171-.091.382-.027.474.143 2.033 3.788 5.362 6.725 9.375 8.268l1.252.481c.181.069.271.272.201.452C266.018 213.286 265.885 213.371 265.745 213.371zM210.925 358.227c-1.534 0-3.072-.228-4.564-.69-4.179-1.295-7.625-4.318-9.455-8.292-19.437-42.24-21.789-89.709-6.625-133.665 1.891-5.479 6.086-9.792 11.512-11.831 5.425-2.041 11.423-1.559 16.454 1.317l20.794 11.888c.167.096.226.31.13.478-.096.167-.31.226-.478.13l-20.794-11.888c-4.85-2.772-10.63-3.236-15.86-1.269-5.229 1.966-9.274 6.123-11.096 11.404-15.105 43.784-12.761 91.068 6.599 133.143 1.746 3.795 5.036 6.68 9.026 7.917 3.988 1.236 8.334.717 11.919-1.424l73.089-43.659-17.379-33.61L207.149 304.5c-.181.07-.383-.019-.454-.198-.071-.18.018-.383.198-.454l67.342-26.44c.166-.066.356.004.439.165l17.675 34.183c.085.164.027.366-.131.461l-73.372 43.828C216.432 357.487 213.687 358.227 210.925 358.227z"></path><path fill="#231F20" d="M225.946 297.093c-.155 0-.297-.104-.338-.26l-.713-2.691c-3.804-14.356-4.438-29.673-1.832-44.295l1.68-9.425c.034-.19.213-.315.406-.283.19.034.317.216.283.406l-1.68 9.425c-2.588 14.522-1.959 29.734 1.819 43.992l.713 2.691c.049.187-.062.378-.249.428C226.006 297.089 225.976 297.093 225.946 297.093zM275.957 232.873c-.169 0-.318-.124-.345-.296l-.5-3.229c-.535-3.454-.013-6.942 1.51-10.087l2.735-5.652c.084-.173.293-.248.467-.163.174.084.247.293.163.467l-2.735 5.652c-1.46 3.017-1.961 6.362-1.448 9.675l.5 3.229c.03.191-.101.37-.292.399C275.993 232.871 275.975 232.873 275.957 232.873zM308.23 165.308l-.292-.636c11.025-5.066 17.03-16.907 14.604-28.795l-.249-1.215c-.971-4.756-4.468-9.198-8.703-11.055-2.844-1.248-5.708-1.149-8.069.275-.165.1-.38.046-.48-.119-.1-.166-.046-.38.119-.48 2.56-1.545 5.653-1.658 8.711-.317 4.434 1.944 8.094 6.588 9.107 11.556l.249 1.215C325.719 147.945 319.552 160.105 308.23 165.308z"></path><path fill="#231F20" d="M230.99,166.943c-0.073,0-0.146-0.023-0.209-0.07l-8.41-6.279c-2.12-1.583-3.519-3.997-3.837-6.623    c-0.544-4.483,1.042-8.818,4.35-11.892c3.309-3.074,7.749-4.338,12.179-3.465l8.143,1.601c7.653,1.501,15.508-1.969,19.542-8.646    l1.192-1.974c2.989-4.946,8.224-7.804,13.996-7.615c5.775,0.177,10.823,3.339,13.502,8.459l0.638,1.22    c2.358,4.505,6.778,7.565,11.826,8.187c1.208,0.146,2.399-0.319,3.184-1.25s1.042-2.184,0.69-3.35l-1.429-4.73    c-0.056-0.185,0.049-0.38,0.234-0.436c0.186-0.057,0.38,0.049,0.436,0.234l1.429,4.73c0.421,1.393,0.113,2.89-0.825,4.003    c-0.938,1.114-2.358,1.673-3.805,1.494c-5.275-0.649-9.896-3.848-12.36-8.557l-0.638-1.22c-2.561-4.893-7.384-7.915-12.904-8.084    c-5.547-0.171-10.52,2.552-13.375,7.278l-1.192,1.974c-4.186,6.928-12.336,10.534-20.276,8.971l-8.143-1.601    c-4.211-0.825-8.426,0.372-11.568,3.292c-3.143,2.919-4.648,7.037-4.131,11.295c0.295,2.437,1.593,4.677,3.561,6.146l8.41,6.279    c0.155,0.116,0.187,0.335,0.071,0.49C231.202,166.895,231.097,166.943,230.99,166.943z"></path><path fill="#231F20" d="M307.904 134.805c-.03 0-.061-.004-.091-.012-3.02-.811-6.255-2.821-6.676-5.482-.325-2.057 1.025-4.083 4.012-6.023.162-.105.379-.06.484.103.105.162.059.379-.103.484-2.696 1.75-3.976 3.592-3.702 5.327.37 2.338 3.455 4.188 6.166 4.916.187.05.297.242.247.429C308.2 134.702 308.059 134.805 307.904 134.805zM258.258 176.34c-.138 0-.269-.082-.324-.217-.073-.179.012-.383.191-.457l4.307-1.763-3.094-10.217c-1.417-4.679-.683-9.702 2.014-13.78 2.178-3.292 5.83-5.255 9.776-5.255.011 0 .022 0 .033 0 3.958.011 7.614 1.996 9.779 5.309l7.007 10.724c1.89 2.892 5.473 4.072 8.711 2.874.18-.067.383.025.45.207.067.181-.025.383-.207.45-3.547 1.315-7.471.021-9.54-3.147l-7.007-10.724c-2.036-3.115-5.473-4.981-9.195-4.992-3.716-.006-7.17 1.836-9.223 4.941-2.582 3.904-3.285 8.712-1.928 13.191l3.187 10.521c.052.173-.035.357-.202.425l-4.602 1.884C258.348 176.332 258.303 176.34 258.258 176.34z"></path><path fill="#231F20" d="M260.486 176.815c-.015 0-.029-.001-.044-.003l-7.596-.949c-.192-.024-.328-.199-.304-.391s.203-.327.391-.304l7.596.949c.192.024.328.199.304.391C260.811 176.686 260.66 176.815 260.486 176.815zM278.624 320.279c-.136 0-.265-.08-.322-.212l-16.127-37.536c-.076-.178.006-.383.184-.46.175-.075.383.005.46.184l16.127 37.536c.076.178-.006.383-.184.46C278.717 320.27 278.67 320.279 278.624 320.279zM275.725 280.716c-.133 0-.26-.076-.318-.205-.08-.176-.002-.383.173-.463l16.369-7.454c3.119-1.42 6.134-3.125 8.961-5.065l25.077-17.217c.16-.11.377-.068.487.09.109.16.069.377-.09.487l-25.077 17.217c-2.861 1.964-5.912 3.688-9.067 5.125l-16.369 7.454C275.823 280.706 275.773 280.716 275.725 280.716zM289.571 307.493c-.129 0-.253-.071-.314-.195-.086-.173-.015-.383.158-.469l23.905-11.844 43.387-12.576c.182-.056.379.053.433.239.054.186-.053.379-.239.433l-43.329 12.554-23.847 11.821C289.676 307.481 289.623 307.493 289.571 307.493z"></path><path fill="#231F20" d="M327.28 261.139c-.082 0-.162-.029-.225-.082-.072-.06-.117-.146-.124-.24l-1.972-23.993c-.012-.147.069-.286.203-.347 11.166-5.12 23.852-6.195 35.72-3.027l2.972.793c.142.038.246.161.258.308l.534 6.142c.017.192-.125.362-.318.379-.188.019-.362-.126-.379-.318l-.513-5.897-2.734-.73c-11.634-3.108-24.061-2.081-35.024 2.885l1.923 23.395 11.382-1.082c6.604-.627 13.066-2.819 18.689-6.339l4.287-2.683c.164-.103.38-.053.482.111.103.164.053.38-.111.482l-4.287 2.683c-5.714 3.577-12.282 5.805-18.994 6.443l-11.735 1.115C327.302 261.138 327.292 261.139 327.28 261.139zM334.255 269.246c-.17 0-.319-.124-.346-.297-.029-.191.102-.37.293-.399.16-.024 16.049-2.521 26.284-9.441.16-.108.377-.066.486.094.108.16.066.377-.094.486-10.367 7.009-26.409 9.529-26.569 9.554C334.291 269.245 334.272 269.246 334.255 269.246zM334.729 276.258c-.181 0-.333-.139-.348-.322-.016-.193.128-.362.32-.377.126-.01 12.77-1.1 24.392-7.969.167-.099.381-.042.479.123.099.167.043.381-.123.479-11.766 6.954-24.564 8.053-24.692 8.063C334.749 276.257 334.739 276.258 334.729 276.258zM336.263 283.096c-.173 0-.324-.129-.347-.306-.024-.191.111-.367.303-.392.136-.018 13.733-1.803 21.461-6.281.167-.098.381-.04.478.127.097.167.04.381-.127.478-7.851 4.549-21.585 6.352-21.723 6.37C336.293 283.095 336.278 283.096 336.263 283.096z"></path><path fill="#231F20" d="M343.121 242.426c-5.33 0-10.677-1.303-15.509-3.962l-2.473-1.361c-.169-.093-.231-.306-.138-.476.094-.169.306-.229.476-.138l2.473 1.361c11.369 6.26 25.671 4.838 35.587-3.536.147-.123.368-.106.493.042.125.147.106.368-.042.493C358.066 239.851 350.612 242.426 343.121 242.426zM346.472 302.275c-8.594 0-15.996-4.538-16.09-4.597-.094-.059-.155-.158-.164-.269l-.557-6.873c-.016-.193.128-.362.32-.377.193-.015.362.127.377.32l.542 6.693c1.411.828 12.525 7.02 22.809 3.137.181-.067.383.023.451.204.068.181-.023.383-.204.451C351.459 301.908 348.917 302.275 346.472 302.275zM247.704 276.771c-.162 0-.307-.113-.342-.277-.04-.188.078-.373.265-.415l.012-.003c.109-.029 2.796-.812 10.928-8.44 3.857-3.619 3.697-4.424 3.626-4.548-.339-.595-3.716.396-5.531.929-.575.168-1.131.332-1.636.468-.186.048-.378-.06-.429-.247-.05-.187.06-.378.247-.429.5-.135 1.051-.297 1.621-.464 3.458-1.014 5.765-1.602 6.336-.604.347.606.171 1.723-3.755 5.406-4.337 4.068-7.151 6.222-8.884 7.359l12.325-2.788c.187-.044.376.075.418.264.042.188-.076.376-.264.418l-14.857 3.361c0 0-.001 0-.002 0l0 0c-.003.001-.006.001-.008.002C247.75 276.768 247.727 276.771 247.704 276.771zM306.453 264.497c-.124 0-.243-.065-.307-.181l-3.673-6.645c-.094-.169-.032-.382.137-.476.17-.093.383-.031.476.137l3.673 6.645c.094.169.032.382-.137.476C306.568 264.483 306.51 264.497 306.453 264.497z"></path><g><path fill="#231F20" d="M345.421,351.645c-0.144,0-0.279-0.089-0.33-0.233c-11.619-32.657-26.947-57.077-27.1-57.319    c-0.103-0.164-0.055-0.379,0.109-0.483c0.164-0.104,0.38-0.055,0.483,0.109c0.154,0.244,15.521,24.725,27.167,57.459    c0.065,0.182-0.03,0.382-0.212,0.447C345.5,351.638,345.46,351.645,345.421,351.645z"></path></g><g><path fill="#231F20" d="M230.393,363.466c-0.175,0-0.326-0.131-0.347-0.309l-1.608-13.417c-0.023-0.192,0.114-0.366,0.306-0.389    c0.186-0.023,0.366,0.114,0.389,0.306l1.608,13.417c0.023,0.192-0.114,0.366-0.306,0.389    C230.421,363.465,230.407,363.466,230.393,363.466z"></path></g><g><path fill="#231F20" d="M554.833,363.466H45.167c-0.193,0-0.35-0.157-0.35-0.35s0.157-0.35,0.35-0.35h509.667    c0.193,0,0.35,0.157,0.35,0.35S555.027,363.466,554.833,363.466z"></path></g><g><path fill="#231F20" d="M330.01,295.294c-0.065,0-0.132-0.019-0.191-0.057l-4.702-3.073c-0.162-0.106-0.208-0.323-0.102-0.484    c0.105-0.163,0.322-0.207,0.484-0.102l4.702,3.073c0.162,0.106,0.208,0.323,0.102,0.484    C330.236,295.239,330.124,295.294,330.01,295.294z"></path></g><g><path fill="#231F20" d="M353.358,303.849c-0.043,0-0.088-0.008-0.131-0.025l-4.274-1.721c-0.179-0.072-0.266-0.276-0.194-0.456    c0.073-0.179,0.276-0.265,0.456-0.194l4.274,1.721c0.179,0.072,0.266,0.276,0.194,0.456    C353.628,303.766,353.497,303.849,353.358,303.849z"></path></g><g><path fill="#231F20" d="M480.708,361.094c-0.051,0-0.103-0.011-0.151-0.035c-0.174-0.083-0.248-0.292-0.164-0.467l10.456-21.835    l-5.785-4.288c-0.155-0.115-0.188-0.334-0.073-0.49c0.116-0.155,0.333-0.188,0.49-0.073l6.017,4.459    c0.135,0.1,0.18,0.281,0.107,0.433l-10.581,22.096C480.963,361.021,480.838,361.094,480.708,361.094z"></path></g><g><path fill="#231F20" d="M541.54,363.466c-0.144,0-0.278-0.089-0.329-0.231c-0.066-0.182,0.029-0.382,0.21-0.448    c5.101-1.839,5.799-5.549,5.891-6.698h-14.975c-10.596,0-18.943-1.158-27.8-6.922c-9.025-5.874-14.755-7.038-14.812-7.049    c-0.189-0.037-0.313-0.221-0.276-0.411c0.037-0.189,0.218-0.315,0.41-0.277c0.237,0.046,5.906,1.191,15.061,7.149    c8.712,5.67,16.95,6.809,27.418,6.809h15.338c0.189,0,0.344,0.151,0.35,0.34c0.001,0.053,0.079,5.393-6.367,7.716    C541.62,363.459,541.58,363.466,541.54,363.466z"></path></g><g><path fill="#231F20" d="M518.167,363.466c-0.159,0-0.302-0.108-0.34-0.27c-0.044-0.188,0.072-0.377,0.26-0.421    c7.643-1.803,8.696-5.068,9.393-7.229c0.06-0.184,0.259-0.285,0.44-0.226c0.184,0.059,0.285,0.256,0.226,0.44    c-0.7,2.17-1.87,5.802-9.897,7.695C518.221,363.463,518.194,363.466,518.167,363.466z"></path></g><g><path fill="#231F20" d="M493.918,363.466c-0.064,0-0.13-0.018-0.189-0.056c-2.998-1.928-7.802-3.679-7.85-3.696    c-0.182-0.066-0.276-0.267-0.21-0.448c0.066-0.182,0.267-0.274,0.448-0.21c0.2,0.072,4.925,1.795,7.99,3.766    c0.163,0.104,0.209,0.321,0.105,0.484C494.146,363.41,494.033,363.466,493.918,363.466z"></path></g><g><path fill="#231F20" d="M139.223,155.849c-32.896,0-59.658-26.762-59.658-59.658s26.762-59.658,59.658-59.658    s59.658,26.762,59.658,59.658S172.118,155.849,139.223,155.849z M139.223,37.234c-32.509,0-58.958,26.448-58.958,58.958    s26.448,58.958,58.958,58.958c32.51,0,58.958-26.448,58.958-58.958S171.732,37.234,139.223,37.234z"></path></g><g><path fill="#231F20" d="M139.223,148.579c-28.886,0-52.387-23.501-52.387-52.387s23.5-52.387,52.387-52.387    s52.387,23.5,52.387,52.387S168.109,148.579,139.223,148.579z M139.223,44.505c-28.5,0-51.687,23.187-51.687,51.687    c0,28.5,23.187,51.687,51.687,51.687c28.5,0,51.687-23.187,51.687-51.687C190.91,67.691,167.723,44.505,139.223,44.505z"></path></g><g><path fill="#231F20" d="M139.223,96.542c-0.193,0-0.35-0.157-0.35-0.35V71.066c0-0.193,0.157-0.35,0.35-0.35     s0.35,0.157,0.35,0.35v25.125C139.573,96.385,139.416,96.542,139.223,96.542z"></path><path fill="#231F20" d="M135.423,72.292c-0.623,0-1.217-0.281-1.63-0.801c-0.585-0.736-0.623-1.715-0.095-2.494l2.224-3.283     c0.998-1.473,1.774-3.082,2.308-4.779l0.66-2.103c0.092-0.291,0.576-0.292,0.668,0l0.661,2.103     c0.533,1.699,1.31,3.307,2.307,4.779l0,0l2.224,3.283c0.528,0.778,0.49,1.757-0.095,2.493c-0.585,0.737-1.531,0.994-2.408,0.655     l-1.88-0.725c-0.736-0.284-1.548-0.284-2.285,0l-1.881,0.725C135.943,72.244,135.681,72.292,135.423,72.292z M139.223,70.506     c0.472,0,0.945,0.086,1.395,0.26l1.88,0.725c0.71,0.275,1.297-0.046,1.608-0.437c0.311-0.391,0.491-1.034,0.064-1.665     l-2.224-3.283c-1.036-1.529-1.842-3.198-2.396-4.962l-0.327-1.04l-0.326,1.04c-0.554,1.763-1.36,3.432-2.396,4.962l-2.224,3.283     c-0.427,0.631-0.247,1.274,0.064,1.665c0.312,0.392,0.896,0.713,1.607,0.437l1.881-0.725     C138.278,70.593,138.75,70.506,139.223,70.506z"></path></g><g><path fill="#231F20" d="M123.004,115.731c-0.08,0-0.16-0.027-0.226-0.083c-0.147-0.125-0.166-0.345-0.041-0.493l16.218-19.19     c0.124-0.148,0.345-0.166,0.493-0.041c0.147,0.125,0.166,0.345,0.041,0.493l-16.218,19.19     C123.203,115.689,123.104,115.731,123.004,115.731z"></path><path fill="#231F20" d="M115.175,124.996c-0.081,0-0.161-0.028-0.226-0.083c-0.117-0.099-0.156-0.262-0.097-0.402l0.853-2.032     c0.689-1.642,1.134-3.371,1.322-5.141l0,0l0.421-3.943c0.1-0.935,0.76-1.658,1.682-1.843c0.922-0.185,1.81,0.229,2.262,1.054     l0.968,1.768c0.379,0.692,0.999,1.216,1.745,1.475l1.904,0.66c0.889,0.308,1.444,1.114,1.416,2.054     c-0.028,0.94-0.631,1.711-1.537,1.965l-3.817,1.072c-1.714,0.481-3.345,1.208-4.848,2.161l-1.862,1.18     C115.305,124.978,115.24,124.996,115.175,124.996z M117.724,117.412c-0.196,1.837-0.658,3.633-1.373,5.337l-0.422,1.005     l0.92-0.583c1.56-0.989,3.253-1.744,5.033-2.244l3.817-1.072c0.734-0.206,1.012-0.813,1.026-1.312     c0.015-0.5-0.226-1.123-0.946-1.372l-1.904-0.66c-0.911-0.316-1.667-0.955-2.13-1.8l-0.968-1.768     c-0.366-0.668-1.018-0.802-1.511-0.704c-0.49,0.098-1.042,0.473-1.123,1.23L117.724,117.412z"></path></g><g><path fill="#231F20" d="M97.755,96.542h-4.93c-0.193,0-0.35-0.157-0.35-0.35s0.157-0.35,0.35-0.35h4.93    c0.193,0,0.35,0.157,0.35,0.35S97.948,96.542,97.755,96.542z"></path></g><g><path fill="#231F20" d="M184.525,96.542h-4.93c-0.193,0-0.35-0.157-0.35-0.35s0.157-0.35,0.35-0.35h4.93    c0.193,0,0.35,0.157,0.35,0.35S184.719,96.542,184.525,96.542z"></path></g><g><path fill="#231F20" d="M139.223,54.073c-0.193,0-0.35-0.157-0.35-0.35v-5.149c0-0.193,0.157-0.35,0.35-0.35s0.35,0.157,0.35,0.35    v5.149C139.573,53.916,139.416,54.073,139.223,54.073z"></path></g><g><path fill="#231F20" d="M139.223,143.181c-0.193,0-0.35-0.157-0.35-0.35v-5.149c0-0.193,0.157-0.35,0.35-0.35    s0.35,0.157,0.35,0.35v5.149C139.573,143.024,139.416,143.181,139.223,143.181z"></path></g><g><path fill="#231F20" d="M383.814,141.365c-0.061,0-0.122-0.016-0.178-0.049l-8.325-4.95c-0.102-0.061-0.166-0.168-0.171-0.286    c-0.005-0.118,0.05-0.23,0.146-0.299l8.325-5.96c0.157-0.113,0.376-0.077,0.488,0.081c0.112,0.157,0.076,0.375-0.081,0.488    l-7.889,5.648l7.864,4.676c0.167,0.099,0.221,0.313,0.122,0.479C384.05,141.304,383.934,141.365,383.814,141.365z"></path></g><g><path fill="#231F20" d="M385.26,203.453c-0.061,0-0.122-0.016-0.178-0.049l-8.325-4.95c-0.102-0.061-0.166-0.168-0.171-0.286    c-0.005-0.118,0.05-0.23,0.146-0.299l8.325-5.96c0.157-0.112,0.376-0.077,0.488,0.081c0.112,0.157,0.076,0.375-0.081,0.488    l-7.889,5.648l7.864,4.676c0.167,0.099,0.221,0.313,0.122,0.479C385.496,203.392,385.38,203.453,385.26,203.453z"></path></g><g><path fill="#231F20" d="M403.4,152.275c-0.12,0-0.236-0.061-0.301-0.171c-0.099-0.166-0.044-0.381,0.122-0.479l7.864-4.676    l-7.889-5.648c-0.157-0.113-0.193-0.331-0.081-0.488c0.113-0.156,0.332-0.193,0.488-0.081l8.325,5.96    c0.096,0.069,0.151,0.182,0.146,0.299c-0.005,0.118-0.069,0.226-0.171,0.286l-8.325,4.95    C403.522,152.259,403.46,152.275,403.4,152.275z"></path></g><g><path fill="#231F20" d="M377.467,176.274c-0.12,0-0.236-0.061-0.301-0.171c-0.099-0.166-0.044-0.381,0.122-0.479l7.864-4.676    l-7.889-5.648c-0.157-0.113-0.193-0.331-0.081-0.488c0.113-0.157,0.331-0.192,0.488-0.081l8.325,5.96    c0.096,0.069,0.151,0.182,0.146,0.299c-0.005,0.118-0.069,0.226-0.171,0.286l-8.325,4.95    C377.589,176.258,377.527,176.274,377.467,176.274z"></path></g><g><path fill="#231F20" d="M388.367,150.131c-0.052,0-0.105-0.012-0.155-0.037c-0.173-0.086-0.244-0.296-0.158-0.469l9.456-18.992    c0.086-0.172,0.297-0.243,0.469-0.158c0.173,0.086,0.244,0.296,0.158,0.469l-9.456,18.992    C388.62,150.06,388.496,150.131,388.367,150.131z"></path></g><g><path fill="#231F20" d="M505.059,179.647c-0.052,0-0.105-0.012-0.155-0.037c-0.173-0.086-0.244-0.296-0.158-0.469l9.456-18.992    c0.087-0.173,0.297-0.243,0.469-0.158c0.173,0.086,0.244,0.296,0.158,0.469l-9.456,18.992    C505.312,179.576,505.188,179.647,505.059,179.647z"></path></g><g><path fill="#231F20" d="M510.353,120.246H375.49c-0.193,0-0.35-0.157-0.35-0.35v-10.298c0-0.193,0.157-0.35,0.35-0.35h134.863    c0.193,0,0.35,0.157,0.35,0.35v10.298C510.703,120.089,510.546,120.246,510.353,120.246z M375.84,119.546h134.163v-9.598H375.84    V119.546z"></path></g><g><path fill="#231F20" d="M541.029,120.246H518.46c-0.193,0-0.35-0.157-0.35-0.35v-10.298c0-0.193,0.157-0.35,0.35-0.35h22.569    c0.193,0,0.35,0.157,0.35,0.35v10.298C541.379,120.089,541.222,120.246,541.029,120.246z M518.81,119.546h21.869v-9.598H518.81    V119.546z"></path></g><g><path fill="#231F20" d="M541.029,144.956H518.46c-0.193,0-0.35-0.157-0.35-0.35v-10.298c0-0.193,0.157-0.35,0.35-0.35h22.569    c0.193,0,0.35,0.157,0.35,0.35v10.298C541.379,144.799,541.222,144.956,541.029,144.956z M518.81,144.255h21.869v-9.598H518.81    V144.255z"></path></g><g><path fill="#231F20" d="M494.065,175.821h-35.936c-0.193,0-0.35-0.157-0.35-0.35v-10.002c0-0.193,0.157-0.35,0.35-0.35h35.936    c0.193,0,0.35,0.157,0.35,0.35v10.002C494.415,175.664,494.258,175.821,494.065,175.821z M458.479,175.121h35.235v-9.302h-35.235    V175.121z"></path></g><g><path fill="#231F20" d="M514.516,203h-28.923c-0.193,0-0.35-0.157-0.35-0.35v-10.002c0-0.193,0.157-0.35,0.35-0.35h28.923    c0.193,0,0.35,0.157,0.35,0.35v10.002C514.866,202.843,514.709,203,514.516,203z M485.942,202.299h28.223v-9.302h-28.223V202.299z    "></path></g><g><path fill="#231F20" d="M433.588,225.496H399.26c-0.193,0-0.35-0.157-0.35-0.35v-10.002c0-0.193,0.157-0.35,0.35-0.35h34.328    c0.193,0,0.35,0.157,0.35,0.35v10.002C433.938,225.339,433.782,225.496,433.588,225.496z M399.61,224.795h33.628v-9.302H399.61    V224.795z"></path></g><g><path fill="#231F20" d="M510.353,144.808h-87.647c-0.193,0-0.35-0.157-0.35-0.35v-10.002c0-0.193,0.157-0.35,0.35-0.35h87.647    c0.193,0,0.35,0.157,0.35,0.35v10.002C510.703,144.651,510.546,144.808,510.353,144.808z M423.056,144.107h86.947v-9.302h-86.947    V144.107z"></path></g><g><path fill="#231F20" d="M447.466,175.821H399.26c-0.193,0-0.35-0.157-0.35-0.35v-10.002c0-0.193,0.157-0.35,0.35-0.35h48.206    c0.193,0,0.35,0.157,0.35,0.35v10.002C447.816,175.664,447.659,175.821,447.466,175.821z M399.61,175.121h47.505v-9.302H399.61    V175.121z"></path></g><g><path fill="#231F20" d="M474.929,203H399.26c-0.193,0-0.35-0.157-0.35-0.35v-10.002c0-0.193,0.157-0.35,0.35-0.35h75.668    c0.193,0,0.35,0.157,0.35,0.35v10.002C475.279,202.843,475.122,203,474.929,203z M399.61,202.299h74.968v-9.302H399.61V202.299z"></path></g></svg>