<svg xmlns="http://www.w3.org/2000/svg" xmlns:xlink="http://www.w3.org/1999/xlink" width="980" height="680" viewBox="0 0 980 680">
  <defs>
    <linearGradient id="c" x1="50%" x2="50%" y1="0%" y2="100%">
      <stop offset="0%" stop-color="#FFF"/>
      <stop offset="100%" stop-color="#EDEDED"/>
    </linearGradient>
    <filter id="a" width="113.3%" height="120%" x="-6.7%" y="-10%" filterUnits="objectBoundingBox">
      <feMorphology in="SourceAlpha" operator="dilate" radius="2.5" result="shadowSpreadOuter1"/>
      <feOffset in="shadowSpreadOuter1" result="shadowOffsetOuter1"/>
      <feGaussianBlur in="shadowOffsetOuter1" result="shadowBlurOuter1" stdDeviation="17.5"/>
      <feColorMatrix in="shadowBlurOuter1" values="0 0 0 0 0 0 0 0 0 0 0 0 0 0 0 0 0 0 0.5 0"/>
    </filter>
    <rect id="b" width="900" height="600" x="0" y="0" rx="80"/>
  </defs>
  <g fill="none" fill-rule="evenodd">
    <g transform="translate(40 40)">
      <use xlink:href="#b" fill="#000" filter="url(#a)"/>
      <use xlink:href="#b" fill="url(#c)"/>
    </g>
    <g fill-rule="nonzero">
      <path fill="#000" d="M284.688 588.905v-33.183c0-12.694-7.732-21.006-21.005-21.006-6.637 0-13.853 2.191-18.814 9.408-3.866-6.057-9.408-9.408-17.72-9.408-5.54 0-11.082 1.676-15.463 7.732v-6.636h-11.598v53.093h11.598v-29.317c0-9.408 4.96-13.853 12.693-13.853 7.732 0 11.598 4.96 11.598 13.853v29.317h11.598v-29.317c0-9.408 5.541-13.853 12.693-13.853 7.732 0 11.598 4.96 11.598 13.853v29.317h12.822Zm172.036-53.093H437.91v-16.044h-11.598v16.044h-10.503v10.502h10.503v24.356c0 12.178 4.961 19.33 18.234 19.33 4.962 0 10.503-1.675 14.369-3.866l-3.35-9.987c-3.351 2.19-7.217 2.77-9.988 2.77-5.54 0-7.732-3.35-7.732-8.827v-23.776h18.815v-10.502h.064Zm98.454-1.16c-6.637 0-11.083 3.35-13.853 7.732v-6.637h-11.598v53.093h11.598v-29.897c0-8.827 3.866-13.853 11.082-13.853 2.19 0 4.962.58 7.217 1.096l3.35-11.083c-2.32-.45-5.605-.45-7.796-.45Zm-148.776 5.541c-5.541-3.866-13.273-5.54-21.585-5.54-13.273 0-22.1 6.636-22.1 17.138 0 8.828 6.636 13.853 18.234 15.464l5.541.58c6.057 1.095 9.407 2.77 9.407 5.541 0 3.866-4.445 6.637-12.177 6.637-7.732 0-13.853-2.77-17.72-5.541l-5.54 8.827c6.056 4.446 14.368 6.637 22.68 6.637 15.464 0 24.355-7.217 24.355-17.14 0-9.407-7.216-14.368-18.234-16.043l-5.541-.58c-4.962-.58-8.828-1.676-8.828-4.962 0-3.866 3.866-6.056 9.987-6.056 6.637 0 13.274 2.77 16.624 4.446l4.897-9.408Zm308.57-5.54c-6.637 0-11.083 3.35-13.853 7.731v-6.637H689.52v53.093h11.598v-29.897c0-8.827 3.866-13.853 11.082-13.853 2.19 0 4.961.58 7.217 1.096l3.35-10.954c-2.255-.58-5.541-.58-7.796-.58Zm-148.196 27.705c0 16.044 11.082 27.642 28.221 27.642 7.732 0 13.274-1.675 18.815-6.057l-5.541-9.407c-4.446 3.35-8.828 4.961-13.853 4.961-9.408 0-16.044-6.636-16.044-17.139 0-9.987 6.636-16.623 16.044-17.139 4.96 0 9.407 1.675 13.853 4.961l5.54-9.407c-5.54-4.446-11.082-6.057-18.814-6.057-17.139-.064-28.221 11.598-28.221 27.642Zm107.28 0v-26.546H662.46v6.636c-3.866-4.96-9.407-7.732-16.624-7.732-14.948 0-26.546 11.598-26.546 27.642 0 16.044 11.598 27.642 26.546 27.642 7.732 0 13.273-2.77 16.624-7.732v6.637h11.598v-26.547Zm-42.59 0c0-9.407 6.057-17.139 16.044-17.139 9.408 0 16.044 7.217 16.044 17.14 0 9.406-6.636 17.138-16.044 17.138-9.922-.58-16.044-7.796-16.044-17.139Zm-138.788-27.706c-15.464 0-26.547 11.083-26.547 27.642 0 16.624 11.083 27.642 27.127 27.642 7.732 0 15.464-2.191 21.585-7.217l-5.541-8.312c-4.446 3.35-9.988 5.541-15.464 5.541-7.217 0-14.369-3.35-16.044-12.693h39.24v-4.446c.515-17.074-9.472-28.157-24.356-28.157Zm0 9.987c7.216 0 12.178 4.446 13.273 12.693h-27.642c1.096-7.152 6.057-12.693 14.369-12.693Zm288.144 17.72v-47.552h-11.598v27.641c-3.866-4.96-9.407-7.732-16.623-7.732-14.949 0-26.547 11.598-26.547 27.642 0 16.044 11.598 27.642 26.547 27.642 7.731 0 13.273-2.77 16.623-7.732v6.637h11.598v-26.547Zm-42.59 0c0-9.408 6.057-17.14 16.044-17.14 9.407 0 16.044 7.217 16.044 17.14 0 9.406-6.637 17.138-16.044 17.138-9.987-.58-16.044-7.796-16.044-17.139Zm-388.273 0v-26.547H338.36v6.636c-3.866-4.96-9.407-7.732-16.624-7.732-14.948 0-26.546 11.598-26.546 27.642 0 16.044 11.598 27.642 26.546 27.642 7.732 0 13.273-2.77 16.624-7.732v6.637h11.598v-26.547Zm-43.106 0c0-9.408 6.057-17.14 16.044-17.14 9.407 0 16.044 7.217 16.044 17.14 0 9.406-6.637 17.138-16.044 17.138-9.987-.58-16.044-7.796-16.044-17.139Z"/>
      <path fill="#FF5A00" d="M402.536 132.59h174.227v313.015H402.536z"/>
      <path fill="#EB001B" d="M414.134 289.098c0-63.595 29.897-120.039 75.773-156.508C456.144 106.044 413.554 90 367.097 90 257.048 90 168 179.046 168 289.098c0 110.051 89.046 199.098 199.098 199.098 46.456 0 89.046-16.044 122.81-42.59-45.942-35.954-75.774-92.913-75.774-156.508Z"/>
      <path fill="#F79E1B" d="M811.814 289.098c0 110.051-89.046 199.098-199.098 199.098-46.456 0-89.046-16.044-122.809-42.59 46.456-36.534 75.773-92.913 75.773-156.508 0-63.595-29.896-120.039-75.773-156.508C523.606 106.044 566.196 90 612.652 90c110.116 0 199.162 89.626 199.162 199.098Z"/>
    </g>
  </g>
</svg>
