<?xml version="1.0" standalone="no"?><svg xmlns:xlink="http://www.w3.org/1999/xlink" xmlns="http://www.w3.org/2000/svg" viewBox="0 0 1000 619.047619047619" preserveAspectRatio="xMaxYMax slice"><g transform="scale(0.5473453749315819)"><rect x="0" y="0" width="1827" height="1131" fill="#191b33"/><rect x="121.80000000000001" y="34.800000000000004" width="17.39999999999999" height="17.39999999999999" fill="#191b33"/><rect x="121.8" y="34.8" width="8.7" height="8.7" fill="#191c37"/><rect x="121.8" y="34.8" width="8.7" height="8.7" fill="#5b2341"/><rect x="130.5" y="34.8" width="8.7" height="8.7" fill="#18309a"/><rect x="130.5" y="34.8" width="8.7" height="8.7" fill="#6f2546"/><rect x="130.5" y="43.5" width="8.7" height="8.7" fill="#241c35"/><rect x="130.5" y="43.5" width="8.7" height="8.7" fill="#19276b"/><rect x="469.8" y="34.800000000000004" width="17.39999999999999" height="17.39999999999999" fill="#191b33"/><rect x="469.8" y="43.5" width="8.7" height="8.7" fill="#692444"/><rect x="469.8" y="43.5" width="8.7" height="8.7" fill="#3d1f3b"/><rect x="478.5" y="43.5" width="8.7" height="8.7" fill="#f93464"/><rect x="478.5" y="43.5" width="8.7" height="8.7" fill="#88284b"/><rect x="643.8" y="34.800000000000004" width="17.39999999999999" height="17.39999999999999" fill="#191b33"/><rect x="652.5" y="34.8" width="8.7" height="8.7" fill="#191c3a"/><rect x="652.5" y="34.8" width="8.7" height="8.7" fill="#652444"/><rect x="652.5" y="43.5" width="8.7" height="8.7" fill="#1835b0"/><rect x="652.5" y="43.5" width="8.7" height="8.7" fill="#b22c54"/><rect x="1078.8" y="34.800000000000004" width="17.39999999999999" height="17.39999999999999" fill="#191b33"/><rect x="1078.8" y="43.5" width="8.7" height="8.7" fill="#1838c1"/><rect x="1078.8" y="43.5" width="8.7" height="8.7" fill="#1834ae"/><rect x="1426.8" y="34.800000000000004" width="17.39999999999999" height="17.39999999999999" fill="#191b33"/><rect x="1687.8" y="34.800000000000004" width="17.39999999999999" height="17.39999999999999" fill="#191b33"/><rect x="1687.8" y="34.8" width="8.7" height="8.7" fill="#a72b52"/><rect x="1687.8" y="34.8" width="8.7" height="8.7" fill="#18309b"/><rect x="556.8" y="121.80000000000001" width="17.39999999999999" height="17.39999999999999" fill="#191b33"/><rect x="556.8" y="130.5" width="8.7" height="8.7" fill="#183fe1"/><rect x="556.8" y="130.5" width="8.7" height="8.7" fill="#85274b"/><rect x="643.8" y="121.80000000000001" width="17.39999999999999" height="17.39999999999999" fill="#191b33"/><rect x="643.8" y="121.8" width="8.7" height="8.7" fill="#2b1d37"/><rect x="643.8" y="121.8" width="8.7" height="8.7" fill="#f83464"/><rect x="817.8" y="121.80000000000001" width="17.39999999999999" height="17.39999999999999" fill="#191b33"/><rect x="826.5" y="121.8" width="8.7" height="8.7" fill="#18319e"/><rect x="826.5" y="121.8" width="8.7" height="8.7" fill="#672444"/><rect x="1339.8" y="121.80000000000001" width="17.39999999999999" height="17.39999999999999" fill="#191b33"/><rect x="1600.8" y="121.80000000000001" width="17.39999999999999" height="17.39999999999999" fill="#191b33"/><rect x="1609.5" y="121.8" width="8.7" height="8.7" fill="#612343"/><rect x="1609.5" y="121.8" width="8.7" height="8.7" fill="#192976"/><rect x="1609.5" y="130.5" width="8.7" height="8.7" fill="#b32c55"/><rect x="1609.5" y="130.5" width="8.7" height="8.7" fill="#183dd9"/><rect x="1687.8" y="121.80000000000001" width="17.39999999999999" height="17.39999999999999" fill="#191b33"/><rect x="1687.8" y="130.5" width="8.7" height="8.7" fill="#762647"/><rect x="1687.8" y="130.5" width="8.7" height="8.7" fill="#271d36"/><rect x="1696.5" y="130.5" width="8.7" height="8.7" fill="#702546"/><rect x="1696.5" y="130.5" width="8.7" height="8.7" fill="#191c36"/><rect x="121.80000000000001" y="208.8" width="17.39999999999999" height="17.39999999999999" fill="#191b33"/><rect x="121.8" y="208.8" width="8.7" height="8.7" fill="#182f92"/><rect x="121.8" y="208.8" width="8.7" height="8.7" fill="#d7315c"/><rect x="382.8" y="208.8" width="17.39999999999999" height="17.39999999999999" fill="#191b33"/><rect x="382.8" y="217.5" width="8.7" height="8.7" fill="#93294e"/><rect x="382.8" y="217.5" width="8.7" height="8.7" fill="#211c35"/><rect x="469.8" y="208.8" width="17.39999999999999" height="17.39999999999999" fill="#191b33"/><rect x="469.8" y="217.5" width="8.7" height="8.7" fill="#1833a9"/><rect x="469.8" y="217.5" width="8.7" height="8.7" fill="#4c213e"/><rect x="904.8" y="208.8" width="17.39999999999999" height="17.39999999999999" fill="#191b33"/><rect x="913.5" y="208.8" width="8.7" height="8.7" fill="#91294d"/><rect x="913.5" y="208.8" width="8.7" height="8.7" fill="#192669"/><rect x="1426.8" y="208.8" width="17.39999999999999" height="17.39999999999999" fill="#191b33"/><rect x="1435.5" y="208.8" width="8.7" height="8.7" fill="#fa3464"/><rect x="1435.5" y="208.8" width="8.7" height="8.7" fill="#1d1b34"/><rect x="34.800000000000004" y="295.8" width="17.39999999999999" height="17.39999999999999" fill="#191b33"/><rect x="43.5" y="295.8" width="8.7" height="8.7" fill="#6d2545"/><rect x="43.5" y="295.8" width="8.7" height="8.7" fill="#192c83"/><rect x="208.8" y="295.8" width="17.39999999999999" height="17.39999999999999" fill="#191b33"/><rect x="208.8" y="304.5" width="8.7" height="8.7" fill="#48203d"/><rect x="208.8" y="304.5" width="8.7" height="8.7" fill="#192561"/><rect x="469.8" y="295.8" width="17.39999999999999" height="17.39999999999999" fill="#191b33"/><rect x="469.8" y="295.8" width="8.7" height="8.7" fill="#192253"/><rect x="469.8" y="295.8" width="8.7" height="8.7" fill="#191b35"/><rect x="469.8" y="304.5" width="8.7" height="8.7" fill="#1839c4"/><rect x="469.8" y="304.5" width="8.7" height="8.7" fill="#4f213f"/><rect x="478.5" y="304.5" width="8.7" height="8.7" fill="#e83260"/><rect x="478.5" y="304.5" width="8.7" height="8.7" fill="#e63260"/><rect x="817.8" y="295.8" width="17.39999999999999" height="17.39999999999999" fill="#191b33"/><rect x="817.8" y="295.8" width="8.7" height="8.7" fill="#182e8f"/><rect x="817.8" y="295.8" width="8.7" height="8.7" fill="#1837bc"/><rect x="904.8" y="295.8" width="17.39999999999999" height="17.39999999999999" fill="#191b33"/><rect x="991.8" y="295.8" width="17.39999999999999" height="17.39999999999999" fill="#191b33"/><rect x="1252.8" y="295.8" width="17.39999999999999" height="17.39999999999999" fill="#191b33"/><rect x="1252.8" y="295.8" width="8.7" height="8.7" fill="#1832a4"/><rect x="1252.8" y="295.8" width="8.7" height="8.7" fill="#183aca"/><rect x="1252.8" y="304.5" width="8.7" height="8.7" fill="#183edc"/><rect x="1252.8" y="304.5" width="8.7" height="8.7" fill="#ae2c53"/><rect x="1261.5" y="304.5" width="8.7" height="8.7" fill="#192a7a"/><rect x="1261.5" y="304.5" width="8.7" height="8.7" fill="#19276b"/><rect x="1600.8" y="295.8" width="17.39999999999999" height="17.39999999999999" fill="#191b33"/><rect x="1687.8" y="295.8" width="17.39999999999999" height="17.39999999999999" fill="#191b33"/><rect x="1696.5" y="295.8" width="8.7" height="8.7" fill="#19214f"/><rect x="1696.5" y="295.8" width="8.7" height="8.7" fill="#1d1b34"/><rect x="1687.8" y="304.5" width="8.7" height="8.7" fill="#291d36"/><rect x="1687.8" y="304.5" width="8.7" height="8.7" fill="#d9315d"/><rect x="1696.5" y="304.5" width="8.7" height="8.7" fill="#682444"/><rect x="1696.5" y="304.5" width="8.7" height="8.7" fill="#90284d"/><rect x="295.8" y="382.8" width="17.39999999999999" height="17.39999999999999" fill="#191b33"/><rect x="295.8" y="382.8" width="8.7" height="8.7" fill="#192253"/><rect x="295.8" y="382.8" width="8.7" height="8.7" fill="#191c37"/><rect x="304.5" y="382.8" width="8.7" height="8.7" fill="#ee3361"/><rect x="304.5" y="382.8" width="8.7" height="8.7" fill="#191e3f"/><rect x="730.8" y="382.8" width="17.39999999999999" height="17.39999999999999" fill="#191b33"/><rect x="1078.8" y="382.8" width="17.39999999999999" height="17.39999999999999" fill="#191b33"/><rect x="1078.8" y="382.8" width="8.7" height="8.7" fill="#652443"/><rect x="1078.8" y="382.8" width="8.7" height="8.7" fill="#192c85"/><rect x="1087.5" y="382.8" width="8.7" height="8.7" fill="#18319d"/><rect x="1087.5" y="382.8" width="8.7" height="8.7" fill="#301e38"/><rect x="1513.8" y="382.8" width="17.39999999999999" height="17.39999999999999" fill="#191b33"/><rect x="1513.8" y="382.8" width="8.7" height="8.7" fill="#1833a8"/><rect x="1513.8" y="382.8" width="8.7" height="8.7" fill="#182f93"/><rect x="1600.8" y="382.8" width="17.39999999999999" height="17.39999999999999" fill="#191b33"/><rect x="1600.8" y="382.8" width="8.7" height="8.7" fill="#99294f"/><rect x="1600.8" y="382.8" width="8.7" height="8.7" fill="#191c3a"/><rect x="1609.5" y="391.5" width="8.7" height="8.7" fill="#1838bf"/><rect x="1609.5" y="391.5" width="8.7" height="8.7" fill="#a32b51"/><rect x="469.8" y="469.8" width="17.39999999999999" height="17.39999999999999" fill="#191b33"/><rect x="469.8" y="469.8" width="8.7" height="8.7" fill="#1c1b34"/><rect x="469.8" y="469.8" width="8.7" height="8.7" fill="#aa2b52"/><rect x="478.5" y="478.5" width="8.7" height="8.7" fill="#1839c5"/><rect x="478.5" y="478.5" width="8.7" height="8.7" fill="#183dd6"/><rect x="643.8" y="469.8" width="17.39999999999999" height="17.39999999999999" fill="#191b33"/><rect x="643.8" y="469.8" width="8.7" height="8.7" fill="#d8315d"/><rect x="643.8" y="469.8" width="8.7" height="8.7" fill="#19204c"/><rect x="652.5" y="478.5" width="8.7" height="8.7" fill="#321e38"/><rect x="652.5" y="478.5" width="8.7" height="8.7" fill="#1834ad"/><rect x="904.8" y="469.8" width="17.39999999999999" height="17.39999999999999" fill="#191b33"/><rect x="913.5" y="469.8" width="8.7" height="8.7" fill="#182e90"/><rect x="913.5" y="469.8" width="8.7" height="8.7" fill="#5f2342"/><rect x="913.5" y="478.5" width="8.7" height="8.7" fill="#712546"/><rect x="913.5" y="478.5" width="8.7" height="8.7" fill="#191d3e"/><rect x="1252.8" y="469.8" width="17.39999999999999" height="17.39999999999999" fill="#191b33"/><rect x="1339.8" y="469.8" width="17.39999999999999" height="17.39999999999999" fill="#191b33"/><rect x="1600.8" y="469.8" width="17.39999999999999" height="17.39999999999999" fill="#191b33"/><rect x="1609.5" y="469.8" width="8.7" height="8.7" fill="#183aca"/><rect x="1609.5" y="469.8" width="8.7" height="8.7" fill="#b52d55"/><rect x="1600.8" y="478.5" width="8.7" height="8.7" fill="#191e43"/><rect x="1600.8" y="478.5" width="8.7" height="8.7" fill="#1f1c34"/><rect x="1609.5" y="478.5" width="8.7" height="8.7" fill="#192669"/><rect x="1609.5" y="478.5" width="8.7" height="8.7" fill="#1835b2"/><rect x="34.800000000000004" y="556.8" width="17.39999999999999" height="17.39999999999999" fill="#191b33"/><rect x="208.8" y="556.8" width="17.39999999999999" height="17.39999999999999" fill="#191b33"/><rect x="208.8" y="565.5" width="8.7" height="8.7" fill="#9e2a50"/><rect x="208.8" y="565.5" width="8.7" height="8.7" fill="#1838c1"/><rect x="217.5" y="565.5" width="8.7" height="8.7" fill="#192871"/><rect x="217.5" y="565.5" width="8.7" height="8.7" fill="#191b33"/><rect x="556.8" y="556.8" width="17.39999999999999" height="17.39999999999999" fill="#191b33"/><rect x="556.8" y="556.8" width="8.7" height="8.7" fill="#271d36"/><rect x="556.8" y="556.8" width="8.7" height="8.7" fill="#19245d"/><rect x="565.5" y="556.8" width="8.7" height="8.7" fill="#6f2546"/><rect x="565.5" y="556.8" width="8.7" height="8.7" fill="#19235c"/><rect x="565.5" y="565.5" width="8.7" height="8.7" fill="#183cd2"/><rect x="565.5" y="565.5" width="8.7" height="8.7" fill="#1e1c34"/><rect x="730.8" y="556.8" width="17.39999999999999" height="17.39999999999999" fill="#191b33"/><rect x="817.8" y="556.8" width="17.39999999999999" height="17.39999999999999" fill="#191b33"/><rect x="817.8" y="556.8" width="8.7" height="8.7" fill="#18319d"/><rect x="817.8" y="556.8" width="8.7" height="8.7" fill="#192c84"/><rect x="1252.8" y="556.8" width="17.39999999999999" height="17.39999999999999" fill="#191b33"/><rect x="1261.5" y="556.8" width="8.7" height="8.7" fill="#192256"/><rect x="1261.5" y="556.8" width="8.7" height="8.7" fill="#1b1b33"/><rect x="556.8" y="643.8" width="17.39999999999999" height="17.39999999999999" fill="#191b33"/><rect x="565.5" y="643.8" width="8.7" height="8.7" fill="#183dd7"/><rect x="565.5" y="643.8" width="8.7" height="8.7" fill="#95294e"/><rect x="556.8" y="652.5" width="8.7" height="8.7" fill="#582241"/><rect x="556.8" y="652.5" width="8.7" height="8.7" fill="#183bcf"/><rect x="565.5" y="652.5" width="8.7" height="8.7" fill="#542240"/><rect x="565.5" y="652.5" width="8.7" height="8.7" fill="#92294d"/><rect x="904.8" y="643.8" width="17.39999999999999" height="17.39999999999999" fill="#191b33"/><rect x="991.8" y="643.8" width="17.39999999999999" height="17.39999999999999" fill="#191b33"/><rect x="1000.5" y="652.5" width="8.7" height="8.7" fill="#5e2342"/><rect x="1000.5" y="652.5" width="8.7" height="8.7" fill="#fa3464"/><rect x="1252.8" y="643.8" width="17.39999999999999" height="17.39999999999999" fill="#191b33"/><rect x="1513.8" y="643.8" width="17.39999999999999" height="17.39999999999999" fill="#191b33"/><rect x="1513.8" y="643.8" width="8.7" height="8.7" fill="#f53463"/><rect x="1513.8" y="643.8" width="8.7" height="8.7" fill="#192256"/><rect x="469.8" y="730.8" width="17.39999999999999" height="17.39999999999999" fill="#191b33"/><rect x="1252.8" y="730.8" width="17.39999999999999" height="17.39999999999999" fill="#191b33"/><rect x="1252.8" y="730.8" width="8.7" height="8.7" fill="#18319f"/><rect x="1252.8" y="730.8" width="8.7" height="8.7" fill="#7c2649"/><rect x="1252.8" y="739.5" width="8.7" height="8.7" fill="#c52e58"/><rect x="1252.8" y="739.5" width="8.7" height="8.7" fill="#8e284d"/><rect x="1687.8" y="730.8" width="17.39999999999999" height="17.39999999999999" fill="#191b33"/><rect x="1696.5" y="739.5" width="8.7" height="8.7" fill="#e83260"/><rect x="1696.5" y="739.5" width="8.7" height="8.7" fill="#191f47"/><rect x="382.8" y="817.8" width="17.39999999999999" height="17.39999999999999" fill="#191b33"/><rect x="382.8" y="817.8" width="8.7" height="8.7" fill="#f93464"/><rect x="382.8" y="817.8" width="8.7" height="8.7" fill="#221c35"/><rect x="382.8" y="826.5" width="8.7" height="8.7" fill="#192256"/><rect x="382.8" y="826.5" width="8.7" height="8.7" fill="#81274a"/><rect x="469.8" y="817.8" width="17.39999999999999" height="17.39999999999999" fill="#191b33"/><rect x="478.5" y="817.8" width="8.7" height="8.7" fill="#d4305c"/><rect x="478.5" y="817.8" width="8.7" height="8.7" fill="#2d1d37"/><rect x="556.8" y="817.8" width="17.39999999999999" height="17.39999999999999" fill="#191b33"/><rect x="556.8" y="817.8" width="8.7" height="8.7" fill="#191f44"/><rect x="556.8" y="817.8" width="8.7" height="8.7" fill="#192257"/><rect x="730.8" y="817.8" width="17.39999999999999" height="17.39999999999999" fill="#191b33"/><rect x="730.8" y="817.8" width="8.7" height="8.7" fill="#192a7a"/><rect x="730.8" y="817.8" width="8.7" height="8.7" fill="#19214f"/><rect x="991.8" y="817.8" width="17.39999999999999" height="17.39999999999999" fill="#191b33"/><rect x="991.8" y="817.8" width="8.7" height="8.7" fill="#191e41"/><rect x="991.8" y="817.8" width="8.7" height="8.7" fill="#192870"/><rect x="1000.5" y="817.8" width="8.7" height="8.7" fill="#d0305b"/><rect x="1000.5" y="817.8" width="8.7" height="8.7" fill="#19235a"/><rect x="991.8" y="826.5" width="8.7" height="8.7" fill="#19276d"/><rect x="991.8" y="826.5" width="8.7" height="8.7" fill="#351e39"/><rect x="1078.8" y="817.8" width="17.39999999999999" height="17.39999999999999" fill="#191b33"/><rect x="1087.5" y="826.5" width="8.7" height="8.7" fill="#c32e58"/><rect x="1087.5" y="826.5" width="8.7" height="8.7" fill="#1839c3"/><rect x="1339.8" y="817.8" width="17.39999999999999" height="17.39999999999999" fill="#191b33"/><rect x="1600.8" y="817.8" width="17.39999999999999" height="17.39999999999999" fill="#191b33"/><rect x="1609.5" y="826.5" width="8.7" height="8.7" fill="#192c84"/><rect x="1609.5" y="826.5" width="8.7" height="8.7" fill="#18319c"/><rect x="1774.8" y="817.8" width="17.39999999999999" height="17.39999999999999" fill="#191b33"/><rect x="1774.8" y="826.5" width="8.7" height="8.7" fill="#19235b"/><rect x="1774.8" y="826.5" width="8.7" height="8.7" fill="#43203c"/><rect x="295.8" y="904.8" width="17.39999999999999" height="17.39999999999999" fill="#191b33"/><rect x="469.8" y="904.8" width="17.39999999999999" height="17.39999999999999" fill="#191b33"/><rect x="556.8" y="904.8" width="17.39999999999999" height="17.39999999999999" fill="#191b33"/><rect x="556.8" y="913.5" width="8.7" height="8.7" fill="#ce2f5a"/><rect x="556.8" y="913.5" width="8.7" height="8.7" fill="#9a2a4f"/><rect x="817.8" y="904.8" width="17.39999999999999" height="17.39999999999999" fill="#191b33"/><rect x="817.8" y="904.8" width="8.7" height="8.7" fill="#192a7a"/><rect x="817.8" y="904.8" width="8.7" height="8.7" fill="#182e90"/><rect x="904.8" y="904.8" width="17.39999999999999" height="17.39999999999999" fill="#191b33"/><rect x="913.5" y="904.8" width="8.7" height="8.7" fill="#6b2445"/><rect x="913.5" y="904.8" width="8.7" height="8.7" fill="#182e8f"/><rect x="904.8" y="913.5" width="8.7" height="8.7" fill="#ea3360"/><rect x="904.8" y="913.5" width="8.7" height="8.7" fill="#192150"/><rect x="913.5" y="913.5" width="8.7" height="8.7" fill="#9c2a50"/><rect x="913.5" y="913.5" width="8.7" height="8.7" fill="#5a2241"/><rect x="1513.8" y="904.8" width="17.39999999999999" height="17.39999999999999" fill="#191b33"/><rect x="1513.8" y="904.8" width="8.7" height="8.7" fill="#e5325f"/><rect x="1513.8" y="904.8" width="8.7" height="8.7" fill="#c12e57"/><rect x="1522.5" y="904.8" width="8.7" height="8.7" fill="#18309a"/><rect x="1522.5" y="904.8" width="8.7" height="8.7" fill="#192c87"/><rect x="1600.8" y="904.8" width="17.39999999999999" height="17.39999999999999" fill="#191b33"/><rect x="1600.8" y="904.8" width="8.7" height="8.7" fill="#4f213f"/><rect x="1600.8" y="904.8" width="8.7" height="8.7" fill="#183bcd"/><rect x="1609.5" y="904.8" width="8.7" height="8.7" fill="#c82f59"/><rect x="1609.5" y="904.8" width="8.7" height="8.7" fill="#183ac9"/><rect x="1687.8" y="904.8" width="17.39999999999999" height="17.39999999999999" fill="#191b33"/><rect x="1687.8" y="904.8" width="8.7" height="8.7" fill="#191e43"/><rect x="1687.8" y="904.8" width="8.7" height="8.7" fill="#19276b"/><rect x="1687.8" y="913.5" width="8.7" height="8.7" fill="#9d2a50"/><rect x="1687.8" y="913.5" width="8.7" height="8.7" fill="#371e3a"/><rect x="1696.5" y="913.5" width="8.7" height="8.7" fill="#ef3362"/><rect x="1696.5" y="913.5" width="8.7" height="8.7" fill="#19214f"/><rect x="1774.8" y="904.8" width="17.39999999999999" height="17.39999999999999" fill="#191b33"/><rect x="1783.5" y="904.8" width="8.7" height="8.7" fill="#1838be"/><rect x="1783.5" y="904.8" width="8.7" height="8.7" fill="#192562"/><rect x="121.80000000000001" y="991.8" width="17.39999999999999" height="17.39999999999999" fill="#191b33"/><rect x="121.8" y="1000.5" width="8.7" height="8.7" fill="#192976"/><rect x="121.8" y="1000.5" width="8.7" height="8.7" fill="#1835b0"/><rect x="295.8" y="991.8" width="17.39999999999999" height="17.39999999999999" fill="#191b33"/><rect x="643.8" y="991.8" width="17.39999999999999" height="17.39999999999999" fill="#191b33"/><rect x="817.8" y="991.8" width="17.39999999999999" height="17.39999999999999" fill="#191b33"/><rect x="817.8" y="991.8" width="8.7" height="8.7" fill="#1839c6"/><rect x="817.8" y="991.8" width="8.7" height="8.7" fill="#19204d"/><rect x="817.8" y="1000.5" width="8.7" height="8.7" fill="#191e42"/><rect x="817.8" y="1000.5" width="8.7" height="8.7" fill="#183099"/><rect x="904.8" y="991.8" width="17.39999999999999" height="17.39999999999999" fill="#191b33"/><rect x="913.5" y="991.8" width="8.7" height="8.7" fill="#211c35"/><rect x="913.5" y="991.8" width="8.7" height="8.7" fill="#1835af"/><rect x="904.8" y="1000.5" width="8.7" height="8.7" fill="#191e42"/><rect x="904.8" y="1000.5" width="8.7" height="8.7" fill="#9a2a4f"/><rect x="913.5" y="1000.5" width="8.7" height="8.7" fill="#191c36"/><rect x="913.5" y="1000.5" width="8.7" height="8.7" fill="#ef3361"/><rect x="991.8" y="991.8" width="17.39999999999999" height="17.39999999999999" fill="#191b33"/><rect x="991.8" y="991.8" width="8.7" height="8.7" fill="#192253"/><rect x="991.8" y="991.8" width="8.7" height="8.7" fill="#1834ae"/><rect x="1000.5" y="991.8" width="8.7" height="8.7" fill="#1835b1"/><rect x="1000.5" y="991.8" width="8.7" height="8.7" fill="#191d3c"/><rect x="1000.5" y="1000.5" width="8.7" height="8.7" fill="#19266a"/><rect x="1000.5" y="1000.5" width="8.7" height="8.7" fill="#992a4f"/><rect x="1078.8" y="991.8" width="17.39999999999999" height="17.39999999999999" fill="#191b33"/><rect x="1252.8" y="991.8" width="17.39999999999999" height="17.39999999999999" fill="#191b33"/><rect x="1252.8" y="991.8" width="8.7" height="8.7" fill="#1835af"/><rect x="1252.8" y="991.8" width="8.7" height="8.7" fill="#e93260"/><rect x="1426.8" y="991.8" width="17.39999999999999" height="17.39999999999999" fill="#191b33"/><rect x="1426.8" y="991.8" width="8.7" height="8.7" fill="#183edb"/><rect x="1426.8" y="991.8" width="8.7" height="8.7" fill="#191c37"/><rect x="1426.8" y="1000.5" width="8.7" height="8.7" fill="#192254"/><rect x="1426.8" y="1000.5" width="8.7" height="8.7" fill="#192b7f"/><rect x="1600.8" y="991.8" width="17.39999999999999" height="17.39999999999999" fill="#191b33"/><rect x="1609.5" y="991.8" width="8.7" height="8.7" fill="#d8315d"/><rect x="1609.5" y="991.8" width="8.7" height="8.7" fill="#702546"/><rect x="34.800000000000004" y="1078.8" width="17.39999999999999" height="17.39999999999999" fill="#191b33"/><rect x="43.5" y="1078.8" width="8.7" height="8.7" fill="#662444"/><rect x="43.5" y="1078.8" width="8.7" height="8.7" fill="#351e39"/><rect x="208.8" y="1078.8" width="17.39999999999999" height="17.39999999999999" fill="#191b33"/><rect x="382.8" y="1078.8" width="17.39999999999999" height="17.39999999999999" fill="#191b33"/><rect x="391.5" y="1078.8" width="8.7" height="8.7" fill="#572241"/><rect x="391.5" y="1078.8" width="8.7" height="8.7" fill="#672444"/><rect x="391.5" y="1087.5" width="8.7" height="8.7" fill="#1834ad"/><rect x="391.5" y="1087.5" width="8.7" height="8.7" fill="#1835b1"/><rect x="730.8" y="1078.8" width="17.39999999999999" height="17.39999999999999" fill="#191b33"/><rect x="739.5" y="1087.5" width="8.7" height="8.7" fill="#692444"/><rect x="739.5" y="1087.5" width="8.7" height="8.7" fill="#742547"/><rect x="1339.8" y="1078.8" width="17.39999999999999" height="17.39999999999999" fill="#191b33"/><rect x="1339.8" y="1087.5" width="8.7" height="8.7" fill="#1832a2"/><rect x="1339.8" y="1087.5" width="8.7" height="8.7" fill="#19276d"/><rect x="1513.8" y="1078.8" width="17.39999999999999" height="17.39999999999999" fill="#191b33"/><rect x="1513.8" y="1078.8" width="8.7" height="8.7" fill="#83274a"/><rect x="1513.8" y="1078.8" width="8.7" height="8.7" fill="#341e39"/><rect x="1522.5" y="1078.8" width="8.7" height="8.7" fill="#e83260"/><rect x="1522.5" y="1078.8" width="8.7" height="8.7" fill="#192563"/><rect x="1513.8" y="1087.5" width="8.7" height="8.7" fill="#7b2648"/><rect x="1513.8" y="1087.5" width="8.7" height="8.7" fill="#1833a8"/></g></svg>