<svg xmlns="http://www.w3.org/2000/svg" xmlns:xlink="http://www.w3.org/1999/xlink" width="980" height="680" viewBox="0 0 980 680">
  <defs>
    <linearGradient id="c" x1="50%" x2="50%" y1="0%" y2="100%">
      <stop offset="0%" stop-color="#FFF"/>
      <stop offset="100%" stop-color="#EDEDED"/>
    </linearGradient>
    <filter id="a" width="113.3%" height="120%" x="-6.7%" y="-10%" filterUnits="objectBoundingBox">
      <feMorphology in="SourceAlpha" operator="dilate" radius="2.5" result="shadowSpreadOuter1"/>
      <feOffset in="shadowSpreadOuter1" result="shadowOffsetOuter1"/>
      <feGaussianBlur in="shadowOffsetOuter1" result="shadowBlurOuter1" stdDeviation="17.5"/>
      <feColorMatrix in="shadowBlurOuter1" values="0 0 0 0 0 0 0 0 0 0 0 0 0 0 0 0 0 0 0.5 0"/>
    </filter>
    <rect id="b" width="900" height="600" x="0" y="0" rx="80"/>
  </defs>
  <g fill="none" fill-rule="evenodd">
    <g transform="translate(40 40)">
      <use xlink:href="#b" fill="#000" filter="url(#a)"/>
      <use xlink:href="#b" fill="url(#c)"/>
    </g>
    <g fill-rule="nonzero">
      <path fill="#003087" d="M345.813 276.413a3.342 3.342 0 0 0-3.303 2.823l-19.058 120.862a3.094 3.094 0 0 0 3.057 3.574h22.601a3.345 3.345 0 0 0 3.303-2.823l5.598-35.492a3.342 3.342 0 0 1 3.302-2.822h20.55c24.009 0 44.39-17.519 48.112-41.256 3.754-23.939-14.948-44.814-41.454-44.866h-42.708Zm21.97 26.981h16.441c13.536 0 17.944 7.987 16.55 16.82-1.394 8.85-8.24 15.37-21.333 15.37h-16.734l5.076-32.19Zm108.16 8.216c-5.706.021-12.273 1.19-19.646 4.262-16.91 7.048-25.032 21.616-28.48 32.237 0 0-10.978 32.402 13.823 50.203 0 0 23 17.138 48.893-1.055l-.447 2.841a3.094 3.094 0 0 0 3.052 3.574h21.456a3.344 3.344 0 0 0 3.303-2.823l13.05-82.766a3.094 3.094 0 0 0-3.051-3.58H506.44a3.342 3.342 0 0 0-3.302 2.824l-.702 4.455s-9.37-10.236-26.494-10.172h.002Zm.702 26.143c2.464 0 4.718.34 6.74.99 9.257 2.971 14.506 11.865 12.987 21.505-1.873 11.87-11.608 20.61-24.092 20.61-2.461 0-4.715-.338-6.74-.987-9.254-2.972-14.536-11.866-13.017-21.506 1.873-11.87 11.638-20.615 24.122-20.615v.003Z"/>
      <path fill="#0070E0" d="M654.789 276.413a3.342 3.342 0 0 0-3.303 2.823l-19.058 120.862a3.094 3.094 0 0 0 3.057 3.574h22.601a3.345 3.345 0 0 0 3.303-2.823l5.598-35.492a3.342 3.342 0 0 1 3.302-2.822h20.55c24.009 0 44.387-17.519 48.108-41.256 3.756-23.939-14.943-44.814-41.45-44.866H654.79Zm21.97 26.981H693.2c13.536 0 17.944 7.987 16.55 16.82-1.394 8.85-8.237 15.37-21.333 15.37h-16.734l5.077-32.19Zm108.159 8.216c-5.707.021-12.274 1.19-19.647 4.262-16.91 7.048-25.032 21.616-28.48 32.237 0 0-10.973 32.402 13.828 50.203 0 0 22.996 17.138 48.89-1.055l-.446 2.841a3.094 3.094 0 0 0 3.056 3.574h21.454a3.344 3.344 0 0 0 3.302-2.823l13.056-82.766a3.094 3.094 0 0 0-3.057-3.58h-21.456a3.342 3.342 0 0 0-3.302 2.824l-.701 4.455s-9.371-10.236-26.495-10.172h-.002Zm.701 26.143c2.464 0 4.718.34 6.74.99 9.257 2.971 14.506 11.865 12.987 21.505-1.873 11.87-11.608 20.61-24.092 20.61-2.461 0-4.715-.338-6.74-.987-9.255-2.972-14.536-11.866-13.018-21.506 1.874-11.87 11.639-20.615 24.123-20.615v.003Z"/>
      <path fill="#003087" d="M541.129 314.504c-1.7 0-2.91 1.66-2.39 3.279l23.522 72.994-21.27 34.398c-1.031 1.67.169 3.827 2.132 3.827h25.138a4.181 4.181 0 0 0 3.574-2.017l65.695-108.678c1.01-1.67-.196-3.805-2.147-3.805h-25.136a4.181 4.181 0 0 0-3.595 2.052l-25.86 43.659-13.126-43.335a3.348 3.348 0 0 0-3.2-2.376l-23.337.002Z"/>
      <path fill="#0070E0" d="M864.309 276.413a3.345 3.345 0 0 0-3.302 2.823l-19.063 120.858a3.094 3.094 0 0 0 3.056 3.578h22.602a3.345 3.345 0 0 0 3.302-2.823l19.058-120.862a3.094 3.094 0 0 0-3.051-3.574h-22.602Z"/>
      <path fill="#001C64" d="M157.389 276.413a6.118 6.118 0 0 0-6.038 5.162l-10.032 63.628a6.112 6.112 0 0 1 6.038-5.161h29.397c29.587 0 54.692-21.584 59.28-50.833a49.04 49.04 0 0 0 .579-6.597c-7.52-3.943-16.352-6.199-26.03-6.199H157.39Z"/>
      <path fill="#0070E0" d="M236.613 282.614a49.04 49.04 0 0 1-.58 6.598c-4.587 29.249-29.694 50.832-59.279 50.832h-29.397a6.111 6.111 0 0 0-6.038 5.161l-9.224 58.47-5.778 36.68a4.96 4.96 0 0 0 4.901 5.74h31.909a6.118 6.118 0 0 0 6.038-5.161l8.404-53.308a6.118 6.118 0 0 1 6.043-5.162h18.786c29.587 0 54.693-21.583 59.28-50.832 3.257-20.759-7.198-39.647-25.065-49.016v-.002Z"/>
      <path fill="#003087" d="M121.139 234a6.111 6.111 0 0 0-6.038 5.157L90.06 397.935a4.967 4.967 0 0 0 4.907 5.74h37.131l9.22-58.47 10.032-63.628a6.118 6.118 0 0 1 6.038-5.161h53.194c9.68 0 18.51 2.258 26.03 6.198.515-26.629-21.459-48.614-51.669-48.614H121.14Z"/>
    </g>
  </g>
</svg>
