<svg xmlns="http://www.w3.org/2000/svg" fill="none" viewBox="0 0 128 127" id="remote"><path fill="url(#a)" fill-rule="evenodd" d="M63.5 63.93 31.345 9.268a2.5 2.5 0 1 1 4.31-2.535L63.5 54.07 91.345 6.732a2.5 2.5 0 1 1 4.31 2.535L63.5 63.931Z" clip-rule="evenodd"></path><circle cx="35" cy="9" r="9" fill="url(#b)"></circle><circle cx="92" cy="9" r="9" fill="url(#c)"></circle><path fill="url(#d)" d="M109 56h11a8 8 0 0 1 8 8v22a8 8 0 0 1-8 8h-11V56Z"></path><path fill="url(#e)" d="M19 94H8a8 8 0 0 1-8-8V64a8 8 0 0 1 8-8h11v38Z"></path><path fill="url(#f)" d="M63.5 127c28.443 0 51.5-23.057 51.5-51.5S91.943 24 63.5 24 12 47.057 12 75.5 35.057 127 63.5 127Z"></path><path fill="url(#g)" d="M63.5 127c28.443 0 51.5-23.057 51.5-51.5S91.943 24 63.5 24 12 47.057 12 75.5 35.057 127 63.5 127Z"></path><path fill="url(#h)" fill-opacity=".85" d="M63.5 55C78.688 55 91 48.732 91 41S78.688 27 63.5 27 36 33.268 36 41s12.312 14 27.5 14Z"></path><path fill="url(#i)" d="M63.5 112c5.49 0 10.202-3.524 12.216-8.547 1.141-2.848-1.332-5.453-4.26-5.453H55.544c-2.93 0-5.402 2.605-4.26 5.453C53.297 108.476 58.008 112 63.5 112Z"></path><path fill="url(#j)" d="M24 58a8 8 0 0 1 8-8h64a8 8 0 0 1 8 8v20.257a8 8 0 0 1-5.442 7.58l-6.098 2.058a88.999 88.999 0 0 1-56.92 0l-6.098-2.058A8 8 0 0 1 24 78.257V58Z"></path><circle cx="82" cy="68" r="12" fill="url(#k)" transform="rotate(-180 82 68)"></circle><circle cx="81.667" cy="67.453" r="6.438" fill="#000000" class="color000000 svgShape"></circle><circle cx="80.058" cy="65.844" r="2.414" fill="url(#l)"></circle><circle cx="46" cy="68" r="12" fill="url(#m)" transform="rotate(-180 46 68)"></circle><circle cx="46.261" cy="67.453" r="6.438" fill="#000000" class="color000000 svgShape"></circle><circle cx="44.651" cy="65.844" r="2.414" fill="url(#n)"></circle><defs><linearGradient id="a" x1="63.5" x2="63.5" y1="63.931" y2="5.5" gradientUnits="userSpaceOnUse"><stop stop-color="#ffffff" class="stopColorffffff svgShape"></stop><stop offset="1" stop-color="#53d86a" class="stopColorc4c4c4 svgShape"></stop></linearGradient><linearGradient id="b" x1="38.541" x2="38.541" y1="18" y2="1.5" gradientUnits="userSpaceOnUse"><stop stop-color="#167ffc" class="stopColor195ada svgShape"></stop><stop offset="1" stop-color="#2080f3" class="stopColor20b8f3 svgShape"></stop></linearGradient><linearGradient id="c" x1="95.541" x2="95.541" y1="18" y2="1.5" gradientUnits="userSpaceOnUse"><stop stop-color="#167ffc" class="stopColor195ada svgShape"></stop><stop offset="1" stop-color="#2080f3" class="stopColor20b8f3 svgShape"></stop></linearGradient><linearGradient id="d" x1="118.5" x2="118.5" y1="56" y2="94" gradientUnits="userSpaceOnUse"><stop stop-color="#595bd4" class="stopColor504a4a svgShape"></stop><stop offset="1"></stop></linearGradient><linearGradient id="e" x1="13.5" x2="14.5" y1="57.5" y2="94" gradientUnits="userSpaceOnUse"><stop stop-color="#595bd4" class="stopColor504a4a svgShape"></stop><stop offset="1"></stop></linearGradient><linearGradient id="f" x1="27.084" x2="99.916" y1="111.916" y2="39.084" gradientUnits="userSpaceOnUse"><stop stop-color="#fe9526" class="stopColorff970a svgShape"></stop><stop offset="1" stop-color="#fe9424" class="stopColorfee824 svgShape"></stop></linearGradient><linearGradient id="i" x1="63.5" x2="63.5" y1="112" y2="98" gradientUnits="userSpaceOnUse"><stop stop-color="#595bd4" class="stopColor504a4a svgShape"></stop><stop offset="1"></stop></linearGradient><linearGradient id="j" x1="64" x2="64" y1="50" y2="92.568" gradientUnits="userSpaceOnUse"><stop stop-color="#53d86a" class="stopColorc4c4c4 svgShape"></stop><stop offset="0" stop-color="#2080f3" class="stopColor20b8f3 svgShape"></stop><stop offset="1" stop-color="#167ffc" class="stopColor195ada svgShape"></stop></linearGradient><linearGradient id="k" x1="82" x2="82" y1="56" y2="80" gradientUnits="userSpaceOnUse"><stop offset=".196" stop-color="#ffffff" class="stopColorffffff svgShape"></stop><stop offset="1" stop-color="#ffffff" stop-opacity=".1" class="stopColorffffff svgShape"></stop></linearGradient><linearGradient id="m" x1="46" x2="46" y1="56" y2="80" gradientUnits="userSpaceOnUse"><stop offset=".196" stop-color="#ffffff" class="stopColorffffff svgShape"></stop><stop offset="1" stop-color="#ffffff" stop-opacity=".1" class="stopColorffffff svgShape"></stop></linearGradient><radialGradient id="g" cx="0" cy="0" r="1" gradientTransform="translate(63.5 75.5) scale(51.4998)" gradientUnits="userSpaceOnUse"><stop stop-color="#ffa84c" stop-opacity=".6" class="stopColorff4c4c svgShape"></stop><stop offset=".131" stop-color="#ffaa50" stop-opacity=".521" class="stopColorff5450 svgShape"></stop><stop offset=".326" stop-color="#ffaf5a" stop-opacity=".404" class="stopColorff685a svgShape"></stop><stop offset=".562" stop-color="#ffb76a" stop-opacity=".263" class="stopColorff896a svgShape"></stop><stop offset=".826" stop-color="#fec180" stop-opacity=".104" class="stopColorfeb780 svgShape"></stop><stop offset="1" stop-color="#fec991" stop-opacity="0" class="stopColorfed991 svgShape"></stop></radialGradient><radialGradient id="h" cx="0" cy="0" r="1" gradientTransform="matrix(27.4999 0 0 13.9999 63.5 41)" gradientUnits="userSpaceOnUse"><stop stop-color="#ffffff" stop-opacity=".6" class="stopColorffffff svgShape"></stop><stop offset="1" stop-color="#ffffff" stop-opacity="0" class="stopColorffffff svgShape"></stop></radialGradient><radialGradient id="l" cx="0" cy="0" r="1" gradientTransform="rotate(46.848 -32.56 115.985) scale(13.2361)" gradientUnits="userSpaceOnUse"><stop stop-color="#ffffff" class="stopColorffffff svgShape"></stop><stop offset="1" stop-color="#ffffff" stop-opacity="0" class="stopColorffffff svgShape"></stop></radialGradient><radialGradient id="n" cx="0" cy="0" r="1" gradientTransform="rotate(46.848 -50.264 75.122) scale(13.2361)" gradientUnits="userSpaceOnUse"><stop stop-color="#ffffff" class="stopColorffffff svgShape"></stop><stop offset="1" stop-color="#ffffff" stop-opacity="0" class="stopColorffffff svgShape"></stop></radialGradient></defs></svg>