<svg xmlns="http://www.w3.org/2000/svg" viewBox="0 0 24 24" id="Send"><path fill="none" stroke="#595bd4" stroke-linecap="round" stroke-linejoin="round" d="M8.6 7.1c1 1 4.3 4.1 5.4 5.2.2.2.4.3.7.3.3 0 .5-.1.8-.3 1.7-1.1 6.7-4.6 7.7-5.3" class="colorStroke303c42 svgStroke"></path><path fill="none" stroke="#595bd4" stroke-linecap="round" stroke-linejoin="round" d="M15 17.5H7.9c-.8 0-1.4-.6-1.4-1.4h0v-.3l1.8-8.2c.1-.6.7-1.1 1.4-1.1h12.4c.8 0 1.4.6 1.4 1.4v0h0v.3l-1.7 8.2c-.1.7-.8 1.2-1.5 1.2l-5.3-.1zM.5 16.5h4M.5 13.5H5M.5 10.5h5M.5 7.5H6" class="colorStroke303c42 svgStroke"></path></svg>