<svg xmlns="http://www.w3.org/2000/svg" xmlns:xlink="http://www.w3.org/1999/xlink" width="980" height="680" viewBox="0 0 980 680">
  <defs>
    <linearGradient id="c" x1="50%" x2="50%" y1="0%" y2="100%">
      <stop offset="0%" stop-color="#FFF"/>
      <stop offset="100%" stop-color="#EDEDED"/>
    </linearGradient>
    <filter id="a" width="113.3%" height="120%" x="-6.7%" y="-10%" filterUnits="objectBoundingBox">
      <feMorphology in="SourceAlpha" operator="dilate" radius="2.5" result="shadowSpreadOuter1"/>
      <feOffset in="shadowSpreadOuter1" result="shadowOffsetOuter1"/>
      <feGaussianBlur in="shadowOffsetOuter1" result="shadowBlurOuter1" stdDeviation="17.5"/>
      <feColorMatrix in="shadowBlurOuter1" values="0 0 0 0 0 0 0 0 0 0 0 0 0 0 0 0 0 0 0.5 0"/>
    </filter>
    <rect id="b" width="900" height="600" x="0" y="0" rx="80"/>
  </defs>
  <g fill="none" fill-rule="evenodd">
    <g transform="translate(40 40)">
      <use xlink:href="#b" fill="#000" filter="url(#a)"/>
      <use xlink:href="#b" fill="url(#c)"/>
    </g>
    <g fill="#635BFF">
      <path d="M890 346c0-56.889-27.556-101.778-80.222-101.778-52.89 0-84.89 44.89-84.89 101.334 0 66.888 37.779 100.666 92 100.666 26.445 0 46.445-6 61.556-14.444v-44.445C863.334 394.89 846 399.556 824 399.556c-21.556 0-40.667-7.556-43.111-33.778h108.667c0-2.89.444-14.445.444-19.778Zm-109.778-21.111c0-25.111 15.334-35.556 29.334-35.556 13.555 0 28 10.445 28 35.556h-57.334ZM639.111 244.222c-21.778 0-35.778 10.222-43.555 17.334l-2.89-13.778h-48.888v259.11l55.555-11.777.223-62.889c8 5.778 19.777 14 39.333 14 39.778 0 76-32 76-102.444-.222-64.445-36.889-99.556-75.778-99.556Zm-13.333 153.111c-13.111 0-20.89-4.666-26.222-10.444l-.223-82.445c5.778-6.444 13.778-10.888 26.445-10.888C646 293.556 660 316.222 660 345.333c0 29.778-13.778 52-34.222 52ZM467.333 231.111l55.778-12V174l-55.778 11.778zM467.333 248h55.778v194.444h-55.778zM407.556 264.444 404 248h-48v194.444h55.556V310.667c13.11-17.111 35.333-14 42.222-11.556V248c-7.111-2.667-33.111-7.556-46.222 16.444ZM296.444 199.778l-54.222 11.555-.222 178c0 32.89 24.667 57.111 57.556 57.111 18.222 0 31.555-3.333 38.888-7.333V394c-7.11 2.889-42.222 13.111-42.222-19.778v-78.889h42.222V248h-42.222l.222-48.222ZM146.222 304.444c0-8.666 7.111-12 18.89-12 16.888 0 38.221 5.112 55.11 14.223v-52.223c-18.444-7.333-36.666-10.222-55.11-10.222C120 244.222 90 267.778 90 307.112c0 61.332 84.444 51.555 84.444 78 0 10.221-8.888 13.555-21.333 13.555-18.444 0-42-7.556-60.667-17.778v52.889c20.667 8.889 41.556 12.666 60.667 12.666 46.222 0 78-22.888 78-62.666-.222-66.222-84.889-54.445-84.889-79.334Z"/>
    </g>
  </g>
</svg>
