<svg xmlns="http://www.w3.org/2000/svg" width="60" height="60" viewBox="0 0 15.875 15.875" id="success"><path fill="#5c92f2" d="m 14.548921,4.1578448 c 0.125532,0.2174271 -0.398652,2.2410367 -0.346453,2.4866137 0.0522,0.2455769 1.354141,1.8810314 1.327898,2.1307193 -0.02624,0.249688 -1.639765,1.5787152 -1.741882,1.8080722 -0.102116,0.229358 -0.01012,2.317731 -0.178113,2.504307 -0.167994,0.186577 -2.254543,0.313378 -2.47197,0.43891 -0.217428,0.125531 -1.370515,1.869135 -1.616092,1.921334 C 9.2767321,15.5 7.5141467,14.376142 7.2644588,14.349898 7.0147709,14.323655 5.057039,15.056492 4.8276813,14.954376 4.5983236,14.852259 3.8329494,12.907017 3.646373,12.739023 3.4597967,12.571029 1.4452074,12.01318 1.3196758,11.795753 1.1941441,11.578326 1.7183281,9.5547165 1.6661291,9.3091396 1.6139301,9.0635626 0.31198806,7.4281081 0.33823131,7.1784202 0.36447457,6.9287323 1.9779961,5.5997053 2.0801128,5.3703476 2.1822294,5.1409899 2.0902322,3.0526171 2.2582263,2.8660407 2.4262205,2.6794643 4.5127693,2.5526631 4.7301965,2.4271315 4.9476237,2.3015998 6.1007111,0.55799618 6.346288,0.50579718 6.591865,0.45359819 8.3544503,1.5774565 8.6041382,1.6036997 8.8538262,1.629943 10.811558,0.89710578 11.040916,0.99922242 11.270273,1.1013391 12.035648,3.0465812 12.222224,3.2145753 12.4088,3.3825694 14.42339,3.9404176 14.548921,4.1578448 Z" transform="rotate(11.349 8.09 7.961)"></path><path fill="#ccddfb" d="M 12.739547,8.013863 A 4.7850977,4.7850977 0 0 1 7.9544501,12.798961 4.7850977,4.7850977 0 0 1 3.1693524,8.013863 4.7850977,4.7850977 0 0 1 7.9544501,3.2287653 4.7850977,4.7850977 0 0 1 12.739547,8.013863 Z"></path><path style="line-height:normal;font-variant-ligatures:normal;font-variant-position:normal;font-variant-caps:normal;font-variant-numeric:normal;font-variant-alternates:normal;font-feature-settings:normal;text-indent:0;text-align:start;text-decoration-line:none;text-decoration-style:solid;text-decoration-color:#000;text-transform:none;text-orientation:mixed;shape-padding:0;isolation:auto;mix-blend-mode:normal" fill="#5c92f2" d="m 9.8726559,5.4003906 a 1.190744,1.190744 0 0 0 -0.818359,0.359375 L 7.2925781,7.5214844 6.8355469,7.0976562 A 1.1913006,1.1913006 0 1 0 5.2144531,8.84375 l 1.2988282,1.203125 a 1.190744,1.190744 0 0 0 1.6523437,-0.0293 L 10.737891,7.4433594 A 1.190744,1.190744 0 0 0 9.8726559,5.4003906 Z" color="#000" font-family="sans-serif" font-weight="400" overflow="visible"></path></svg>