<svg xmlns="http://www.w3.org/2000/svg" width="26" height="26" id="dart"><g fill="#fff" transform="translate(5 -1031.362)"><circle cx="8" cy="1044.362" r="13" fill="#50b748" fill-rule="evenodd"></circle><path fill="#10a711" d="M14.584 25.893a13 13 0 0 0 .998-.153 13 13 0 0 0 1.26-.32 13 13 0 0 0 1.22-.445 13 13 0 0 0 1.17-.567 13 13 0 0 0 1.108-.68 13 13 0 0 0 1.035-.785 13 13 0 0 0 .951-.886 13 13 0 0 0 .858-.977 13 13 0 0 0 .755-1.057 13 13 0 0 0 .647-1.127 13 13 0 0 0 .531-1.185 13 13 0 0 0 .408-1.234 13 13 0 0 0 .286-1.268 13 13 0 0 0 .156-1.29A13 13 0 0 0 26 13a13 13 0 0 0-.064-1.297 13 13 0 0 0-.05-.316L21 6.5 19.5 5h-1v1.793l-.215.215A7.94 7.94 0 0 0 13 5c-4.412 0-8 3.588-8 8 0 2.206.897 4.206 2.346 5.654l7.238 7.239z" color="#000" font-family="sans-serif" font-weight="400" transform="translate(-5 1031.362)" style="line-height:normal;text-indent:0;text-align:start;text-decoration-line:none;text-decoration-style:solid;text-decoration-color:#000;text-transform:none;block-progression:tb;isolation:auto;mix-blend-mode:normal"></path><path d="M8 0C3.588 0 0 3.588 0 8s3.588 8 8 8 8-3.588 8-8a7.962 7.962 0 0 0-2.008-5.285l.215-.215H16v-1h-1.5V0h-1v1.793l-.215.215A7.957 7.957 0 0 0 8 0Zm0 1c1.756 0 3.354.647 4.582 1.71l-.71.712A5.97 5.97 0 0 0 8 2C4.692 2 2 4.692 2 8s2.692 6 6 6 6-2.692 6-6a5.971 5.971 0 0 0-1.422-3.871l.711-.711A6.969 6.969 0 0 1 15 8c0 3.872-3.128 7-7 7s-7-3.128-7-7 3.128-7 7-7zm0 2c1.203 0 2.29.439 3.15 1.143l-.71.71A3.959 3.959 0 0 0 8 4C5.797 4 4 5.797 4 8c0 2.203 1.797 4 4 4 2.203 0 4-1.797 4-4 0-.921-.327-1.762-.854-2.44l.711-.71A4.958 4.958 0 0 1 13 8c0 2.767-2.233 5-5 5s-5-2.233-5-5 2.233-5 5-5Zm0 2c.65 0 1.246.208 1.736.557l-.726.726A1.97 1.97 0 0 0 8 6c-1.099 0-2 .901-2 2s.901 2 2 2 2-.901 2-2c0-.368-.11-.71-.285-1.008l.728-.728A2.99 2.99 0 0 1 11 8c0 1.663-1.337 3-3 3S5 9.663 5 8s1.337-3 3-3Zm0 2c.087 0 .166.026.246.047l-.6.6.708.707.597-.598c.02.08.049.157.049.244 0 .558-.442 1-1 1s-1-.442-1-1 .442-1 1-1Z" color="#000" font-family="sans-serif" font-weight="400" overflow="visible" transform="translate(0 1036.362)" style="line-height:normal;text-indent:0;text-align:start;text-decoration-line:none;text-decoration-style:solid;text-decoration-color:#000;text-transform:none;block-progression:tb;isolation:auto;mix-blend-mode:normal"></path></g></svg>