<svg xmlns="http://www.w3.org/2000/svg" fill-rule="evenodd" stroke-linecap="round" stroke-linejoin="round" stroke-miterlimit="1.5" clip-rule="evenodd" viewBox="0 0 3000 3000" id="web-development-service"><rect width="3000" height="3000" fill="none"></rect><g><path fill="#e4e9ff" d="M2496.78,968.052c-0,-24.28 -9.645,-47.565 -26.814,-64.733c-17.168,-17.168 -40.453,-26.813 -64.732,-26.813c-342.947,-0 -1549.46,-0 -1892.41,-0c-24.279,-0 -47.564,9.645 -64.733,26.813c-17.168,17.168 -26.813,40.453 -26.813,64.733c0,205.433 0,701.19 0,906.624c0,24.279 9.645,47.564 26.813,64.732c17.169,17.169 40.454,26.814 64.733,26.814c342.946,-0 1549.46,-0 1892.41,-0c24.279,-0 47.564,-9.645 64.732,-26.814c17.169,-17.168 26.814,-40.453 26.814,-64.732c-0,-205.434 -0,-701.191 -0,-906.624Z"></path><path fill="#abf" d="M2496.78,968.052c-0,-24.28 -9.645,-47.565 -26.814,-64.733c-17.168,-17.168 -40.453,-26.813 -64.732,-26.813c-342.947,-0 -1549.46,-0 -1892.41,-0c-50.559,-0 -91.546,40.986 -91.546,91.546l0,61.648l2075.5,-13.363c-0,-0 -0,-21.856 -0,-48.285Z"></path><path fill="#1b2e35" d="M1523.18 1133.27l296.702 5.16c1.464.026 2.671-1.14 2.697-2.604.025-1.464-1.141-2.671-2.605-2.696l-296.702-5.16c-1.464-.026-2.671 1.14-2.697 2.604-.025 1.464 1.141 2.671 2.605 2.696zM1886.04 1138.43l55.161 0c1.464 0 2.651-1.187 2.651-2.651 0-1.464-1.187-2.651-2.651-2.651l-55.161 0c-1.464 0-2.651 1.187-2.651 2.651 0 1.464 1.187 2.651 2.651 2.651zM2018.6 1138.43l67.081 0c1.464 0 2.651-1.187 2.651-2.651 0-1.464-1.187-2.651-2.651-2.651l-67.081 0c-1.464 0-2.651 1.187-2.651 2.651 0 1.464 1.187 2.651 2.651 2.651zM1497.42 1262.28l877.215 3.44c1.464.006 2.655-1.176 2.661-2.64.006-1.464-1.176-2.656-2.64-2.661l-877.215-3.441c-1.464-.005-2.656 1.177-2.661 2.641-.006 1.464 1.176 2.655 2.64 2.661zM1481.86 1334.52l99.761 3.441c1.463.05 2.69-1.095 2.741-2.558.05-1.463-1.095-2.69-2.558-2.741l-99.762-3.44c-1.463-.05-2.69 1.095-2.74 2.558-.051 1.463 1.095 2.69 2.558 2.74zM1671.58 1337.96l304.016 0c1.464 0 2.651-1.187 2.651-2.651 0-1.464-1.187-2.65-2.651-2.65l-304.016 0c-1.464 0-2.651 1.186-2.651 2.65 0 1.464 1.187 2.651 2.651 2.651zM2052.14 1337.96l337.985 0c1.464 0 2.651-1.187 2.651-2.651 0-1.464-1.187-2.65-2.651-2.65l-337.985 0c-1.464 0-2.651 1.186-2.651 2.65 0 1.464 1.187 2.651 2.651 2.651zM2390.15 1406.62l-658.771-6.88c-1.464-.015-2.663 1.159-2.678 2.623-.016 1.464 1.159 2.663 2.623 2.678l658.771 6.88c1.464.016 2.663-1.159 2.678-2.623.015-1.464-1.159-2.663-2.623-2.678zM1652.27 1403.18l-251.124-3.44c-1.464-.02-2.667 1.15-2.687 2.614-.02 1.464 1.151 2.667 2.614 2.687l251.125 3.44c1.463.02 2.666-1.15 2.686-2.614.02-1.464-1.15-2.667-2.614-2.687zM716.377 949.623l57.714.902c1.464.023 2.669-1.145 2.692-2.609.023-1.464-1.145-2.669-2.609-2.692l-57.714-.902c-1.464-.023-2.669 1.145-2.692 2.609-.023 1.464 1.145 2.669 2.609 2.692z"></path><g><path fill="#1b2e35" fill-rule="nonzero" d="M2171.43 1131.79l63.201 25.543 0 19.788-82.585-38.264 0-14.74 82.585-38.163 0 19.788-63.201 26.048zM2267.74 1209.43l-16.052 0 61.384-159.619 15.951 0-61.283 159.619zM2415.35 1131.18l-66.735-26.148 0-19.183 86.22 38.163 0 14.74-86.22 38.264 0-19.384 66.735-26.452z"></path></g><circle cx="573.588" cy="946.658" r="46.661" fill="#9e242f"></circle><path fill="#e4e9ff" fill-rule="nonzero" d="M573.611,938.532l16.682,-26.672l10.803,-0l-21.988,34.511l22.514,35.084l-10.899,0l-17.112,-27.15l-17.207,27.15l-10.851,0l22.562,-35.084l-22.036,-34.511l10.755,-0l16.777,26.672Z"></path></g><g><path fill="#e4e9ff" d="M1529.65,278.705c0,-19.802 -7.866,-38.792 -21.868,-52.794c-14.002,-14.002 -32.992,-21.868 -52.794,-21.868c-146.667,-0 -470.852,-0 -617.519,-0c-19.802,-0 -38.793,7.866 -52.794,21.868c-14.002,14.002 -21.868,32.992 -21.868,52.794c-0,72.46 -0,181.818 -0,254.278c-0,19.801 7.866,38.792 21.868,52.794c14.001,14.002 32.992,21.868 52.794,21.868l617.519,-0c19.802,-0 38.792,-7.866 52.794,-21.868c14.002,-14.002 21.868,-32.993 21.868,-52.794c0,-72.46 0,-181.818 0,-254.278Z"></path><path fill="#abf" d="M2021,391.012c0,-19.802 -7.866,-38.793 -21.868,-52.794c-14.001,-14.002 -32.992,-21.868 -52.794,-21.868l-287.618,-0c-19.802,-0 -38.793,7.866 -52.794,21.868c-14.002,14.001 -21.868,32.992 -21.868,52.794l-0,303.411c-0,19.802 7.866,38.793 21.868,52.794c14.001,14.002 32.992,21.868 52.794,21.868c80.319,0 207.299,0 287.618,0c19.802,0 38.793,-7.866 52.794,-21.868c14.002,-14.001 21.868,-32.992 21.868,-52.794l0,-303.411Z"></path><path fill="#1b2e35" d="M1655.42,528.163c3.006,-27.638 14.804,-53.289 34.273,-74.506c11.924,5.266 24.678,9.812 38.02,13.51c-6.862,19.749 -11.105,40.926 -12.634,63.016l-59.659,-2.02Zm134.055,94.95l-1.857,54.851c-16.782,-5.853 -31.949,-24.49 -42.323,-52.099c13.832,-1.897 28.658,-2.807 44.18,-2.752Zm-38.434,47.93c-20.718,-7.254 -39.457,-18.748 -54.929,-33.727c9.764,-3.216 20.359,-5.984 31.612,-8.232c6.097,16.7 14.047,30.967 23.317,41.959Zm-18.815,-121.13l59.658,2.02l-1.845,54.512c-17.07,-0.071 -33.818,1.1 -49.889,3.476c-5.107,-18.659 -7.819,-39.275 -7.924,-60.008Zm62.151,-71.621l-1.845,54.513l-59.659,-2.02c1.508,-20.691 5.607,-41.063 11.964,-59.322c15.952,3.46 32.583,5.76 49.54,6.829Zm-91.624,-37.152c16.461,-13.898 35.935,-24.098 57.083,-29.922c-9.991,10.316 -18.874,24.024 -26.1,40.273c-11.064,-3.004 -21.459,-6.482 -30.983,-10.351Zm48.296,14.75c12.218,-26.868 28.623,-44.423 45.748,-49.093l-1.856,54.839c-15.502,-1.007 -30.233,-2.93 -43.892,-5.746Zm-28.273,157.146c-13.537,2.801 -26.581,6.462 -38.848,10.908c-17.99,-22.46 -28.026,-48.862 -29.155,-76.653l59.659,2.02c0.031,22.13 2.833,43.533 8.344,63.725Zm226.85,-55.824c-3.02,27.698 -14.807,53.374 -34.275,74.566c-11.949,-5.266 -24.717,-9.801 -38.021,-13.498c6.85,-19.749 11.093,-40.927 12.637,-63.088l59.659,2.02Zm-134.057,-94.878l1.856,-54.839c16.784,5.818 31.951,24.454 42.324,52.075c-13.818,1.885 -28.646,2.808 -44.18,2.764Zm61.751,-5.982c-6.097,-16.701 -14.046,-30.978 -23.33,-41.947c20.705,7.241 39.458,18.735 54.93,33.714c-9.764,3.216 -20.359,5.984 -31.6,8.233Zm-4.515,79.17l-59.645,-2.019l1.845,-54.512c17.043,0.069 33.791,-1.101 49.877,-3.465c5.108,18.623 7.832,39.24 7.923,59.996Zm17.794,0.602c-0.031,-22.13 -2.833,-43.533 -8.344,-63.714c13.55,-2.799 26.582,-6.46 38.861,-10.919c17.99,22.472 28.014,48.862 29.142,76.653l-59.659,-2.02Zm-79.932,71.019l1.847,-54.572l59.646,2.019c-1.496,20.751 -5.609,41.148 -11.964,59.382c-15.889,-3.458 -32.52,-5.758 -49.529,-6.829Zm91.625,37.153c-16.45,13.898 -35.936,24.098 -57.097,29.934c10.005,-10.34 18.901,-24.036 26.114,-40.286c11.088,3.017 21.472,6.483 30.983,10.352Zm-48.31,-14.751c-12.204,26.844 -28.596,44.4 -45.736,49.117l1.857,-54.85c15.437,0.992 30.156,2.903 43.879,5.733Zm-46.263,-240.55c-91.399,-3.094 -168.105,63.352 -170.975,148.117c-2.869,84.753 69.169,156.234 160.568,159.328c91.412,3.094 168.119,-63.352 170.988,-148.104c2.869,-84.765 -69.168,-156.246 -160.581,-159.341Z"></path><g><path fill="#1b2e35" fill-rule="nonzero" d="M949.86 409.337l101.721 41.111 0 31.849-132.92-61.585 0-23.724 132.92-61.423 0 31.849-101.721 41.923zM1104.88 534.295l-25.837 0 98.796-256.902 25.674 0-98.633 256.902zM1342.44 408.363l-107.408-42.086 0-30.874 138.769 61.422 0 23.725-138.769 61.585 0-31.199 107.408-42.573z"></path></g></g><g><path fill="#ffb228" d="M1150.48,1587.56c-52.823,-66.092 -204.117,-30.848 -215.879,52.938c-17.34,123.512 62.762,546.801 136.239,656.751c82.169,122.954 333.076,67.65 329.91,-86.771c-2.69,-131.165 -171.712,-524.627 -250.27,-622.918Z"></path><path fill="#8a1c26" d="M1535.65,1802.47c-0,-0 -340.019,143.047 -419.543,231.221c-123.035,136.419 -97.108,315.578 87.605,328.542c119.075,8.357 421.976,-193.041 421.221,-196.061c90.069,-70.87 52.492,-91.486 52.492,-91.486c39.225,-21.805 38.837,-45.261 15.728,-69.663c0.939,-27.943 -9.385,-53.899 -30.521,-77.946c0.157,-25.057 -15.085,-43.056 -46.093,-53.83c-2.082,-21.63 -13.872,-33.994 -44.526,-28.351c10.607,-6.819 -9.785,-45.799 -36.363,-42.426Z"></path><g><path fill="#ffbe9d" d="M1973.96,1618.63c-138.074,0.608 -315.108,89.02 -315.108,89.02l-213.645,173.116l68.729,168.085c108.465,-19.876 253.86,-73.653 297.151,-116.112c15.078,-14.788 11.914,48.25 30.768,55.386c18.853,7.135 62.671,0.425 75.04,-5.296c9.235,-4.272 -0.829,-29.032 -0.829,-29.032c-0,0 15.201,23.703 26.083,21.114c14.755,-3.51 48.785,-37.599 53.527,-51.983c4.742,-14.383 -32.658,-40.117 -32.658,-40.117c0,-0 47.405,8.676 64.813,-18.186c15.623,-24.106 -44.826,-115.676 -153.519,-122.855c0,0 85.243,-10.218 101.851,-30.741c16.608,-20.523 32.503,-92.552 -2.203,-92.399Z"></path><path fill="#111" d="M1659.46 1784.74c0 0 67.588-15.757 115.339-19.806 12.109-1.027 22.924-1.305 30.98-.345 4.877.581 8.674 1.547 10.929 3.239 26.116 19.602 32.238 54.527 16.578 82.261-10.551 18.685-30.951 34.057-61.641 39.551-.145.025-.287.063-.426.113l-113.253 40.493c-1.379.493-2.097 2.01-1.604 3.388.493 1.379 2.01 2.096 3.389 1.604l113.046-40.419c32.458-5.866 53.93-22.332 65.105-42.123 16.966-30.046 10.281-67.872-18.012-89.108-2.798-2.1-7.433-3.542-13.484-4.263-8.335-.993-19.526-.736-32.055.327-48.063 4.075-116.094 19.925-116.094 19.925-1.426.332-2.313 1.758-1.98 3.183.332 1.426 1.757 2.312 3.183 1.98zM1871.95 1904.34l35.093 43.732c.917 1.142 2.585 1.325 3.727.409 1.141-.916 1.324-2.585.408-3.727 0 0-35.094-43.732-35.094-43.732-.916-1.142-2.584-1.324-3.726-.408-1.142.916-1.325 2.584-.408 3.726zM1855.57 1821.03c33.16 8.116 65.209 23.278 94.831 53.801 1.019 1.051 2.698 1.076 3.748.057 1.051-1.02 1.076-2.698.056-3.749-30.418-31.344-63.323-46.925-97.375-55.259-1.422-.348-2.857.523-3.205 1.945-.348 1.422.523 2.857 1.945 3.205zM1822.37 1762.36l48.286-16.369c1.347-.573 1.976-2.129 1.403-3.476-.572-1.348-2.128-1.976-3.476-1.404l-48.286 16.37c-1.347.572-1.976 2.129-1.403 3.476.572 1.347 2.128 1.976 3.476 1.403z"></path></g><path fill="#ffb228" d="M1535.65,1802.47c-0,-0 -340.019,143.047 -419.543,231.221c-123.035,136.419 -97.108,315.578 87.605,328.542c119.075,8.357 421.976,-193.041 421.221,-196.061c-2.545,-62.786 -22.035,-56.701 -66.138,-66.519c40.871,-63.332 27.318,-81.9 -41.975,-101.034c46.818,-46.453 36.713,-64.499 -25.362,-105.156c47.843,-31.593 54.987,-46.278 44.192,-90.993Z"></path><path fill="#9e242f" d="M1535.65,1802.47l-149.958,67.961c-8.956,155.096 30.102,279.782 131.596,364.927c-0,-0 107.938,-68.015 107.645,-69.186c-2.545,-62.786 -22.035,-56.701 -66.138,-66.519c40.871,-63.332 27.318,-81.9 -41.975,-101.034c46.818,-46.453 36.713,-64.499 -25.362,-105.156c47.843,-31.593 54.987,-46.278 44.192,-90.993Z"></path></g><g><path fill="#ffb228" d="M1063.78,1555.39c-93.966,-34.251 -225.929,-30.391 -375.248,24.668l68.38,833.83l484.888,-17.648l-73.632,-348.082c-0,0 47.462,-108.152 39.899,-163.856c-10.875,-80.098 -144.287,-328.912 -144.287,-328.912Z"></path><path fill="#9e242f" d="M1101.02,1804.72l-115.323,7.057l2.437,39.833l115.323,-7.057l-2.437,-39.833Z"></path><path fill="#9e242f" d="M1020.18,1696.31l25.058,112.238c0.319,1.429 1.736,2.328 3.165,2.01c1.428,-0.319 2.328,-1.736 2.009,-3.165c0,-0 -25.058,-112.239 -25.058,-112.239c-0.319,-1.428 -1.735,-2.328 -3.164,-2.009c-1.429,0.319 -2.329,1.736 -2.01,3.165Z"></path></g><g><path fill="#111" d="M1273.51,910.924c-98.982,-52.722 -282.467,-68.551 -379.005,16.587c-99.009,87.319 -5.332,416.368 -236.163,485.466c46.883,52.798 109.446,86.098 182.719,86.116l185.582,-168.71l278.565,91.001l8.482,-29.658l58.539,9.655c-0,-0 15.583,-429.573 -98.719,-490.457Z"></path><g><path fill="#ffbe9d" d="M1073.64,1380.15l-163.2,-77.696l-85.523,243.178l197.877,150.103l41.568,-137.057l9.278,-178.528Z"></path><path fill="#f69e70" d="M1073.64,1380.15l-163.2,-77.696c-28.447,131.916 35.205,188.265 157.005,196.901l6.195,-119.205Z"></path><path fill="#ffbe9d" d="M1304.58,1117.85c-7.437,-120.864 -239.071,-176.618 -318.921,-88.906c-51.199,56.24 -109.125,243.704 -85.864,314.459c23.26,70.754 151.451,127.722 225.427,110.069c167.185,-39.895 183.932,-261.283 179.358,-335.622Z"></path><path fill="#111" d="M1273.51,910.924c-98.982,-52.722 -287.129,-73.563 -379.005,16.587c-92.035,90.307 -38.719,385.367 -42.832,383.604c-0,-0 63.022,50.757 111.464,81.381l33.1,-264.153l13.107,-0.433l55.387,-49.873l-12.54,47.867l70.33,23.432l32.069,-34.119l5.969,50.599l56.1,9.56l11.451,-20.239l5.186,35.071c0,0 133.116,22.982 131.78,-18.298c-3.67,-113.365 -35.585,-231.167 -91.566,-260.986Z"></path><path fill="#4b4b4b" d="M842.176,1240.48l6.859,70.886c0.071,0.725 0.435,1.388 1.009,1.836l42.833,33.383c1.155,0.9 2.82,0.694 3.72,-0.461c0.9,-1.155 0.693,-2.82 -0.461,-3.72l-41.934,-32.683c0,-0 -6.749,-69.752 -6.749,-69.752c-0.141,-1.457 -1.436,-2.524 -2.894,-2.383c-1.457,0.141 -2.524,1.437 -2.383,2.894Z"></path><path fill="#111" d="M1024.27 1293.95c.035-.137.095-.354.16-.499.311-.695.831-1.423 1.435-2.157 2.699-3.279 7.065-6.464 7.065-6.464 1.181-.864 1.437-2.523.572-3.704-.864-1.181-2.523-1.438-3.704-.573 0 0-6.831 5.064-9.503 9.413-1.858 3.024-1.826 5.852.228 7.743 16.881 15.537 110.346 80.135 110.346 80.135 1.205.832 2.856.531 3.688-.674.832-1.204.53-2.855-.674-3.687 0 0-92.405-63.824-109.613-79.533zM1186.52 1174.84c0 0 7.208 96.771 4.041 118.526-.164 1.124-.958 2.053-1.977 2.917-1.38 1.17-3.198 2.153-5.135 2.995-6.275 2.727-13.797 3.913-13.797 3.913-1.446.229-2.433 1.587-2.204 3.032.229 1.446 1.587 2.433 3.033 2.204 0 0 11.267-1.811 18.484-5.986 3.737-2.162 6.364-5.031 6.842-8.311 3.198-21.967-4-119.682-4-119.682-.108-1.46-1.38-2.556-2.84-2.448-1.459.109-2.555 1.38-2.447 2.84zM1117.89 1167.53c8.283 3.895 9.115 19.59 1.856 35.026-7.259 15.436-19.877 24.806-28.16 20.911-8.283-3.895-9.114-19.589-1.856-35.026 7.259-15.436 19.877-24.806 28.16-20.911zM1244.03 1206.73c8.283 3.895 9.114 19.589 1.855 35.026-7.258 15.436-19.876 24.806-28.159 20.911-8.283-3.895-9.115-19.589-1.856-35.026 7.259-15.436 19.877-24.806 28.16-20.911z"></path><path fill="#4b4b4b" d="M962.992 1050.88l-38.289 45.469c-.549.652-.751 1.528-.543 2.354.208.827.801 1.503 1.593 1.817l62.699 24.888c1.36.54 2.901-.125 3.441-1.485.54-1.361-.125-2.902-1.486-3.442l-59.279-23.531c0 0 35.92-42.655 35.92-42.655.942-1.12.799-2.792-.321-3.735-1.119-.943-2.792-.799-3.735.32zM1231.65 1068.55l-3.42 79.593c-.063 1.463 1.071 2.699 2.534 2.762 1.463.063 2.699-1.072 2.762-2.534 0 0 3.42-79.593 3.42-79.593.063-1.463-1.071-2.7-2.534-2.763-1.463-.062-2.699 1.072-2.762 2.535zM1324.99 1096.87l12.547 88.219c.206 1.449 1.548 2.457 2.997 2.251 1.449-.206 2.457-1.548 2.251-2.998l-12.547-88.219c-.206-1.449-1.548-2.457-2.997-2.251-1.449.207-2.457 1.549-2.251 2.998z"></path></g></g><g><path fill="none" stroke="#a83434" stroke-width="2.89" d="M1630.62,2572.88l-114.423,65.001l82.191,26.323l32.232,-91.324Z"></path><path fill="#1b2e35" d="M1589.33,2696.9c0,0 -56.089,13.875 -68.552,16.958c-1.591,0.394 -3.26,0.337 -4.821,-0.164c-46.488,-14.921 -756.323,-242.754 -756.323,-242.754l0,82.131c0,-0 632.408,188.081 734.836,218.543c9.008,2.679 18.668,2.136 27.319,-1.537c33.156,-14.074 116.438,-49.429 116.438,-49.429l-48.897,-23.748Z"></path><path fill="#3b484d" d="M1815.94,2050.83c-0,0 -885.134,272.142 -1031.03,316.997c-12.156,3.738 -20.682,14.673 -21.343,27.374c-1.483,28.508 -3.939,75.737 -3.939,75.737c0,-0 666.376,215.29 749.082,242.01c5.479,1.77 11.349,1.942 16.922,0.494c19.112,-4.963 63.692,-16.54 63.692,-16.54l226.611,-646.072Z"></path><g><path fill="#1b2e35" d="M1781.06,2150.29l-804.704,267.804l438.45,136.406l253.749,-83.563l112.505,-320.647Z"></path><path fill="#000203" d="M1627.6,2261.92l-60.686,-40.792c-1.215,-0.817 -2.862,-0.494 -3.679,0.721c-0.817,1.215 -0.494,2.862 0.721,3.679l57.506,38.654l-76.715,28.27c-41.893,-21.68 -75.479,-39.088 -75.479,-39.088c-1.3,-0.673 -2.9,-0.166 -3.573,1.134c-0.674,1.3 -0.166,2.9 1.133,3.573c0,0 31.314,16.23 71.182,36.863l-114.835,42.318l-87.435,-40.625c-1.327,-0.617 -2.904,-0.04 -3.52,1.287c-0.617,1.328 -0.041,2.904 1.287,3.521l82.651,38.402l-112.805,41.57l-98.084,-40.246c-1.355,-0.555 -2.903,0.092 -3.459,1.446c-0.555,1.355 0.092,2.903 1.446,3.459l92.74,38.052l-103.582,38.171l-117.674,-39.18c-1.389,-0.462 -2.89,0.289 -3.353,1.678c-0.462,1.389 0.289,2.89 1.678,3.352l111.383,37.085l-77.562,28.583c-1.374,0.506 -2.077,2.03 -1.571,3.403c0.506,1.374 2.03,2.077 3.404,1.571l83.784,-30.875l75.516,25.143l-80.671,28.272c-1.381,0.484 -2.109,1.997 -1.625,3.379c0.485,1.381 1.997,2.109 3.379,1.624l87.137,-30.538l84.842,28.248l-83.241,24.05c-1.406,0.406 -2.217,1.876 -1.811,3.282c0.407,1.406 1.876,2.217 3.283,1.811l90.642,-26.188l127.615,42.489c1.389,0.463 2.89,-0.288 3.352,-1.677c0.463,-1.389 -0.288,-2.89 -1.677,-3.353l-120.305,-40.055l94.736,-27.371l108.755,44.624c1.355,0.556 2.903,-0.092 3.459,-1.446c0.556,-1.354 -0.092,-2.903 -1.446,-3.459l-102.573,-42.086l111.852,-32.316l78.254,36.359c1.327,0.617 2.904,0.04 3.52,-1.287c0.617,-1.328 0.041,-2.904 -1.286,-3.521l-72.73,-33.792l96.07,-27.756c1.406,-0.407 2.217,-1.876 1.811,-3.283c-0.407,-1.406 -1.876,-2.217 -3.283,-1.811l-101.921,29.447l-88.734,-41.228l112.251,-39.34c37.8,19.523 70.843,36.54 82.041,42.175c1.308,0.658 2.902,0.131 3.56,-1.176c0.658,-1.308 0.131,-2.902 -1.177,-3.56c-10.751,-5.41 -41.644,-21.315 -77.542,-39.851l65.961,-23.116l27.228,18.302c1.215,0.817 2.862,0.494 3.679,-0.721c0.816,-1.215 0.493,-2.862 -0.721,-3.679l-23.94,-16.091l33.452,-11.724c1.382,-0.484 2.109,-1.996 1.625,-3.378c-0.484,-1.381 -1.996,-2.109 -3.378,-1.625l-37.192,13.034l-58.241,-39.148l122.048,-44.976c1.374,-0.506 2.077,-2.03 1.571,-3.403c-0.507,-1.374 -2.031,-2.077 -3.404,-1.571l-125.644,46.301Zm-343.185,191.001l85.651,28.517l95.717,-27.654l-84.684,-34.747l-96.684,33.884Zm104.216,-36.524l85.347,35.019l112.421,-32.48l-88.148,-40.956l-109.62,38.417Zm-188.163,8.574l75.727,25.213l97.52,-34.177l-70.465,-28.912l-102.782,37.876Zm110.14,-40.588l70.639,28.985l110.112,-38.59l-68.419,-31.79l-112.332,41.395Zm233.778,-86.149l-114.43,42.169l68.575,31.862l112.663,-39.484c-22.099,-11.416 -45.463,-23.5 -66.808,-34.547Zm73.69,32.135l66.948,-23.462l-58.133,-39.076l-75.768,27.921c21.616,11.185 45.031,23.294 66.953,34.617Z"></path></g><path fill="#1b2e35" d="M2578.72,1691.4l-614.683,102.074l-327.373,927.165l698.417,-263.755l243.639,-765.484Z"></path><path fill="#3b484d" d="M1917.24,1760.07l46.789,33.408l-327.363,927.165l-47.33,-23.75l327.904,-936.823Z"></path><path fill="#eff3f5" d="M2150.3,2010.77l89.511,-22.621l25.639,49.005l-159.268,40.531l44.118,-66.915Z"></path><path fill="#3b484d" d="M1917.24,1760.07l46.799,33.408l614.683,-102.074c-0,-0 -18.25,-17.532 -29.66,-28.492c-5.638,-5.416 -13.509,-7.839 -21.216,-6.53c-87.222,14.811 -610.606,103.688 -610.606,103.688Z"></path></g><g><path fill="#ffb228" d="M808.124,1640.23c-34.274,-77.354 -189.556,-81.754 -222.244,-3.715c-48.186,115.039 -78.387,544.781 -35.294,669.804c48.191,139.81 304.913,150.147 341.129,-0c30.763,-127.535 -32.618,-551.05 -83.591,-666.089Z"></path><path fill="none" stroke="#a83434" stroke-width="2.89" d="M873.552,1919.84c-18.157,-118.604 -42.994,-228.986 -65.428,-279.616c-8.336,-18.813 -23.829,-33.311 -42.976,-43.358"></path><path fill="#8a1c26" d="M1204.54,1938.87c-0,-0 -446.541,-52.924 -545.613,12.525c-153.934,101.692 -174.039,406.557 3.639,451.561c111.867,28.335 473.91,-7.352 473.91,-7.352c44.519,-8.958 104.582,-66.239 104.582,-66.239c40.572,-35.584 55.208,-81.317 32.064,-141.834c25.503,-42.395 14.291,-90.909 -10.101,-141.621c50.28,-27.74 9.412,-106.175 -58.481,-107.04Z"></path><path fill="#ffb228" stroke="#a83434" stroke-width="2.89" d="M1204.54,1938.87c-0,-0 -446.541,-52.924 -545.613,12.525c-153.934,101.692 -174.039,406.557 3.639,451.561c111.867,28.335 473.91,-7.352 473.91,-7.352c24.907,-61.609 -13.567,-83.379 -53.722,-104.093c55.636,-50.852 61.258,-95.454 -0.889,-131.584c57.094,-33.016 83.86,-72.306 34.168,-127.416c54.305,-18.385 87.573,-47.651 88.507,-93.641Z"></path><g><path fill="#ffbe9d" d="M1825.73,2376.07c-29.295,-60.465 -135.866,-240.18 -253.719,-293.301c-128.146,-57.761 -515.16,-53.264 -515.16,-53.264l0,278.65l162.89,9.086c42.098,10.545 83.546,12.647 124.393,6.939c7.591,42.906 -67.267,50.534 -59.048,74.37c8.219,23.836 47.099,65.687 108.362,68.646c45.805,11.847 90.824,11.904 135.409,5.46c0,-0 79.723,-17.681 98.086,-57.575c11.477,-24.935 12.089,-81.458 12.089,-81.458c0,-0 89.826,90.876 116.801,107.923c39.145,24.738 96.461,-10.65 69.897,-65.476Z"></path><path fill="#111" d="M1454.69 2263.71c0 0 .341 112.715-12.459 144.485-3.803 9.44-14.592 18.344-26.038 25.761-17.697 11.468-37.171 19.235-37.171 19.235-1.36.543-2.022 2.085-1.48 3.445.542 1.359 2.084 2.022 3.444 1.48 0 0 19.956-7.96 38.09-19.711 12.441-8.062 23.938-17.968 28.072-28.228 12.979-32.213 12.844-146.478 12.844-146.478-.003-1.464-1.193-2.648-2.657-2.645-1.464.003-2.648 1.192-2.645 2.656zM1536.91 2243.3c0 0 9.404 158.084 6.275 195.403-.382 4.553-4.245 9.481-8.541 13.879-6.952 7.118-15.365 12.699-15.365 12.699-1.22.81-1.553 2.455-.744 3.674.81 1.22 2.455 1.553 3.675.744 0 0 12.124-8.058 19.778-17.351 3.564-4.328 6.124-8.96 6.48-13.202 3.141-37.464-6.266-196.16-6.266-196.16-.087-1.461-1.342-2.576-2.803-2.489-1.462.087-2.576 1.342-2.489 2.803zM1598.35 2225.87c0 0 22.76 68.744 34.139 103.116.461 1.39 1.96 2.144 3.35 1.683 1.39-.46 2.143-1.959 1.683-3.349-11.38-34.372-34.14-103.116-34.14-103.116-.46-1.39-1.959-2.143-3.349-1.683-1.39.46-2.143 1.96-1.683 3.349z"></path></g><path fill="#9e242f" d="M1204.54,1938.87l-177.953,-15.345c-124.008,156.281 -145.836,318.035 -64.96,485.291l174.849,-13.212c24.907,-61.609 -13.567,-83.379 -53.722,-104.093c55.636,-50.852 61.258,-95.454 -0.889,-131.584c57.094,-33.016 83.86,-72.306 34.168,-127.416c54.305,-18.385 87.573,-47.651 88.507,-93.641Z"></path></g></svg>