<svg xmlns="http://www.w3.org/2000/svg" fill-rule="evenodd" stroke-linecap="round" stroke-linejoin="round" stroke-miterlimit="1.5" clip-rule="evenodd" viewBox="0 0 3000 3000" id="website-interface-development"><path fill="none" d="M0 0h3000v3000H0z"></path><path fill="#1b2e35" d="M709.893 2636.42h613.564v31.728H709.893z"></path><path fill="#3b484d" d="m1135.46 2265.26-600.351-78.159 195.54 465.178h601.221l-196.41-387.019Z"></path><path fill="#1b2e35" d="m709.901 2668.61-194.915-465.534 20.126-15.972 195.54 465.178-20.751 16.328ZM732.424 2652.28h505.819v31.728H732.424z"></path><path fill="#3b484d" d="M1238.24 2652.28h444.64v31.7h-444.64z"></path><path fill="#e4e9ff" d="m1091.98 2323.93-470.905-58.951 147.45 345.135h469.553L1091.98 2323.93Z"></path><path fill="#1b2e35" d="M1484.83 2002.06h-49.675l-1051.56-350.086h51.213l1050.02 350.086ZM383.595 1565.39h51.213v86.577h-51.213zM380.199 269.399h51.213v86.577h-51.213z"></path><path fill="#1b2e35" d="M447.772 365.508v33.401l-67.573-42.934h51.214l16.359 9.533Z"></path><path fill="#abf" d="M1413.86 845.967 447.773 365.508v1204.2l966.087 321.531V845.969Z"></path><path fill="#3b484d" d="M1484.83 1914.86 434.81 1565.395v87.198l1050.02 349.465v-87.198ZM1444.83 776.356 431.41 269.399v87.198c336.466 173.723 675.195 338.357 1013.26 504.9l.158-85.141Z"></path><path fill="#1b2e35" d="M826.456 692.305c10.207-126.507-118.565-140.562-139.271-35.483-62.722 8.372-87.946 47.581-71.811 79.415 24.79 48.911 213.486 107.608 272.457 92.933 34.871-8.678 25.047-100.501-61.375-136.865Z"></path><path fill="#e4e9ff" d="m1295.78 1280.18-662.79-231.195v458.026l662.721 211.001.069-437.832Z"></path><path fill="#3b484d" d="m1295.71 1280.1-662.715-231.116v96.928l662.721 223.013-.006-88.825Z"></path><circle cx="690.867" cy="1110.33" r="18.04" fill="#1b2e35"></circle><circle cx="766.673" cy="1134.75" r="18.04" fill="#1b2e35"></circle><circle cx="840.338" cy="1160.44" r="18.04" fill="#1b2e35"></circle><path fill="#1b2e35" d="M997.203 1033.21v127.228a2.542 2.542 0 0 0 5.083 0v-125.12l245.366 101.77a2.539 2.539 0 0 0 3.514-2.273l2.23-76.889a2.54 2.54 0 1 0-5.08-.147l-2.124 73.202-245.422-101.794a3.349 3.349 0 0 0-.106-.043l-249.49-103.481V809.136a2.541 2.541 0 0 0-5.082 0V927.36c0 1.028.619 1.954 1.567 2.348l249.544 103.502ZM920.193 1297.7l118.777 44.161a2.541 2.541 0 0 0 1.771-4.764l-118.777-44.16a2.54 2.54 0 1 0-1.771 4.763ZM1094.68 1360.18l122.584 38.07a2.541 2.541 0 0 0 1.507-4.854l-122.584-38.069a2.541 2.541 0 0 0-1.507 4.853ZM893.521 1341.85l302.55 102.721a2.54 2.54 0 1 0 1.816-4.747l-302.549-102.72a2.541 2.541 0 1 0-1.817 4.746ZM701.142 1360.18l104.605 32.639a2.542 2.542 0 0 0 1.514-4.852l-104.605-32.638a2.542 2.542 0 0 0-1.514 4.851ZM853.825 1405.81l66.495 20.792a2.542 2.542 0 0 0 1.517-4.851l-66.495-20.791a2.54 2.54 0 1 0-1.517 4.85ZM979.685 1444.79l277.593 89.773a2.541 2.541 0 1 0 1.564-4.836l-277.593-89.773a2.542 2.542 0 0 0-1.564 4.836Z"></path><path fill="#1b2e35" fill-rule="nonzero" d="m714.562 1233.9 32.499 26.428-3.578 11.622-41.584-37.404 2.665-8.657 55.403-7.481-3.578 11.621-41.827 3.871ZM757.09 1296.92l-9.427-2.902 64.91-82.645 9.369 2.884-64.852 82.663ZM857.925 1277.65l-34.465-27.423 3.468-11.266 43.737 38.002-2.665 8.657-57.556 6.884 3.505-11.385 43.976-3.469Z"></path><path fill="#1b2e35" d="M1153.55 892.062c1.53-19.94 9.006-36.309 21.715-47.544a281.486 281.486 0 0 0 25.793 19.119c-4.262 13.13-6.739 27.948-7.375 44.093l-40.133-15.668Zm91.78 102.769-.276 40.549c-11.383-8.357-21.907-25.883-29.368-48.977 9.262 1.865 19.211 4.703 29.644 8.428Zm-24.983 26.696c-14.053-10.337-26.851-23.373-37.515-38.239 6.505-.086 13.577.36 21.101 1.35 4.394 13.927 9.989 26.475 16.414 36.889Zm-14.791-94.984 40.133 15.667-.275 40.299c-11.473-4.104-22.709-7.204-33.469-9.242-3.763-15.156-5.951-31.205-6.389-46.724Zm40.505-38.772-.275 40.299-40.133-15.667c.647-15.105 3.041-29.356 6.99-41.492a280.351 280.351 0 0 0 33.418 16.86Zm-62.24-49.508c10.818-6.479 23.726-9.48 37.836-8.814-6.532 5.339-12.26 13.474-16.829 23.903-7.489-4.871-14.537-9.937-21.007-15.089Zm32.722 22.485c7.736-17.179 18.451-26.405 29.878-25.831l-.276 40.541c-10.437-4.432-20.372-9.365-29.602-14.71Zm-16.22 110.724c-9.049-1.12-17.751-1.48-25.917-1.068-12.489-21.053-19.702-43.165-20.953-64.201l40.133 15.667c.413 16.546 2.676 33.205 6.737 49.602Zm151.48 12.118c-1.539 19.982-9.007 36.372-21.716 47.589a284.384 284.384 0 0 0-25.794-19.11c4.254-13.133 6.731-27.952 7.377-44.146l40.133 15.667Zm-91.782-102.715.277-40.541c11.383 8.331 21.907 25.857 29.368 48.96-9.254-1.871-19.203-4.7-29.645-8.419Zm41.398 10.184c-4.394-13.927-9.989-26.483-16.423-36.884 14.044 10.325 26.852 23.365 37.516 38.231-6.506.086-13.578-.36-21.093-1.347Zm-1.632 58.092-40.125-15.664.275-40.299c11.456 4.097 22.692 7.197 33.462 9.248 3.763 15.129 5.959 31.182 6.388 46.715Zm11.97 4.673c-.413-16.546-2.676-33.205-6.737-49.594 9.058 1.124 17.752 1.481 25.925 1.063 12.489 21.062 19.695 43.163 20.945 64.198l-40.133-15.667Zm-52.466 34.102.275-40.343 40.124 15.664c-.638 15.152-3.04 29.419-6.989 41.536a278.982 278.982 0 0 0-33.41-16.857Zm62.24 49.508c-10.81 6.482-23.726 9.48-37.846 8.819 6.542-5.352 12.279-13.476 16.839-23.908 7.505 4.887 14.546 9.941 21.007 15.089Zm-32.731-22.488c-7.727 17.164-18.433 26.394-29.869 25.851l.276-40.549c10.393 4.406 20.319 9.326 29.593 14.698Zm-35.353-190.74c-61.486-24.002-111.864 7.449-112.291 70.112-.428 62.654 49.255 133.167 110.74 157.169 61.494 24.006 111.873-7.444 112.3-70.098.428-62.664-49.255-133.176-110.749-157.183Z"></path><path fill="#140e0a" d="M712.222 2683.64h1907.58v46.967H712.222z"></path><path fill="#1b2e35" d="M2315.85 2401.81c-177.423-19.274-357.423-16.651-541.898 24.013l-66.81 257.814h678.501c-7.642-91.102-31.853-185.217-69.793-281.827Z"></path><path fill="#0e0e0e" d="M2162.98 1038.28c-73.008-71.632-157.778-82.157-251.816-30.41-72.423 8.512-140.422 92.488-127.015 165.732 11.813 64.536-39.697 153.741-78.192 170.309 87.518 56.001 183.639 93.362 284.711 119.995 64.784 13.835 117.03 5.488 155.385-27.437 47.978 5.495 94.669 1.975 136.54-35.283l-34.44-57.275 55.639-13.858c-42.739-22.588-85.429-237.435-140.812-291.773Z"></path><path fill="#ffbe9d" d="M1702.63 1402.45c-6.205-52.9-19.59-92.55-53.392-133.207-36.229-43.578-129.752-104.442-163.983-128.256-28.955-20.144-45.57 38.625-32.76 60.823 9.325 16.159 44.147 50.537 44.147 50.537-54.105 66.868-60.871 132.141 10.341 194.785 9.344 25.201 26.804 47.697 48.821 68.674 0 0-1.508 395.977 47.294 472.962 58.861 92.854 248.312 91.823 252.431-15.509 3.831-99.823-152.899-570.809-152.899-570.809Z"></path><path fill="#ffbe9d" d="M2146.05 1619.55c-79.827-13.295-345.368 135.835-432.861 183.123-138.394 74.798-147.526 233.364 0 252.687 80.24 10.51 392.266-99.308 471.061-159.991 85.988-66.222 62.777-259.001-38.2-275.819Z"></path><path fill="#0e0e0e" d="M1517.64 1450.11c16.144-3.924 29.392-13.661 38.345-31.968a2.542 2.542 0 0 0-4.566-2.232c-8.178 16.723-20.231 25.676-34.979 29.261a2.541 2.541 0 0 0 1.2 4.939Z"></path><path fill="#0e0e0e" d="M1586.28 1430.1c-21.422-11.596-36.346-26.085-39.52-45.977a2.539 2.539 0 0 0-1.579-1.964s-14.542-3.259-26.08-12.242c-23.228-18.085-36.645-48.99-32.366-63.443 2.727-9.213 7.13-17.306 13.423-18.827 16.568-4.004 52.184 22.615 52.184 22.615a2.544 2.544 0 0 0 2.03.302c29.175-7.998 58.311-.552 87.486 26.622a2.541 2.541 0 0 0 3.464-3.719c-30.393-28.309-60.824-36.055-91.218-28.092-3.821-2.349-36.746-26.428-55.541-22.553-7.621 1.571-13.617 11.082-16.702 22.209-5.818 20.984 10.169 52.262 31.64 66.917 11.947 8.154 23.996 12.567 28.488 14.404 3.867 20.64 19.382 36.043 41.871 48.218a2.542 2.542 0 0 0 2.42-4.47Z"></path><path fill="#ffb228" d="M2227.88 1648.83c-80.143-117.806-224.497-119.405-318.977-1.765-64.373 80.153-180.447 176.696-212.44 300.199-15.269 58.944 58.468 123.869 63.696 184.534 6.46 74.961-26.043 213.284-24.936 265.231.362 17.016 42.165 28.795 42.165 28.795 178.995-34.076 357.99-41.202 536.984-23.5 0 0 72.749-54.868 71.251-94.214-2.055-54.01-64.613-150.56-83.583-229.847-26.291-109.88-19.458-349.023-74.16-429.433Z"></path><path fill="#ffbe9d" d="m2073.81 1313.44-195.727 63.902c8.319 95.159 15.911 151.536 29.722 271.87 26.84 16.685 120.431-20.032 234.832-73.397l-68.827-262.375Z"></path><path fill="#f69e70" d="M1889.18 1485.7c93.174-19.707 154.179-162.316 154.179-162.316l-165.275 53.96 11.096 108.356Z"></path><path fill="#ffbe9d" d="M2090.91 1108.24c-48.614-22.371-129.671-53.558-188.546-33.683s-122.051 131.564-140.608 162.179c-6.275 10.354 29.265 21.514 29.265 21.514s-37.391 152.862 32.776 172.287c71.899 19.904 212.92-6.871 291.207-131.789 91.17 13.261 101.309-132.798-24.094-190.508Z"></path><ellipse cx="2107.42" cy="1330.06" fill="#9e242f" rx="38.629" ry="34.505"></ellipse><path fill="#0e0e0e" d="M1885.06 1138.73c6.027 1.407 8.922 11.113 6.461 21.661-2.462 10.548-9.354 17.969-15.382 16.563-6.027-1.407-8.922-11.113-6.46-21.661 2.461-10.548 9.353-17.97 15.381-16.563ZM1890.2 1276.31c-17.68 30.202-43.633 43.879-72.713 51.28a2.542 2.542 0 0 0 1.254 4.926c30.361-7.728 57.387-22.106 75.845-53.638a2.541 2.541 0 0 0-4.386-2.568ZM2115 1031.85c-34.699-51.529-118.491-67.259-202.366-27.577 0 0-33.781 83.979-5.671 118.792 33.518 41.51 179.362 107.041 38.784 199.609 50.777 23.336 145.529 36.343 175.08-9.225 39.441-60.817 28.872-230.069-5.827-281.599Z"></path><path fill="#9e242f" d="M2151.87 1657.81c-10.789-107.044-140.907-139.322-217.027-56.884-46.859 50.749-139.626 267.99-139.626 267.99 66.752 97.039 160.42 131.842 294.822 111.674 0 0 68.485-256.756 61.831-322.78Z"></path><path fill="#ffbe9d" d="m2052.24 1902.82-187.201-86.357s-162.85 195.898-184.63 266.817c-38.465 125.252 51.462 220.032 146.118 207.745 71.523-9.284 240.352-362.587 225.713-388.205Z"></path><path fill="#ffb228" d="M2151.87 1657.81c-10.789-107.044-140.907-139.322-217.027-56.884-46.859 50.749-139.626 267.99-139.626 267.99 108.03-16.33 199.351 24.92 294.822 111.674 0 0 68.485-256.756 61.831-322.78Z"></path><path fill="none" stroke="#a71313" stroke-width="2.89" d="M1934.85 1600.92c-46.859 50.749-139.626 267.99-139.626 267.99M2090.04 1980.59s68.485-256.756 61.831-322.78c-4.314-42.798-27.702-73.644-59.088-89.985"></path><path fill="#ffbe9d" d="M1720.31 2030.25c-90.974.071-429.482 152.787-429.482 152.787s-144.18-52.826-206.778-27.01c-62.598 25.817-153.932 146.387-168.81 181.91-11.004 26.271 44.006 41.865 79.539 31.225 0 0-10.308 43.513-.825 49.904 9.483 6.392 34.826 14.674 57.724-11.555 33.577 26.72 56.568 21.684 74.361 1.052 20.502 20.078 37.637 18.728 48.68 9.648 8.835-7.263 33.381-34.625 33.381-34.625 226.541 52.773 517.223 2.738 618.152-85.299 94.567-82.488 7.745-268.125-105.942-268.037Z"></path><path fill="#0e0e0e" d="M1047.57 2237.24c-24.902 37.449-47.367 82.19-53.792 126.746a2.541 2.541 0 0 0 5.03.726c6.321-43.834 28.496-87.816 52.994-124.658a2.54 2.54 0 1 0-4.232-2.814ZM1099.29 2276.86c-26.629 37.782-51.187 76.965-47.719 126.213a2.542 2.542 0 0 0 5.07-.357c-3.381-48.009 20.845-86.097 46.803-122.928a2.542 2.542 0 0 0-4.154-2.928ZM1186.69 2292.29c-28.835 31.263-53.835 64.777-58.332 110.357a2.54 2.54 0 1 0 5.057.499c4.382-44.403 28.92-76.954 57.011-107.411a2.542 2.542 0 1 0-3.736-3.445ZM1258.22 2333.95l-23.069-4.153a2.542 2.542 0 0 0-2.723 1.365l-21.223 42.446a2.54 2.54 0 0 0 4.546 2.273l20.372-40.745 21.197 3.816a2.542 2.542 0 0 0 .9-5.002Z"></path></svg>