<svg xmlns="http://www.w3.org/2000/svg" viewBox="0 0 30 30" id="mastercard"><g fill="#303C42"><path d="M28 4H2C.897 4 0 4.897 0 6v18c0 1.103.897 2 2 2h26c1.103 0 2-.897 2-2V6c0-1.103-.897-2-2-2zm1 20c0 .551-.449 1-1 1H2c-.551 0-1-.449-1-1V6c0-.551.449-1 1-1h26c.551 0 1 .449 1 1v18z"></path><path d="M13.436 22.623c-.198 0-.262-.122-.262-.305v-.823h.647v-.362h-.647v-.553h-.4v.553h-.37v.362h.37v.83c0 .423.163.675.632.675.171 0 .37-.053.495-.141l-.114-.34a.731.731 0 01-.35.104zM15.056 21.087c-.534 0-.907.389-.907.957 0 .579.389.956.934.956.274 0 .525-.069.746-.255l-.194-.294a.868.868 0 01-.53.19c-.255 0-.487-.117-.545-.445h1.353c.004-.05.008-.1.008-.152-.004-.568-.355-.957-.865-.957zm-.492.797c.042-.263.202-.442.484-.442.256 0 .42.16.461.442h-.945zM11.5 21.86l-.186-.026c-.171-.023-.309-.057-.309-.179 0-.133.13-.213.347-.213.233 0 .457.087.568.156l.171-.32c-.19-.126-.453-.19-.743-.19-.46 0-.758.22-.758.582 0 .297.221.48.629.537l.187.027c.217.03.32.088.32.19 0 .142-.145.222-.416.222a.97.97 0 01-.606-.19l-.186.308c.217.16.491.236.788.236.526 0 .831-.248.831-.594 0-.32-.24-.488-.636-.545zM9.737 21.354a.691.691 0 00-.576-.267c-.51 0-.91.4-.91.957 0 .556.4.956.91.956a.69.69 0 00.576-.267v.221h.396V21.133h-.396v.22zm-.526 1.273c-.343 0-.553-.263-.553-.583 0-.32.21-.583.553-.583.327 0 .548.251.548.583 0 .331-.22.583-.548.583zM7.184 21.087c-.233-.004-.473.069-.64.324a.669.669 0 00-.602-.324.602.602 0 00-.534.27v-.224h-.396v1.821h.4v-1.01c0-.316.175-.483.446-.483.263 0 .396.171.396.48v1.013h.4v-1.01c0-.316.183-.483.446-.483.27 0 .4.171.4.48v1.013h.4v-1.143c0-.43-.274-.72-.716-.724zM16.72 21.354v-.221h-.392v1.821h.397v-1.021c0-.3.13-.469.388-.469.08 0 .164.012.248.046l.122-.373a.847.847 0 00-.282-.05.537.537 0 00-.48.267zM24.593 21.354a.691.691 0 00-.575-.267c-.51 0-.91.4-.91.957 0 .556.4.956.91.956a.69.69 0 00.575-.267v.221h.396v-2.553h-.396v.953zm-.526 1.273c-.343 0-.552-.263-.552-.583 0-.32.21-.583.552-.583.328 0 .549.251.549.583 0 .331-.221.583-.549.583zM22.227 21.354v-.221h-.393v1.821h.397v-1.021c0-.3.13-.469.388-.469.08 0 .164.012.248.046l.122-.373a.847.847 0 00-.282-.05.537.537 0 00-.48.267zM20.916 21.354a.691.691 0 00-.575-.267c-.51 0-.91.4-.91.957 0 .556.4.956.91.956.259 0 .45-.103.575-.267v.221h.396V21.133h-.396v.22zm-.526 1.273c-.343 0-.552-.263-.552-.583 0-.32.21-.583.552-.583.328 0 .549.251.549.583 0 .331-.221.583-.549.583zM18.561 21.46a.8.8 0 01.477.164l.19-.32a.954.954 0 00-.655-.217c-.587 0-.972.404-.972.957 0 .552.385.956.972.956a.954.954 0 00.655-.217l-.19-.32a.8.8 0 01-.477.164c-.316-.004-.548-.233-.548-.583s.232-.58.548-.583zM19 7a5.969 5.969 0 00-4 1.54A5.969 5.969 0 0011 7c-3.309 0-6 2.691-6 6s2.691 6 6 6a5.969 5.969 0 004-1.54A5.969 5.969 0 0019 19c3.309 0 6-2.691 6-6s-2.691-6-6-6zm-4 8.97c-.62-.834-1-1.854-1-2.97s.38-2.136 1-2.97c.62.834 1 1.854 1 2.97s-.38 2.136-1 2.97zM6 13c0-2.757 2.243-5 5-5a4.96 4.96 0 013.304 1.276 5.966 5.966 0 000 7.448A4.96 4.96 0 0111 18c-2.757 0-5-2.243-5-5zm13 5a4.96 4.96 0 01-3.304-1.276 5.966 5.966 0 000-7.448A4.96 4.96 0 0119 8c2.757 0 5 2.243 5 5s-2.243 5-5 5z"></path></g></svg>