<svg xmlns="http://www.w3.org/2000/svg" width="100" height="100" id="paypal"><g transform="translate(92.78 -288.088)"><rect width="63.214" height="40.714" x="-73.879" y="317.729" fill="#f9f9f9" fill-rule="evenodd" stroke="#000" stroke-linecap="round" stroke-linejoin="round" stroke-width=".8" rx="3.599" ry="3.599"></rect><g style="line-height:125%" fill="#494949" font-family="Sans" font-size="16.09" font-weight="400" letter-spacing="0" word-spacing="0"><path d="M-57.956 335.807a5.249 5.249 0 0 1-.863 1.58 5.772 5.772 0 0 1-1.366 1.245c-.53.348-1.122.619-1.777.813a7.39 7.39 0 0 1-2.106.29h-1.037l-1.231 3.622h-3.394l3.829-11.266h4.62c.738 0 1.369.065 1.893.196s.93.345 1.22.64c.29.297.455.68.497 1.152.041.471-.054 1.047-.285 1.728zm-3.63.118c.09-.267.124-.49.1-.668a.716.716 0 0 0-.196-.428.927.927 0 0 0-.424-.232 2.251 2.251 0 0 0-.585-.07h-.644l-.945 2.78h.762c.272 0 .513-.033.722-.101a1.724 1.724 0 0 0 .946-.727c.108-.17.196-.355.263-.554zM-55.015 343.357l.417-1.225h-.032c-.402.445-.85.793-1.34 1.045a3.448 3.448 0 0 1-1.594.377c-.409 0-.743-.064-1.003-.193a1.29 1.29 0 0 1-.578-.53 1.568 1.568 0 0 1-.184-.79c.003-.3.063-.624.18-.97.1-.293.24-.587.418-.88a3.36 3.36 0 0 1 .714-.817 4.27 4.27 0 0 1 1.11-.656c.443-.186.98-.318 1.608-.397l2.084-.26a.646.646 0 0 0 .027-.368.555.555 0 0 0-.175-.283.893.893 0 0 0-.35-.18 1.819 1.819 0 0 0-.502-.064c-.267 0-.54.023-.82.067-.28.045-.554.103-.822.177a9.377 9.377 0 0 0-.776.247c-.248.092-.48.185-.695.28l.74-2.177c.221-.084.48-.165.777-.244.297-.078.605-.146.926-.204.32-.058.64-.105.956-.141a7.63 7.63 0 0 1 .875-.055c.733 0 1.321.08 1.764.24.444.159.763.397.96.714.195.317.278.713.248 1.187-.03.474-.153 1.028-.368 1.661l-1.508 4.44zm.068-3.527c-.271.042-.506.127-.704.255a1.01 1.01 0 0 0-.462.805c-.001.09.017.17.055.244.038.073.1.132.187.177a.774.774 0 0 0 .35.066c.168 0 .335-.032.501-.098.167-.065.323-.16.47-.283a2.318 2.318 0 0 0 .684-1.017l.103-.306zM-44.902 343.585c-.32.461-.661.905-1.026 1.332a7.927 7.927 0 0 1-1.191 1.135c-.43.33-.896.593-1.4.79a4.533 4.533 0 0 1-1.66.294 7.021 7.021 0 0 1-.881-.067 5.144 5.144 0 0 1-.512-.098 3.026 3.026 0 0 1-.477-.157l.857-2.522a.872.872 0 0 0 .239.165c.096.047.199.09.307.126a2.057 2.057 0 0 0 .638.11 1.9 1.9 0 0 0 .827-.18 1.81 1.81 0 0 0 .665-.559l.473-.628-.64-8.014h3.701l-.344 3.881c-.01.12-.02.25-.033.385a13.705 13.705 0 0 1-.094.774c-.02.118-.04.219-.063.303h.03c.09-.184.205-.4.347-.649.142-.248.298-.514.467-.797l2.29-3.897h3.253z" style="text-align:start;line-height:125%;-inkscape-font-specification:'Segoe WP Black, Ultra-Bold Oblique'" font-family="Segoe WP Black" font-style="oblique" font-weight="800"></path><path d="M-29.138 335.807a5.249 5.249 0 0 1-.863 1.58 5.772 5.772 0 0 1-1.366 1.245c-.53.348-1.122.619-1.777.813a7.39 7.39 0 0 1-2.106.29h-1.037l-1.231 3.622h-3.394l3.829-11.266h4.62c.738 0 1.369.065 1.893.196s.93.345 1.22.64c.29.297.455.68.497 1.152.041.471-.054 1.047-.285 1.728zm-3.63.118c.09-.267.124-.49.1-.668a.716.716 0 0 0-.196-.428.927.927 0 0 0-.424-.232 2.251 2.251 0 0 0-.584-.07h-.645l-.945 2.78h.762c.272 0 .513-.033.722-.101a1.724 1.724 0 0 0 .946-.727c.108-.17.196-.355.263-.554zM-26.197 343.357l.417-1.225h-.032c-.402.445-.85.793-1.34 1.045a3.448 3.448 0 0 1-1.594.377c-.409 0-.743-.064-1.003-.193a1.29 1.29 0 0 1-.578-.53 1.568 1.568 0 0 1-.184-.79c.003-.3.063-.624.18-.97.1-.293.24-.587.418-.88a3.36 3.36 0 0 1 .714-.817 4.27 4.27 0 0 1 1.11-.656c.443-.186.98-.318 1.608-.397l2.084-.26a.646.646 0 0 0 .027-.368.554.554 0 0 0-.174-.283.893.893 0 0 0-.352-.18 1.819 1.819 0 0 0-.5-.064c-.268 0-.541.023-.821.067-.28.045-.554.103-.822.177a9.377 9.377 0 0 0-.776.247c-.248.092-.48.185-.695.28l.74-2.177c.221-.084.48-.165.777-.244.297-.078.605-.146.926-.204.32-.058.64-.105.956-.141a7.63 7.63 0 0 1 .875-.055c.733 0 1.321.08 1.764.24.444.159.763.397.96.714.196.317.278.713.248 1.187-.03.474-.152 1.028-.368 1.661l-1.508 4.44zm.068-3.527c-.271.042-.505.127-.703.255a1.01 1.01 0 0 0-.463.805c-.001.09.017.17.055.244.038.073.1.132.187.177a.774.774 0 0 0 .35.066c.168 0 .335-.032.502-.098.166-.065.322-.16.469-.283a2.318 2.318 0 0 0 .684-1.017l.104-.306zM-21.64 343.357l4.048-11.91h3.347l-4.048 11.91z" style="-inkscape-font-specification:'Segoe WP Black, Ultra-Bold Oblique'" font-family="Segoe WP Black"></path></g></g></svg>